font.ufo
<glyph name="exclam" format="2">
	<unicode hex="0021"/>
	<advance width="289"/>
	<outline>
		<contour>
			<point x="145" y="-13" type="curve" smooth="yes"/>
			<point x="181" y="-13"/>
			<point x="209" y="17"/>
			<point x="209" y="52" type="curve" smooth="yes"/>
			<point x="209" y="87"/>
			<point x="181" y="117"/>
			<point x="145" y="117" type="curve" smooth="yes"/>
			<point x="109" y="117"/>
			<point x="80" y="87"/>
			<point x="80" y="52" type="curve" smooth="yes"/>
			<point x="80" y="17"/>
			<point x="109" y="-13"/>
		</contour>
		<contour>
			<point x="145" y="684" type="curve" smooth="yes"/>
			<point x="109" y="684"/>
			<point x="87" y="665"/>
			<point x="87" y="621" type="curve" smooth="yes"/>
			<point x="87" y="584"/>
			<point x="98" y="491"/>
			<point x="113" y="352" type="curve" smooth="yes"/>
			<point x="126" y="215" type="line"/>
			<point x="163" y="215" type="line"/>
			<point x="177" y="352" type="line" smooth="yes"/>
			<point x="191" y="491"/>
			<point x="202" y="584"/>
			<point x="202" y="621" type="curve" smooth="yes"/>
			<point x="202" y="665"/>
			<point x="180" y="684"/>
		</contour>
	</outline>
</glyph>
<glyph name="ampersand" format="2">
	<unicode hex="0026"/>
	<advance width="720"/>
	<outline>
		<contour>
			<point x="311" y="219" type="curve" smooth="yes"/>
			<point x="362" y="160"/>
			<point x="411" y="105"/>
			<point x="477" y="33" type="curve" smooth="yes"/>
			<point x="510" y="-1"/>
			<point x="541" y="-13"/>
			<point x="594" y="-13" type="curve" smooth="yes"/>
			<point x="620" y="-13"/>
			<point x="640" y="-10"/>
			<point x="670" y="-3" type="curve"/>
			<point x="674" y="41" type="line"/>
			<point x="544" y="58" type="line"/>
			<point x="595" y="34" type="line"/>
			<point x="492" y="145"/>
			<point x="432" y="208"/>
			<point x="353" y="294" type="curve" smooth="yes"/>
			<point x="289" y="364"/>
			<point x="260" y="396"/>
			<point x="222" y="443" type="curve" smooth="yes"/>
			<point x="185" y="489"/>
			<point x="177" y="520"/>
			<point x="177" y="556" type="curve" smooth="yes"/>
			<point x="177" y="609"/>
			<point x="217" y="649"/>
			<point x="268" y="649" type="curve" smooth="yes"/>
			<point x="317" y="649"/>
			<point x="355" y="613"/>
			<point x="355" y="555" type="curve" smooth="yes"/>
			<point x="355" y="492"/>
			<point x="303" y="445"/>
			<point x="232" y="398" type="curve"/>
			<point x="249" y="370" type="line"/>
			<point x="368" y="431"/>
			<point x="421" y="482"/>
			<point x="421" y="556" type="curve" smooth="yes"/>
			<point x="421" y="631"/>
			<point x="368" y="684"/>
			<point x="269" y="684" type="curve" smooth="yes"/>
			<point x="175" y="684"/>
			<point x="105" y="630"/>
			<point x="105" y="542" type="curve" smooth="yes"/>
			<point x="105" y="489"/>
			<point x="124" y="438"/>
			<point x="174" y="381" type="curve" smooth="yes"/>
			<point x="220" y="329"/>
			<point x="252" y="288"/>
		</contour>
		<contour>
			<point x="442" y="131" type="curve"/>
			<point x="474" y="111" type="line"/>
			<point x="535" y="195"/>
			<point x="578" y="282"/>
			<point x="604" y="398" type="curve"/>
			<point x="556" y="398" type="line"/>
			<point x="534" y="291"/>
			<point x="497" y="210"/>
		</contour>
		<contour>
			<point x="226" y="361" type="curve"/>
			<point x="206" y="389" type="line"/>
			<point x="88" y="338"/>
			<point x="27" y="267"/>
			<point x="27" y="169" type="curve" smooth="yes"/>
			<point x="27" y="68"/>
			<point x="113" y="-13"/>
			<point x="238" y="-13" type="curve" smooth="yes"/>
			<point x="356" y="-13"/>
			<point x="426" y="43"/>
			<point x="468" y="106" type="curve"/>
			<point x="438" y="131" type="line"/>
			<point x="402" y="81"/>
			<point x="335" y="51"/>
			<point x="265" y="51" type="curve" smooth="yes"/>
			<point x="168" y="51"/>
			<point x="114" y="123"/>
			<point x="114" y="196" type="curve" smooth="yes"/>
			<point x="114" y="251"/>
			<point x="137" y="319"/>
		</contour>
		<contour>
			<point x="587" y="373" type="line"/>
			<point x="675" y="389" type="line"/>
			<point x="675" y="429" type="line"/>
			<point x="472" y="429" type="line"/>
			<point x="472" y="389" type="line"/>
			<point x="567" y="373" type="line"/>
		</contour>
	</outline>
</glyph>
<glyph name="asterisk" format="1">
	<unicode hex="002A"/>
	<advance width="439"/>
	<outline>
		<contour>
			<point x="220" y="747" type="curve" smooth="yes"/>
			<point x="199" y="747"/>
			<point x="185" y="737"/>
			<point x="185" y="711" type="curve" smooth="yes"/>
			<point x="185" y="692"/>
			<point x="191" y="652"/>
			<point x="198" y="607" type="curve" smooth="yes"/>
			<point x="205" y="560" type="line"/>
			<point x="162" y="581" type="line" smooth="yes"/>
			<point x="113" y="605"/>
			<point x="76" y="627"/>
			<point x="53" y="627" type="curve" smooth="yes"/>
			<point x="34" y="627"/>
			<point x="20" y="612"/>
			<point x="20" y="592" type="curve" smooth="yes"/>
			<point x="20" y="556"/>
			<point x="69" y="552"/>
			<point x="149" y="540" type="curve" smooth="yes"/>
			<point x="196" y="532" type="line"/>
			<point x="163" y="497" type="line" smooth="yes"/>
			<point x="117" y="451"/>
			<point x="82" y="424"/>
			<point x="82" y="396" type="curve" smooth="yes"/>
			<point x="82" y="376"/>
			<point x="98" y="364"/>
			<point x="114" y="364" type="curve" smooth="yes"/>
			<point x="147" y="364"/>
			<point x="164" y="408"/>
			<point x="197" y="473" type="curve" smooth="yes"/>
			<point x="220" y="515" type="line"/>
			<point x="242" y="473" type="line" smooth="yes"/>
			<point x="275" y="408"/>
			<point x="293" y="364"/>
			<point x="325" y="364" type="curve" smooth="yes"/>
			<point x="342" y="364"/>
			<point x="358" y="376"/>
			<point x="358" y="396" type="curve" smooth="yes"/>
			<point x="358" y="424"/>
			<point x="323" y="450"/>
			<point x="277" y="497" type="curve" smooth="yes"/>
			<point x="243" y="532" type="line"/>
			<point x="290" y="540" type="line" smooth="yes"/>
			<point x="369" y="552"/>
			<point x="419" y="554"/>
			<point x="419" y="592" type="curve" smooth="yes"/>
			<point x="419" y="612"/>
			<point x="406" y="627"/>
			<point x="388" y="627" type="curve" smooth="yes"/>
			<point x="367" y="627"/>
			<point x="327" y="606"/>
			<point x="277" y="581" type="curve" smooth="yes"/>
			<point x="234" y="560" type="line"/>
			<point x="241" y="607" type="line" smooth="yes"/>
			<point x="247" y="652"/>
			<point x="255" y="693"/>
			<point x="255" y="711" type="curve" smooth="yes"/>
			<point x="255" y="737"/>
			<point x="240" y="747"/>
		</contour>
	</outline>
</glyph>
<glyph name="comma" format="2">
	<unicode hex="002C"/>
	<advance width="300"/>
	<outline>
		<contour>
			<point x="213" y="29" type="curve" smooth="yes"/>
			<point x="213" y="53"/>
			<point x="210" y="76"/>
			<point x="202" y="101" type="curve"/>
			<point x="177" y="124"/>
			<point x="158" y="130"/>
			<point x="140" y="130" type="curve" smooth="yes"/>
			<point x="99" y="130"/>
			<point x="78" y="102"/>
			<point x="78" y="67" type="curve" smooth="yes"/>
			<point x="78" y="42"/>
			<point x="89" y="16"/>
			<point x="116" y="-5" type="curve" smooth="yes"/>
			<point x="165" y="-43" type="line"/>
			<point x="161" y="0" type="line"/>
			<point x="144" y="-95"/>
			<point x="84" y="-151"/>
			<point x="6" y="-190" type="curve"/>
			<point x="20" y="-224" type="line"/>
			<point x="116" y="-188"/>
			<point x="213" y="-92"/>
		</contour>
	</outline>
</glyph>
<glyph name="one" format="2">
	<unicode hex="0031"/>
	<advance width="500"/>
	<outline>
		<contour>
			<point x="85" y="601" type="line"/>
			<point x="85" y="560" type="line"/>
			<point x="217" y="571" type="line"/>
			<point x="217" y="211" type="line" smooth="yes"/>
			<point x="217" y="141"/>
			<point x="216" y="70"/>
			<point x="214" y="0" type="curve"/>
			<point x="304" y="0" type="line"/>
			<point x="302" y="70"/>
			<point x="301" y="141"/>
			<point x="301" y="211" type="curve" smooth="yes"/>
			<point x="301" y="501" type="line"/>
			<point x="305" y="644" type="line"/>
			<point x="291" y="654" type="line"/>
		</contour>
		<contour>
			<point x="301" y="60" type="line"/>
			<point x="217" y="60" type="line"/>
			<point x="74" y="36" type="line"/>
			<point x="74" y="0" type="line"/>
			<point x="445" y="0" type="line"/>
			<point x="445" y="36" type="line"/>
		</contour>
	</outline>
</glyph>
<glyph name="A" format="2">
	<unicode hex="0041"/>
	<advance width="664"/>
	<outline>
		<contour>
			<point x="5" y="0" type="line"/>
			<point x="234" y="0" type="line"/>
			<point x="234" y="41" type="line"/>
			<point x="125" y="56" type="line"/>
			<point x="105" y="56" type="line"/>
			<point x="5" y="41" type="line"/>
		</contour>
		<contour>
			<point x="71" y="0" type="line"/>
			<point x="118" y="0" type="line"/>
			<point x="309" y="562" type="line"/>
			<point x="497" y="0" type="line"/>
			<point x="595" y="0" type="line"/>
			<point x="365" y="674" type="line"/>
			<point x="302" y="674" type="line"/>
		</contour>
		<contour>
			<point x="170" y="217" type="line"/>
			<point x="472" y="217" type="line"/>
			<point x="456" y="264" type="line"/>
			<point x="186" y="264" type="line"/>
		</contour>
		<contour>
			<point x="381" y="0" type="line"/>
			<point x="653" y="0" type="line"/>
			<point x="653" y="41" type="line"/>
			<point x="529" y="56" type="line"/>
			<point x="507" y="56" type="line"/>
			<point x="381" y="41" type="line"/>
		</contour>
	</outline>
	<anchor name="aboveUC" x="322" y="691"/>
	<anchor name="belowLC" x="312" y="-22"/>
	<anchor name="ogonek" x="547" y="0"/>
</glyph>
<glyph name="B" format="2">
	<unicode hex="0042"/>
	<advance width="629"/>
	<outline>
		<contour>
			<point x="44" y="0" type="line"/>
			<point x="185" y="0" type="line"/>
			<point x="185" y="56" type="line"/>
			<point x="175" y="56" type="line"/>
			<point x="44" y="41" type="line"/>
		</contour>
		<contour>
			<point x="135" y="0" type="curve"/>
			<point x="236" y="0" type="line"/>
			<point x="233" y="103"/>
			<point x="233" y="207"/>
			<point x="233" y="325" type="curve" smooth="yes"/>
			<point x="233" y="359" type="line" smooth="yes"/>
			<point x="233" y="464"/>
			<point x="233" y="568"/>
			<point x="236" y="669" type="curve"/>
			<point x="135" y="669" type="line"/>
			<point x="138" y="566"/>
			<point x="138" y="462"/>
			<point x="138" y="359" type="curve" smooth="yes"/>
			<point x="138" y="310" type="line" smooth="yes"/>
			<point x="138" y="205"/>
			<point x="138" y="101"/>
		</contour>
		<contour>
			<point x="185" y="0" type="line"/>
			<point x="319" y="0" type="line" smooth="yes"/>
			<point x="511" y="0"/>
			<point x="586" y="92"/>
			<point x="586" y="183" type="curve" smooth="yes"/>
			<point x="586" y="270"/>
			<point x="521" y="339"/>
			<point x="364" y="352" type="curve"/>
			<point x="364" y="343" type="line"/>
			<point x="499" y="359"/>
			<point x="552" y="428"/>
			<point x="552" y="506" type="curve" smooth="yes"/>
			<point x="552" y="601"/>
			<point x="473" y="669"/>
			<point x="334" y="669" type="curve" smooth="yes"/>
			<point x="185" y="669" type="line"/>
			<point x="185" y="623" type="line"/>
			<point x="304" y="623" type="line" smooth="yes"/>
			<point x="406" y="623"/>
			<point x="458" y="590"/>
			<point x="458" y="499" type="curve" smooth="yes"/>
			<point x="458" y="408"/>
			<point x="406" y="369"/>
			<point x="285" y="369" type="curve" smooth="yes"/>
			<point x="185" y="369" type="line"/>
			<point x="185" y="323" type="line"/>
			<point x="288" y="323" type="line" smooth="yes"/>
			<point x="426" y="323"/>
			<point x="486" y="276"/>
			<point x="486" y="183" type="curve" smooth="yes"/>
			<point x="486" y="95"/>
			<point x="424" y="47"/>
			<point x="296" y="47" type="curve" smooth="yes"/>
			<point x="185" y="47" type="line"/>
		</contour>
		<contour>
			<point x="44" y="628" type="line"/>
			<point x="175" y="613" type="line"/>
			<point x="185" y="613" type="line"/>
			<point x="185" y="669" type="line"/>
			<point x="44" y="669" type="line"/>
		</contour>
	</outline>
	<anchor name="aboveUC" x="300" y="691"/>
	<anchor name="belowLC" x="331" y="-22"/>
</glyph>
<glyph name="C" format="2">
	<unicode hex="0043"/>
	<advance width="631"/>
	<outline>
		<contour>
			<point x="386" y="-15" type="curve" smooth="yes"/>
			<point x="457" y="-15"/>
			<point x="526" y="-1"/>
			<point x="588" y="33" type="curve"/>
			<point x="592" y="178" type="line"/>
			<point x="530" y="178" type="line"/>
			<point x="505" y="30" type="line"/>
			<point x="567" y="44" type="line"/>
			<point x="567" y="99" type="line"/>
			<point x="511" y="52"/>
			<point x="448" y="35"/>
			<point x="391" y="35" type="curve" smooth="yes"/>
			<point x="254" y="35"/>
			<point x="156" y="139"/>
			<point x="156" y="335" type="curve" smooth="yes"/>
			<point x="156" y="530"/>
			<point x="264" y="634"/>
			<point x="398" y="634" type="curve" smooth="yes"/>
			<point x="446" y="634"/>
			<point x="501" y="617"/>
			<point x="557" y="565" type="curve"/>
			<point x="557" y="625" type="line"/>
			<point x="495" y="639" type="line"/>
			<point x="520" y="491" type="line"/>
			<point x="582" y="491" type="line"/>
			<point x="578" y="636" type="line"/>
			<point x="511" y="675"/>
			<point x="440" y="684"/>
			<point x="385" y="684" type="curve" smooth="yes"/>
			<point x="191" y="684"/>
			<point x="47" y="537"/>
			<point x="47" y="335" type="curve" smooth="yes"/>
			<point x="47" y="129"/>
			<point x="184" y="-15"/>
		</contour>
	</outline>
	<anchor name="aboveUC" x="371" y="691"/>
	<anchor name="belowLC" x="378" y="-22"/>
	<anchor name="baseLC" x="379" y="0"/>
</glyph>
<glyph name="D" format="2">
	<unicode hex="0044"/>
	<advance width="710"/>
	<outline>
		<contour>
			<point x="44" y="0" type="line"/>
			<point x="185" y="0" type="line"/>
			<point x="185" y="56" type="line"/>
			<point x="175" y="56" type="line"/>
			<point x="44" y="41" type="line"/>
		</contour>
		<contour>
			<point x="135" y="0" type="curve"/>
			<point x="236" y="0" type="line"/>
			<point x="233" y="103"/>
			<point x="233" y="207"/>
			<point x="233" y="322" type="curve" smooth="yes"/>
			<point x="233" y="359" type="line" smooth="yes"/>
			<point x="233" y="464"/>
			<point x="233" y="568"/>
			<point x="236" y="669" type="curve"/>
			<point x="135" y="669" type="line"/>
			<point x="138" y="566"/>
			<point x="138" y="462"/>
			<point x="138" y="359" type="curve" smooth="yes"/>
			<point x="138" y="322" type="line" smooth="yes"/>
			<point x="138" y="205"/>
			<point x="138" y="101"/>
		</contour>
		<contour>
			<point x="185" y="0" type="line"/>
			<point x="320" y="0" type="line" smooth="yes"/>
			<point x="515" y="0"/>
			<point x="663" y="118"/>
			<point x="663" y="334" type="curve" smooth="yes"/>
			<point x="663" y="551"/>
			<point x="531" y="669"/>
			<point x="339" y="669" type="curve" smooth="yes"/>
			<point x="185" y="669" type="line"/>
			<point x="185" y="623" type="line"/>
			<point x="323" y="623" type="line" smooth="yes"/>
			<point x="468" y="623"/>
			<point x="554" y="522"/>
			<point x="554" y="334" type="curve" smooth="yes"/>
			<point x="554" y="152"/>
			<point x="468" y="47"/>
			<point x="314" y="47" type="curve" smooth="yes"/>
			<point x="185" y="47" type="line"/>
		</contour>
		<contour>
			<point x="44" y="628" type="line"/>
			<point x="175" y="613" type="line"/>
			<point x="185" y="613" type="line"/>
			<point x="185" y="669" type="line"/>
			<point x="44" y="669" type="line"/>
		</contour>
	</outline>
	<anchor name="aboveUC" x="330" y="691"/>
	<anchor name="belowLC" x="332" y="-22"/>
</glyph>
<glyph name="F" format="1">
	<unicode hex="0046"/>
	<advance width="579"/>
	<outline>
		<contour>
			<point x="175" y="56" type="line"/>
			<point x="44" y="41" type="line"/>
			<point x="44" y="0" type="line"/>
			<point x="328" y="0" type="line"/>
			<point x="328" y="41" type="line"/>
			<point x="197" y="56" type="line"/>
		</contour>
		<contour>
			<point x="138" y="310" type="line" smooth="yes"/>
			<point x="138" y="205"/>
			<point x="138" y="101"/>
			<point x="135" y="0" type="curve"/>
			<point x="236" y="0" type="line"/>
			<point x="233" y="103"/>
			<point x="233" y="207"/>
			<point x="233" y="322" type="curve" smooth="yes"/>
			<point x="233" y="359" type="line" smooth="yes"/>
			<point x="233" y="464"/>
			<point x="233" y="568"/>
			<point x="236" y="669" type="curve"/>
			<point x="135" y="669" type="line"/>
			<point x="138" y="566"/>
			<point x="138" y="462"/>
			<point x="138" y="359" type="curve" smooth="yes"/>
		</contour>
		<contour>
			<point x="175" y="613" type="line"/>
			<point x="185" y="613" type="line"/>
			<point x="185" y="669" type="line"/>
			<point x="44" y="669" type="line"/>
			<point x="44" y="628" type="line"/>
		</contour>
		<contour>
			<point x="492" y="492" type="line"/>
			<point x="549" y="492" type="line"/>
			<point x="542" y="669" type="line"/>
			<point x="185" y="669" type="line"/>
			<point x="185" y="619" type="line"/>
			<point x="508" y="619" type="line"/>
			<point x="461" y="669" type="line"/>
		</contour>
		<contour>
			<point x="387" y="325" type="line"/>
			<point x="402" y="214" type="line"/>
			<point x="448" y="214" type="line"/>
			<point x="448" y="460" type="line"/>
			<point x="402" y="460" type="line"/>
			<point x="387" y="355" type="line"/>
		</contour>
		<contour>
			<point x="419" y="365" type="line"/>
			<point x="185" y="365" type="line"/>
			<point x="185" y="318" type="line"/>
			<point x="419" y="318" type="line"/>
		</contour>
		<contour>
			<point name="aboveUC" x="331" y="691" type="move"/>
		</contour>
		<contour>
			<point name="belowLC" x="184" y="-22" type="move"/>
		</contour>
	</outline>
</glyph>
<glyph name="I" format="2">
	<unicode hex="0049"/>
	<advance width="371"/>
	<outline>
		<contour>
			<point x="44" y="0" type="line"/>
			<point x="327" y="0" type="line"/>
			<point x="327" y="41" type="line"/>
			<point x="196" y="56" type="line"/>
			<point x="175" y="56" type="line"/>
			<point x="44" y="41" type="line"/>
		</contour>
		<contour>
			<point x="135" y="0" type="curve"/>
			<point x="236" y="0" type="line"/>
			<point x="233" y="103"/>
			<point x="233" y="207"/>
			<point x="233" y="310" type="curve" smooth="yes"/>
			<point x="233" y="359" type="line" smooth="yes"/>
			<point x="233" y="464"/>
			<point x="233" y="568"/>
			<point x="236" y="669" type="curve"/>
			<point x="135" y="669" type="line"/>
			<point x="138" y="566"/>
			<point x="138" y="462"/>
			<point x="138" y="359" type="curve" smooth="yes"/>
			<point x="138" y="310" type="line" smooth="yes"/>
			<point x="138" y="205"/>
			<point x="138" y="101"/>
		</contour>
		<contour>
			<point x="44" y="628" type="line"/>
			<point x="175" y="613" type="line"/>
			<point x="196" y="613" type="line"/>
			<point x="327" y="628" type="line"/>
			<point x="327" y="669" type="line"/>
			<point x="44" y="669" type="line"/>
		</contour>
	</outline>
	<anchor name="aboveUC" x="185" y="691"/>
	<anchor name="belowLC" x="185" y="-22"/>
	<anchor name="ogonek" x="225" y="0"/>
</glyph>
<glyph name="J" format="2">
	<unicode hex="004A"/>
	<advance width="374"/>
	<outline>
		<contour>
			<point x="44" y="-163" type="curve" smooth="yes"/>
			<point x="98" y="-163"/>
			<point x="148" y="-142"/>
			<point x="181" y="-109" type="curve" smooth="yes"/>
			<point x="236" y="-54"/>
			<point x="246" y="1"/>
			<point x="246" y="204" type="curve" smooth="yes"/>
			<point x="246" y="360" type="line" smooth="yes"/>
			<point x="246" y="465"/>
			<point x="246" y="568"/>
			<point x="249" y="669" type="curve"/>
			<point x="148" y="669" type="line"/>
			<point x="153" y="177"/>
			<point x="158" y="69"/>
			<point x="158" y="7" type="curve" smooth="yes"/>
			<point x="158" y="-57"/>
			<point x="146" y="-95"/>
			<point x="108" y="-124" type="curve"/>
			<point x="110" y="-132" type="line"/>
			<point x="118" y="-131" type="line"/>
			<point x="126" y="-121" type="line"/>
			<point x="94" y="-95" type="line" smooth="yes"/>
			<point x="65" y="-73"/>
			<point x="44" y="-64"/>
			<point x="19" y="-64" type="curve" smooth="yes"/>
			<point x="-13" y="-64"/>
			<point x="-37" y="-77"/>
			<point x="-43" y="-114" type="curve"/>
			<point x="-33" y="-152"/>
			<point x="6" y="-163"/>
		</contour>
		<contour>
			<point x="47" y="628" type="line"/>
			<point x="188" y="613" type="line"/>
			<point x="209" y="613" type="line"/>
			<point x="340" y="628" type="line"/>
			<point x="340" y="669" type="line"/>
			<point x="47" y="669" type="line"/>
		</contour>
	</outline>
	<anchor name="aboveUC" x="197" y="691"/>
	<anchor name="belowLC" x="95" y="-164"/>
</glyph>
<glyph name="K" format="1">
	<unicode hex="004B"/>
	<advance width="667"/>
	<outline>
		<contour>
			<point x="138" y="310" type="line" smooth="yes"/>
			<point x="138" y="205"/>
			<point x="138" y="101"/>
			<point x="135" y="0" type="curve"/>
			<point x="232" y="0" type="line"/>
			<point x="229" y="103"/>
			<point x="229" y="207"/>
			<point x="229" y="285" type="curve" smooth="yes"/>
			<point x="229" y="359" type="line" smooth="yes"/>
			<point x="229" y="464"/>
			<point x="229" y="568"/>
			<point x="232" y="669" type="curve"/>
			<point x="135" y="669" type="line"/>
			<point x="138" y="566"/>
			<point x="138" y="462"/>
			<point x="138" y="359" type="curve" smooth="yes"/>
		</contour>
		<contour>
			<point x="175" y="56" type="line"/>
			<point x="44" y="41" type="line"/>
			<point x="44" y="0" type="line"/>
			<point x="326" y="0" type="line"/>
			<point x="326" y="41" type="line"/>
			<point x="196" y="56" type="line"/>
		</contour>
		<contour>
			<point x="175" y="613" type="line"/>
			<point x="196" y="613" type="line"/>
			<point x="326" y="628" type="line"/>
			<point x="326" y="669" type="line"/>
			<point x="44" y="669" type="line"/>
			<point x="44" y="628" type="line"/>
		</contour>
		<contour>
			<point x="516" y="609" type="line"/>
			<point x="536" y="613" type="line"/>
			<point x="647" y="628" type="line"/>
			<point x="647" y="669" type="line"/>
			<point x="417" y="669" type="line"/>
			<point x="417" y="628" type="line"/>
		</contour>
		<contour>
			<point x="316" y="371" type="line"/>
			<point x="514" y="0" type="line"/>
			<point x="613" y="0" type="line"/>
			<point x="371" y="436" type="line"/>
		</contour>
		<contour>
			<point x="184" y="175" type="line"/>
			<point x="595" y="669" type="line"/>
			<point x="534" y="669" type="line"/>
			<point x="184" y="241" type="line"/>
		</contour>
		<contour>
			<point x="405" y="0" type="line"/>
			<point x="662" y="0" type="line"/>
			<point x="662" y="41" type="line"/>
			<point x="541" y="56" type="line"/>
			<point x="526" y="56" type="line"/>
			<point x="405" y="41" type="line"/>
		</contour>
		<contour>
			<point name="aboveUC" x="356" y="691" type="move"/>
		</contour>
		<contour>
			<point name="belowLC" x="364" y="-22" type="move"/>
		</contour>
	</outline>
</glyph>
<glyph name="L" format="1">
	<unicode hex="004C"/>
	<advance width="596"/>
	<outline>
		<contour>
			<point x="175" y="56" type="line"/>
			<point x="44" y="41" type="line"/>
			<point x="44" y="0" type="line"/>
			<point x="185" y="0" type="line"/>
			<point x="185" y="56" type="line"/>
		</contour>
		<contour>
			<point x="175" y="613" type="line"/>
			<point x="196" y="613" type="line"/>
			<point x="327" y="628" type="line"/>
			<point x="327" y="669" type="line"/>
			<point x="44" y="669" type="line"/>
			<point x="44" y="628" type="line"/>
		</contour>
		<contour>
			<point x="138" y="359" type="curve" smooth="yes"/>
			<point x="138" y="309" type="line" smooth="yes"/>
			<point x="138" y="207"/>
			<point x="138" y="103"/>
			<point x="135" y="0" type="curve"/>
			<point x="236" y="0" type="line"/>
			<point x="233" y="101"/>
			<point x="233" y="205"/>
			<point x="233" y="290" type="curve" smooth="yes"/>
			<point x="233" y="359" type="line" smooth="yes"/>
			<point x="233" y="462"/>
			<point x="233" y="566"/>
			<point x="236" y="669" type="curve"/>
			<point x="135" y="669" type="line"/>
			<point x="138" y="568"/>
			<point x="138" y="464"/>
		</contour>
		<contour>
			<point x="491" y="188" type="line"/>
			<point x="451" y="0" type="line"/>
			<point x="508" y="50" type="line"/>
			<point x="185" y="50" type="line"/>
			<point x="185" y="0" type="line"/>
			<point x="542" y="0" type="line"/>
			<point x="552" y="188" type="line"/>
		</contour>
		<contour>
			<point name="aboveUC" x="193" y="691" type="move"/>
		</contour>
		<contour>
			<point name="belowLC" x="326" y="-22" type="move"/>
		</contour>
	</outline>
</glyph>
<glyph name="N" format="1">
	<unicode hex="004E"/>
	<advance width="735"/>
	<outline>
		<contour>
			<point x="39" y="0" type="line"/>
			<point x="281" y="0" type="line"/>
			<point x="281" y="41" type="line"/>
			<point x="165" y="56" type="line"/>
			<point x="144" y="56" type="line"/>
			<point x="39" y="41" type="line"/>
		</contour>
		<contour>
			<point x="575" y="-7" type="line"/>
			<point x="610" y="-7" type="line"/>
			<point x="610" y="103" type="line"/>
			<point x="198" y="669" type="line"/>
			<point x="44" y="669" type="line"/>
			<point x="44" y="628" type="line"/>
			<point x="163" y="614" type="line"/>
			<point x="102" y="638" type="line"/>
		</contour>
		<contour>
			<point x="124" y="0" type="line"/>
			<point x="175" y="0" type="line"/>
			<point x="175" y="628" type="line"/>
			<point x="124" y="669" type="line"/>
		</contour>
		<contour>
			<point x="454" y="628" type="line"/>
			<point x="575" y="613" type="line"/>
			<point x="595" y="613" type="line"/>
			<point x="695" y="628" type="line"/>
			<point x="695" y="669" type="line"/>
			<point x="454" y="669" type="line"/>
		</contour>
		<contour>
			<point x="559" y="44" type="line"/>
			<point x="610" y="-7" type="line"/>
			<point x="610" y="669" type="line"/>
			<point x="559" y="669" type="line"/>
		</contour>
		<contour>
			<point name="aboveUC" x="363" y="691" type="move"/>
		</contour>
		<contour>
			<point name="belowLC" x="376" y="-22" type="move"/>
		</contour>
	</outline>
</glyph>
<glyph name="O" format="2">
	<unicode hex="004F"/>
	<advance width="707"/>
	<outline>
		<contour>
			<point x="354" y="-15" type="curve" smooth="yes"/>
			<point x="509" y="-15"/>
			<point x="660" y="115"/>
			<point x="660" y="335" type="curve" smooth="yes"/>
			<point x="660" y="563"/>
			<point x="508" y="684"/>
			<point x="354" y="684" type="curve" smooth="yes"/>
			<point x="199" y="684"/>
			<point x="47" y="554"/>
			<point x="47" y="335" type="curve" smooth="yes"/>
			<point x="47" y="106"/>
			<point x="198" y="-15"/>
		</contour>
		<contour>
			<point x="354" y="35" type="curve" smooth="yes"/>
			<point x="215" y="35"/>
			<point x="156" y="184"/>
			<point x="156" y="335" type="curve" smooth="yes"/>
			<point x="156" y="485"/>
			<point x="215" y="634"/>
			<point x="354" y="634" type="curve" smooth="yes"/>
			<point x="493" y="634"/>
			<point x="550" y="485"/>
			<point x="550" y="335" type="curve" smooth="yes"/>
			<point x="550" y="184"/>
			<point x="493" y="35"/>
		</contour>
	</outline>
	<anchor name="aboveUC" x="353" y="691"/>
	<anchor name="belowLC" x="353" y="-22"/>
	<anchor name="ogonek" x="444" y="0"/>
	<anchor name="hornLC" x="504" y="658"/>
</glyph>
<glyph name="R" format="2">
	<unicode hex="0052"/>
	<advance width="651"/>
	<outline>
		<contour>
			<point x="44" y="0" type="line"/>
			<point x="327" y="0" type="line"/>
			<point x="327" y="41" type="line"/>
			<point x="196" y="56" type="line"/>
			<point x="175" y="56" type="line"/>
			<point x="44" y="41" type="line"/>
		</contour>
		<contour>
			<point x="135" y="0" type="curve"/>
			<point x="236" y="0" type="line"/>
			<point x="233" y="103"/>
			<point x="233" y="207"/>
			<point x="233" y="320" type="curve" smooth="yes"/>
			<point x="233" y="350" type="line" smooth="yes"/>
			<point x="233" y="467"/>
			<point x="233" y="565"/>
			<point x="236" y="669" type="curve"/>
			<point x="135" y="669" type="line"/>
			<point x="138" y="566"/>
			<point x="138" y="462"/>
			<point x="138" y="359" type="curve" smooth="yes"/>
			<point x="138" y="310" type="line" smooth="yes"/>
			<point x="138" y="205"/>
			<point x="138" y="101"/>
		</contour>
		<contour>
			<point x="562" y="-10" type="curve" smooth="yes"/>
			<point x="593" y="-10"/>
			<point x="617" y="-6"/>
			<point x="637" y="0" type="curve"/>
			<point x="637" y="41" type="line"/>
			<point x="531" y="53" type="line"/>
			<point x="565" y="32" type="line"/>
			<point x="517" y="198" type="line" smooth="yes"/>
			<point x="491" y="289"/>
			<point x="447" y="323"/>
			<point x="370" y="329" type="curve"/>
			<point x="367" y="321" type="line"/>
			<point x="501" y="332"/>
			<point x="567" y="409"/>
			<point x="567" y="494" type="curve" smooth="yes"/>
			<point x="567" y="604"/>
			<point x="477" y="669"/>
			<point x="324" y="669" type="curve" smooth="yes"/>
			<point x="185" y="669" type="line"/>
			<point x="185" y="623" type="line"/>
			<point x="321" y="623" type="line" smooth="yes"/>
			<point x="424" y="623"/>
			<point x="468" y="577"/>
			<point x="468" y="493" type="curve" smooth="yes"/>
			<point x="468" y="413"/>
			<point x="418" y="355"/>
			<point x="310" y="355" type="curve" smooth="yes"/>
			<point x="186" y="355" type="line"/>
			<point x="186" y="310" type="line"/>
			<point x="282" y="310" type="line" smooth="yes"/>
			<point x="363" y="310"/>
			<point x="400" y="295"/>
			<point x="419" y="214" type="curve" smooth="yes"/>
			<point x="459" y="54" type="line" smooth="yes"/>
			<point x="471" y="6"/>
			<point x="499" y="-10"/>
		</contour>
		<contour>
			<point x="44" y="628" type="line"/>
			<point x="175" y="613" type="line"/>
			<point x="185" y="613" type="line"/>
			<point x="185" y="669" type="line"/>
			<point x="44" y="669" type="line"/>
		</contour>
	</outline>
	<anchor name="aboveUC" x="307" y="691"/>
	<anchor name="belowLC" x="356" y="-22"/>
</glyph>
<glyph name="S" format="2">
	<unicode hex="0053"/>
	<advance width="512"/>
	<outline>
		<contour>
			<point x="235" y="-15" type="curve" smooth="yes"/>
			<point x="374" y="-15"/>
			<point x="472" y="57"/>
			<point x="472" y="175" type="curve" smooth="yes"/>
			<point x="472" y="270"/>
			<point x="421" y="328"/>
			<point x="290" y="379" type="curve" smooth="yes"/>
			<point x="250" y="394" type="line" smooth="yes"/>
			<point x="178" y="422"/>
			<point x="137" y="459"/>
			<point x="137" y="521" type="curve" smooth="yes"/>
			<point x="137" y="595"/>
			<point x="196" y="634"/>
			<point x="272" y="634" type="curve" smooth="yes"/>
			<point x="325" y="634"/>
			<point x="362" y="617"/>
			<point x="412" y="569" type="curve"/>
			<point x="412" y="619" type="line"/>
			<point x="347" y="652" type="line"/>
			<point x="375" y="501" type="line"/>
			<point x="436" y="501" type="line"/>
			<point x="442" y="632" type="line"/>
			<point x="399" y="664"/>
			<point x="345" y="684"/>
			<point x="278" y="684" type="curve" smooth="yes"/>
			<point x="150" y="684"/>
			<point x="53" y="614"/>
			<point x="53" y="499" type="curve" smooth="yes"/>
			<point x="53" y="397"/>
			<point x="122" y="338"/>
			<point x="225" y="298" type="curve" smooth="yes"/>
			<point x="264" y="282" type="line" smooth="yes"/>
			<point x="349" y="249"/>
			<point x="387" y="220"/>
			<point x="387" y="156" type="curve" smooth="yes"/>
			<point x="387" y="79"/>
			<point x="326" y="35"/>
			<point x="232" y="35" type="curve" smooth="yes"/>
			<point x="164" y="35"/>
			<point x="130" y="55"/>
			<point x="68" y="100" type="curve"/>
			<point x="68" y="52" type="line"/>
			<point x="134" y="24" type="line"/>
			<point x="108" y="178" type="line"/>
			<point x="46" y="178" type="line"/>
			<point x="40" y="38" type="line"/>
			<point x="86" y="8"/>
			<point x="160" y="-15"/>
		</contour>
	</outline>
	<anchor name="aboveUC" x="258" y="691"/>
	<anchor name="belowLC" x="245" y="-22"/>
	<anchor name="baseLC" x="243" y="0"/>
</glyph>
<glyph name="U" format="2">
	<unicode hex="0055"/>
	<advance width="727"/>
	<outline>
		<contour>
			<point x="367" y="-15" type="curve" smooth="yes"/>
			<point x="504" y="-15"/>
			<point x="606" y="63"/>
			<point x="606" y="274" type="curve" smooth="yes"/>
			<point x="606" y="669" type="line"/>
			<point x="555" y="669" type="line"/>
			<point x="555" y="298" type="line" smooth="yes"/>
			<point x="555" y="121"/>
			<point x="497" y="56"/>
			<point x="384" y="56" type="curve" smooth="yes"/>
			<point x="282" y="56"/>
			<point x="218" y="110"/>
			<point x="218" y="281" type="curve" smooth="yes"/>
			<point x="218" y="360" type="line" smooth="yes"/>
			<point x="218" y="465"/>
			<point x="218" y="568"/>
			<point x="221" y="669" type="curve"/>
			<point x="121" y="669" type="line"/>
			<point x="124" y="566"/>
			<point x="124" y="463"/>
			<point x="124" y="360" type="curve" smooth="yes"/>
			<point x="124" y="252" type="line" smooth="yes"/>
			<point x="124" y="65"/>
			<point x="222" y="-15"/>
		</contour>
		<contour>
			<point x="39" y="628" type="line"/>
			<point x="170" y="613" type="line"/>
			<point x="191" y="613" type="line"/>
			<point x="322" y="628" type="line"/>
			<point x="322" y="669" type="line"/>
			<point x="39" y="669" type="line"/>
		</contour>
		<contour>
			<point x="453" y="628" type="line"/>
			<point x="563" y="614" type="line"/>
			<point x="583" y="614" type="line"/>
			<point x="693" y="628" type="line"/>
			<point x="693" y="669" type="line"/>
			<point x="453" y="669" type="line"/>
		</contour>
	</outline>
	<anchor name="aboveUC" x="381" y="691"/>
	<anchor name="belowLC" x="374" y="-22"/>
	<anchor name="ogonek" x="452" y="0"/>
	<anchor name="hornLC" x="584" y="679"/>
</glyph>
<glyph name="V" format="2">
	<unicode hex="0056"/>
	<advance width="674"/>
	<outline>
		<contour>
			<point x="323" y="-7" type="line"/>
			<point x="367" y="-7" type="line"/>
			<point x="596" y="669" type="line"/>
			<point x="541" y="669" type="line"/>
			<point x="350" y="107" type="line"/>
			<point x="370" y="107" type="line"/>
			<point x="173" y="669" type="line"/>
			<point x="72" y="669" type="line"/>
		</contour>
		<contour>
			<point x="15" y="628" type="line"/>
			<point x="145" y="613" type="line"/>
			<point x="166" y="613" type="line"/>
			<point x="288" y="624" type="line"/>
			<point x="288" y="669" type="line"/>
			<point x="15" y="669" type="line"/>
		</contour>
		<contour>
			<point x="434" y="624" type="line"/>
			<point x="535" y="613" type="line"/>
			<point x="555" y="613" type="line"/>
			<point x="665" y="628" type="line"/>
			<point x="665" y="669" type="line"/>
			<point x="434" y="669" type="line"/>
		</contour>
	</outline>
	<anchor name="aboveUC" x="349" y="691"/>
	<anchor name="belowLC" x="346" y="-22"/>
</glyph>
<glyph name="W" format="1">
	<unicode hex="0057"/>
	<advance width="962"/>
	<outline>
		<contour>
			<point x="850" y="613" type="line"/>
			<point x="953" y="628" type="line"/>
			<point x="953" y="669" type="line"/>
			<point x="726" y="669" type="line"/>
			<point x="726" y="628" type="line"/>
			<point x="830" y="613" type="line"/>
		</contour>
		<contour>
			<point x="520" y="613" type="line"/>
			<point x="642" y="628" type="line"/>
			<point x="642" y="669" type="line"/>
			<point x="370" y="669" type="line"/>
			<point x="370" y="628" type="line"/>
			<point x="498" y="613" type="line"/>
		</contour>
		<contour>
			<point x="166" y="613" type="line"/>
			<point x="287" y="628" type="line"/>
			<point x="287" y="669" type="line"/>
			<point x="15" y="669" type="line"/>
			<point x="15" y="628" type="line"/>
			<point x="145" y="613" type="line"/>
		</contour>
		<contour>
			<point x="657" y="-7" type="line"/>
			<point x="700" y="-7" type="line"/>
			<point x="883" y="669" type="line"/>
			<point x="832" y="669" type="line"/>
			<point x="690" y="153" type="line"/>
			<point x="524" y="669" type="line"/>
			<point x="488" y="669" type="line"/>
			<point x="318" y="157" type="line"/>
			<point x="181" y="669" type="line"/>
			<point x="83" y="669" type="line"/>
			<point x="278" y="-7" type="line"/>
			<point x="321" y="-7" type="line"/>
			<point x="484" y="512" type="line"/>
		</contour>
		<contour>
			<point name="aboveUC" x="501" y="691" type="move"/>
		</contour>
		<contour>
			<point name="belowLC" x="499" y="-22" type="move"/>
		</contour>
	</outline>
</glyph>
<glyph name="X" format="2">
	<unicode hex="0058"/>
	<advance width="648"/>
	<outline>
		<contour>
			<point x="10" y="0" type="line"/>
			<point x="239" y="0" type="line"/>
			<point x="239" y="41" type="line"/>
			<point x="139" y="55" type="line"/>
			<point x="119" y="55" type="line"/>
			<point x="10" y="41" type="line"/>
		</contour>
		<contour>
			<point x="70" y="0" type="line"/>
			<point x="128" y="0" type="line"/>
			<point x="336" y="328" type="line"/>
			<point x="303" y="354" type="line"/>
		</contour>
		<contour>
			<point x="356" y="0" type="line"/>
			<point x="639" y="0" type="line"/>
			<point x="639" y="41" type="line"/>
			<point x="508" y="56" type="line"/>
			<point x="486" y="56" type="line"/>
			<point x="356" y="41" type="line"/>
		</contour>
		<contour>
			<point x="335" y="317" type="line"/>
			<point x="563" y="669" type="line"/>
			<point x="506" y="669" type="line"/>
			<point x="302" y="343" type="line"/>
		</contour>
		<contour>
			<point x="479" y="0" type="line"/>
			<point x="584" y="0" type="line"/>
			<point x="181" y="669" type="line"/>
			<point x="76" y="669" type="line"/>
		</contour>
		<contour>
			<point x="19" y="628" type="line"/>
			<point x="148" y="613" type="line"/>
			<point x="170" y="613" type="line"/>
			<point x="300" y="628" type="line"/>
			<point x="300" y="669" type="line"/>
			<point x="19" y="669" type="line"/>
		</contour>
		<contour>
			<point x="388" y="628" type="line"/>
			<point x="488" y="614" type="line"/>
			<point x="508" y="614" type="line"/>
			<point x="617" y="628" type="line"/>
			<point x="617" y="669" type="line"/>
			<point x="388" y="669" type="line"/>
		</contour>
	</outline>
	<anchor name="aboveUC" x="324" y="691"/>
	<anchor name="belowLC" x="312" y="-22"/>
</glyph>
<glyph name="Y" format="1">
	<unicode hex="0059"/>
	<advance width="633"/>
	<outline>
		<contour>
			<point x="307" y="56" type="line"/>
			<point x="167" y="41" type="line"/>
			<point x="167" y="0" type="line"/>
			<point x="469" y="0" type="line"/>
			<point x="469" y="41" type="line"/>
			<point x="328" y="56" type="line"/>
		</contour>
		<contour>
			<point x="146" y="613" type="line"/>
			<point x="167" y="613" type="line"/>
			<point x="297" y="628" type="line"/>
			<point x="297" y="669" type="line"/>
			<point x="15" y="669" type="line"/>
			<point x="15" y="628" type="line"/>
		</contour>
		<contour>
			<point x="524" y="613" type="line"/>
			<point x="623" y="628" type="line"/>
			<point x="623" y="669" type="line"/>
			<point x="394" y="669" type="line"/>
			<point x="394" y="628" type="line"/>
			<point x="504" y="613" type="line"/>
		</contour>
		<contour>
			<point x="268" y="0" type="curve"/>
			<point x="368" y="0" type="line"/>
			<point x="365" y="89"/>
			<point x="365" y="184"/>
			<point x="365" y="301" type="curve"/>
			<point x="271" y="301" type="line"/>
			<point x="271" y="183"/>
			<point x="271" y="87"/>
		</contour>
		<contour>
			<point x="346" y="224" type="line"/>
			<point x="561" y="669" type="line"/>
			<point x="509" y="669" type="line"/>
			<point x="324" y="278" type="line"/>
			<point x="358" y="278" type="line"/>
			<point x="178" y="669" type="line"/>
			<point x="69" y="669" type="line"/>
			<point x="288" y="224" type="line"/>
		</contour>
		<contour>
			<point name="aboveUC" x="336" y="691" type="move"/>
		</contour>
		<contour>
			<point name="belowLC" x="316" y="-22" type="move"/>
		</contour>
	</outline>
</glyph>
<glyph name="Z" format="2">
	<unicode hex="005A"/>
	<advance width="551"/>
	<outline>
		<contour>
			<point x="91" y="491" type="line"/>
			<point x="118" y="619" type="line"/>
			<point x="399" y="619" type="line"/>
			<point x="20" y="36" type="line"/>
			<point x="20" y="0" type="line"/>
			<point x="523" y="0" type="line"/>
			<point x="531" y="178" type="line"/>
			<point x="470" y="178" type="line"/>
			<point x="443" y="50" type="line"/>
			<point x="132" y="50" type="line"/>
			<point x="509" y="634" type="line"/>
			<point x="509" y="669" type="line"/>
			<point x="38" y="669" type="line"/>
			<point x="30" y="491" type="line"/>
		</contour>
	</outline>
	<anchor name="aboveUC" x="284" y="691"/>
	<anchor name="belowLC" x="283" y="-22"/>
</glyph>
<glyph name="bracketleft" format="2">
	<unicode hex="005B"/>
	<advance width="320"/>
	<outline>
		<contour>
			<point x="100" y="-159" type="curve"/>
			<point x="179" y="-159" type="line"/>
			<point x="176" y="-54"/>
			<point x="176" y="53"/>
			<point x="176" y="158" type="curve" smooth="yes"/>
			<point x="176" y="398" type="line" smooth="yes"/>
			<point x="176" y="505"/>
			<point x="176" y="612"/>
			<point x="179" y="715" type="curve"/>
			<point x="100" y="715" type="line"/>
			<point x="103" y="610"/>
			<point x="103" y="503"/>
			<point x="103" y="398" type="curve" smooth="yes"/>
			<point x="103" y="158" type="line" smooth="yes"/>
			<point x="103" y="51"/>
			<point x="103" y="-56"/>
		</contour>
		<contour>
			<point x="139" y="-159" type="line"/>
			<point x="291" y="-159" type="line"/>
			<point x="291" y="-118" type="line"/>
			<point x="159" y="-103" type="line"/>
			<point x="139" y="-103" type="line"/>
		</contour>
		<contour>
			<point x="139" y="659" type="line"/>
			<point x="159" y="659" type="line"/>
			<point x="291" y="674" type="line"/>
			<point x="291" y="715" type="line"/>
			<point x="139" y="715" type="line"/>
		</contour>
	</outline>
</glyph>
<glyph name="asciicircum" format="2">
	<unicode hex="005E"/>
	<advance width="531"/>
	<outline>
		<contour>
			<point x="88" y="242" type="line"/>
			<point x="133" y="208" type="line"/>
			<point x="284" y="448" type="line"/>
			<point x="250" y="448" type="line"/>
			<point x="401" y="208" type="line"/>
			<point x="446" y="242" type="line"/>
			<point x="299" y="481" type="line"/>
			<point x="235" y="481" type="line"/>
		</contour>
	</outline>
</glyph>
<glyph name="grave" format="1">
	<unicode hex="0060"/>
	<unicode hex="02CB"/>
	<advance width="400"/>
	<outline>
		<component base="gravecmb" xOffset="201"/>
		<contour>
			<point name="_aboveLC" x="200" y="507" type="move"/>
		</contour>
	</outline>
</glyph>
<glyph name="a" format="2">
	<unicode hex="0061"/>
	<advance width="509"/>
	<outline>
		<contour>
			<point x="179" y="-13" type="curve" smooth="yes"/>
			<point x="241" y="-13"/>
			<point x="274" y="15"/>
			<point x="334" y="75" type="curve"/>
			<point x="364" y="75" type="line"/>
			<point x="350" y="125" type="line"/>
			<point x="268" y="65"/>
			<point x="248" y="53"/>
			<point x="214" y="53" type="curve" smooth="yes"/>
			<point x="168" y="53"/>
			<point x="134" y="74"/>
			<point x="134" y="127" type="curve" smooth="yes"/>
			<point x="134" y="157"/>
			<point x="145" y="195"/>
			<point x="232" y="229" type="curve" smooth="yes"/>
			<point x="262" y="241"/>
			<point x="321" y="259"/>
			<point x="366" y="269" type="curve"/>
			<point x="366" y="305" type="line"/>
			<point x="316" y="296"/>
			<point x="253" y="278"/>
			<point x="211" y="263" type="curve" smooth="yes"/>
			<point x="76" y="214"/>
			<point x="45" y="169"/>
			<point x="45" y="112" type="curve" smooth="yes"/>
			<point x="45" y="29"/>
			<point x="106" y="-13"/>
		</contour>
		<contour>
			<point x="416" y="-10" type="curve" smooth="yes"/>
			<point x="451" y="-10"/>
			<point x="479" y="3"/>
			<point x="503" y="42" type="curve"/>
			<point x="483" y="64" type="line"/>
			<point x="472" y="51"/>
			<point x="461" y="42"/>
			<point x="444" y="42" type="curve" smooth="yes"/>
			<point x="422" y="42"/>
			<point x="408" y="58"/>
			<point x="408" y="101" type="curve" smooth="yes"/>
			<point x="408" y="314" type="line" smooth="yes"/>
			<point x="408" y="440"/>
			<point x="358" y="488"/>
			<point x="253" y="488" type="curve" smooth="yes"/>
			<point x="151" y="488"/>
			<point x="77" y="440"/>
			<point x="58" y="364" type="curve"/>
			<point x="61" y="338"/>
			<point x="77" y="323"/>
			<point x="105" y="323" type="curve" smooth="yes"/>
			<point x="132" y="323"/>
			<point x="148" y="340"/>
			<point x="157" y="371" type="curve" smooth="yes"/>
			<point x="182" y="456" type="line"/>
			<point x="140" y="424" type="line"/>
			<point x="178" y="439"/>
			<point x="207" y="442"/>
			<point x="230" y="442" type="curve" smooth="yes"/>
			<point x="296" y="442"/>
			<point x="324" y="418"/>
			<point x="324" y="321" type="curve" smooth="yes"/>
			<point x="324" y="91" type="line"/>
			<point x="324" y="30"/>
			<point x="360" y="-10"/>
		</contour>
	</outline>
	<anchor name="aboveLC" x="245" y="507"/>
	<anchor name="belowLC" x="244" y="-22"/>
	<anchor name="ogonek" x="447" y="0"/>
</glyph>
<glyph name="b" format="1">
	<unicode hex="0062"/>
	<advance width="577"/>
	<outline>
		<contour>
			<point x="30" y="0" type="line"/>
			<point x="180" y="-10" type="line"/>
			<point x="191" y="79" type="line"/>
			<point x="191" y="386" type="line"/>
			<point x="188" y="399" type="line"/>
			<point x="188" y="589" type="line"/>
			<point x="192" y="731" type="line"/>
			<point x="178" y="739" type="line"/>
			<point x="25" y="694" type="line"/>
			<point x="25" y="659" type="line"/>
			<point x="107" y="649" type="line"/>
			<point x="107" y="210" type="line" smooth="yes"/>
			<point x="107" y="148"/>
			<point x="106" y="45"/>
			<point x="104" y="0" type="curve"/>
			<point x="137" y="56" type="line"/>
			<point x="30" y="36" type="line"/>
		</contour>
		<contour>
			<point x="310" y="44" type="curve" smooth="yes"/>
			<point x="263" y="44"/>
			<point x="210" y="70"/>
			<point x="159" y="135" type="curve"/>
			<point x="150" y="119" type="line"/>
			<point x="202" y="15"/>
			<point x="264" y="-13"/>
			<point x="326" y="-13" type="curve" smooth="yes"/>
			<point x="443" y="-13"/>
			<point x="532" y="88"/>
			<point x="532" y="242" type="curve" smooth="yes"/>
			<point x="532" y="397"/>
			<point x="448" y="488"/>
			<point x="342" y="488" type="curve" smooth="yes"/>
			<point x="272" y="488"/>
			<point x="207" y="449"/>
			<point x="149" y="360" type="curve"/>
			<point x="158" y="342" type="line"/>
			<point x="229" y="413"/>
			<point x="278" y="431"/>
			<point x="315" y="431" type="curve" smooth="yes"/>
			<point x="390" y="431"/>
			<point x="442" y="362"/>
			<point x="442" y="234" type="curve" smooth="yes"/>
			<point x="442" y="105"/>
			<point x="381" y="44"/>
		</contour>
		<contour>
			<point name="aboveLC" x="132" y="738" type="move"/>
		</contour>
		<contour>
			<point name="belowLC" x="326" y="-22" type="move"/>
		</contour>
	</outline>
</glyph>
<glyph name="c" format="2">
	<unicode hex="0063"/>
	<advance width="488"/>
	<outline>
		<contour>
			<point x="267" y="-13" type="curve" smooth="yes"/>
			<point x="361" y="-13"/>
			<point x="425" y="32"/>
			<point x="453" y="115" type="curve"/>
			<point x="428" y="128" type="line"/>
			<point x="397" y="79"/>
			<point x="347" y="52"/>
			<point x="290" y="52" type="curve" smooth="yes"/>
			<point x="196" y="52"/>
			<point x="130" y="120"/>
			<point x="130" y="246" type="curve" smooth="yes"/>
			<point x="130" y="374"/>
			<point x="192" y="442"/>
			<point x="277" y="442" type="curve" smooth="yes"/>
			<point x="306" y="442"/>
			<point x="339" y="435"/>
			<point x="373" y="417" type="curve"/>
			<point x="325" y="455" type="line"/>
			<point x="349" y="368" type="line" smooth="yes"/>
			<point x="356" y="340"/>
			<point x="370" y="320"/>
			<point x="404" y="320" type="curve" smooth="yes"/>
			<point x="429" y="320"/>
			<point x="445" y="332"/>
			<point x="450" y="358" type="curve"/>
			<point x="437" y="432"/>
			<point x="363" y="488"/>
			<point x="273" y="488" type="curve" smooth="yes"/>
			<point x="153" y="488"/>
			<point x="42" y="394"/>
			<point x="42" y="236" type="curve" smooth="yes"/>
			<point x="42" y="82"/>
			<point x="130" y="-13"/>
		</contour>
	</outline>
	<anchor name="aboveLC" x="274" y="507"/>
	<anchor name="belowLC" x="275" y="-22"/>
	<anchor name="baseLC" x="275" y="0"/>
</glyph>
<glyph name="d" format="1">
	<unicode hex="0064"/>
	<advance width="567"/>
	<outline>
		<contour>
			<point x="135" y="235" type="curve" smooth="yes"/>
			<point x="135" y="371"/>
			<point x="199" y="431"/>
			<point x="273" y="431" type="curve" smooth="yes"/>
			<point x="311" y="431"/>
			<point x="350" y="415"/>
			<point x="407" y="359" type="curve"/>
			<point x="417" y="385" type="line"/>
			<point x="366" y="463"/>
			<point x="317" y="488"/>
			<point x="258" y="488" type="curve" smooth="yes"/>
			<point x="136" y="488"/>
			<point x="45" y="386"/>
			<point x="45" y="233" type="curve" smooth="yes"/>
			<point x="45" y="87"/>
			<point x="127" y="-13"/>
			<point x="249" y="-13" type="curve" smooth="yes"/>
			<point x="327" y="-13"/>
			<point x="375" y="28"/>
			<point x="414" y="99" type="curve"/>
			<point x="405" y="125" type="line"/>
			<point x="359" y="66"/>
			<point x="325" y="44"/>
			<point x="274" y="44" type="curve" smooth="yes"/>
			<point x="194" y="44"/>
			<point x="135" y="104"/>
		</contour>
		<contour>
			<point x="451" y="52" type="line"/>
			<point x="470" y="0" type="line"/>
			<point x="470" y="589" type="line"/>
			<point x="474" y="731" type="line"/>
			<point x="460" y="739" type="line"/>
			<point x="304" y="694" type="line"/>
			<point x="304" y="659" type="line"/>
			<point x="389" y="649" type="line"/>
			<point x="389" y="399" type="line"/>
			<point x="386" y="386" type="line"/>
			<point x="386" y="91" type="line"/>
			<point x="396" y="-10" type="line"/>
			<point x="551" y="0" type="line"/>
			<point x="551" y="36" type="line"/>
		</contour>
		<contour>
			<point name="aboveLC" x="398" y="738" type="move"/>
		</contour>
		<contour>
			<point name="belowLC" x="287" y="-22" type="move"/>
		</contour>
	</outline>
</glyph>
<glyph name="e" format="2">
	<unicode hex="0065"/>
	<advance width="510"/>
	<outline>
		<contour>
			<point x="268" y="-13" type="curve" smooth="yes"/>
			<point x="359" y="-13"/>
			<point x="423" y="32"/>
			<point x="460" y="103" type="curve"/>
			<point x="436" y="122" type="line"/>
			<point x="400" y="80"/>
			<point x="361" y="52"/>
			<point x="297" y="52" type="curve" smooth="yes"/>
			<point x="199" y="52"/>
			<point x="135" y="119"/>
			<point x="135" y="246" type="curve" smooth="yes"/>
			<point x="135" y="389"/>
			<point x="207" y="442"/>
			<point x="269" y="442" type="curve" smooth="yes"/>
			<point x="331" y="442"/>
			<point x="378" y="391"/>
			<point x="378" y="334" type="curve" smooth="yes"/>
			<point x="378" y="305"/>
			<point x="367" y="282"/>
			<point x="319" y="282" type="curve" smooth="yes"/>
			<point x="84" y="282" type="line"/>
			<point x="84" y="240" type="line"/>
			<point x="454" y="240" type="line"/>
			<point x="458" y="253"/>
			<point x="461" y="273"/>
			<point x="461" y="296" type="curve" smooth="yes"/>
			<point x="461" y="417"/>
			<point x="379" y="488"/>
			<point x="275" y="488" type="curve" smooth="yes"/>
			<point x="150" y="488"/>
			<point x="45" y="386"/>
			<point x="45" y="233" type="curve" smooth="yes"/>
			<point x="45" y="80"/>
			<point x="133" y="-13"/>
		</contour>
	</outline>
	<anchor name="aboveLC" x="276" y="507"/>
	<anchor name="belowLC" x="284" y="-22"/>
	<anchor name="ogonek" x="344" y="0"/>
</glyph>
<glyph name="i" format="2">
	<unicode hex="0069"/>
	<advance width="298"/>
	<outline>
		<contour>
			<point x="35" y="0" type="line"/>
			<point x="267" y="0" type="line"/>
			<point x="267" y="36" type="line"/>
			<point x="167" y="56" type="line"/>
			<point x="144" y="56" type="line"/>
			<point x="35" y="36" type="line"/>
		</contour>
		<contour>
			<point x="109" y="0" type="curve"/>
			<point x="198" y="0" type="line"/>
			<point x="196" y="45"/>
			<point x="195" y="148"/>
			<point x="195" y="210" type="curve" smooth="yes"/>
			<point x="195" y="342" type="line"/>
			<point x="198" y="478" type="line"/>
			<point x="183" y="488" type="line"/>
			<point x="29" y="427" type="line"/>
			<point x="29" y="392" type="line"/>
			<point x="109" y="383" type="line"/>
			<point x="111" y="343"/>
			<point x="112" y="312"/>
			<point x="112" y="257" type="curve" smooth="yes"/>
			<point x="112" y="210" type="line" smooth="yes"/>
			<point x="112" y="148"/>
			<point x="111" y="45"/>
		</contour>
		<contour>
			<point x="153" y="598" type="curve" smooth="yes"/>
			<point x="190" y="598"/>
			<point x="220" y="625"/>
			<point x="220" y="662" type="curve" smooth="yes"/>
			<point x="220" y="701"/>
			<point x="190" y="726"/>
			<point x="153" y="726" type="curve" smooth="yes"/>
			<point x="115" y="726"/>
			<point x="86" y="701"/>
			<point x="86" y="662" type="curve" smooth="yes"/>
			<point x="86" y="625"/>
			<point x="115" y="598"/>
		</contour>
	</outline>
	<anchor name="aboveLC" x="153" y="707"/>
	<anchor name="belowLC" x="156" y="-22"/>
	<anchor name="ogonek" x="187" y="0"/>
</glyph>
<glyph name="j" format="2">
	<unicode hex="006A"/>
	<advance width="277"/>
	<outline>
		<contour>
			<point x="6" y="-249" type="curve" smooth="yes"/>
			<point x="65" y="-249"/>
			<point x="95" y="-230"/>
			<point x="130" y="-195" type="curve" smooth="yes"/>
			<point x="184" y="-141"/>
			<point x="192" y="-63"/>
			<point x="192" y="100" type="curve" smooth="yes"/>
			<point x="192" y="342" type="line"/>
			<point x="195" y="478" type="line"/>
			<point x="180" y="488" type="line"/>
			<point x="29" y="427" type="line"/>
			<point x="29" y="392" type="line"/>
			<point x="108" y="383" type="line"/>
			<point x="110" y="343"/>
			<point x="111" y="312"/>
			<point x="111" y="257" type="curve" smooth="yes"/>
			<point x="111" y="102" type="line" smooth="yes"/>
			<point x="111" y="-48"/>
			<point x="106" y="-129"/>
			<point x="90" y="-171" type="curve" smooth="yes"/>
			<point x="76" y="-209"/>
			<point x="53" y="-215"/>
			<point x="24" y="-215" type="curve"/>
			<point x="27" y="-235" type="line"/>
			<point x="96" y="-215" type="line"/>
			<point x="51" y="-181" type="line" smooth="yes"/>
			<point x="25" y="-161"/>
			<point x="3" y="-151"/>
			<point x="-24" y="-151" type="curve" smooth="yes"/>
			<point x="-53" y="-151"/>
			<point x="-74" y="-164"/>
			<point x="-83" y="-192" type="curve"/>
			<point x="-82" y="-218"/>
			<point x="-54" y="-249"/>
		</contour>
		<contour>
			<point x="152" y="598" type="curve" smooth="yes"/>
			<point x="190" y="598"/>
			<point x="220" y="625"/>
			<point x="220" y="662" type="curve" smooth="yes"/>
			<point x="220" y="701"/>
			<point x="190" y="726"/>
			<point x="152" y="726" type="curve" smooth="yes"/>
			<point x="115" y="726"/>
			<point x="85" y="701"/>
			<point x="85" y="662" type="curve" smooth="yes"/>
			<point x="85" y="625"/>
			<point x="115" y="598"/>
		</contour>
	</outline>
	<anchor name="aboveLC" x="152" y="707"/>
	<anchor name="belowLC" x="54" y="-251"/>
</glyph>
<glyph name="k" format="2">
	<unicode hex="006B"/>
	<advance width="547"/>
	<outline>
		<contour>
			<point x="25" y="0" type="line"/>
			<point x="273" y="0" type="line"/>
			<point x="273" y="36" type="line"/>
			<point x="160" y="56" type="line"/>
			<point x="137" y="56" type="line"/>
			<point x="25" y="36" type="line"/>
		</contour>
		<contour>
			<point x="104" y="0" type="curve"/>
			<point x="194" y="0" type="line"/>
			<point x="192" y="68"/>
			<point x="191" y="141"/>
			<point x="191" y="210" type="curve" smooth="yes"/>
			<point x="191" y="589" type="line"/>
			<point x="195" y="731" type="line"/>
			<point x="181" y="739" type="line"/>
			<point x="25" y="694" type="line"/>
			<point x="25" y="659" type="line"/>
			<point x="107" y="649" type="line"/>
			<point x="107" y="210" type="line" smooth="yes"/>
			<point x="107" y="141"/>
			<point x="106" y="68"/>
		</contour>
		<contour>
			<point x="149" y="137" type="line"/>
			<point x="479" y="475" type="line"/>
			<point x="417" y="475" type="line"/>
			<point x="149" y="196" type="line"/>
		</contour>
		<contour>
			<point x="411" y="0" type="line"/>
			<point x="547" y="0" type="line"/>
			<point x="547" y="36" type="line"/>
			<point x="481" y="48" type="line"/>
			<point x="306" y="326" type="line"/>
			<point x="246" y="266" type="line"/>
		</contour>
		<contour>
			<point x="288" y="436" type="line"/>
			<point x="380" y="413" type="line"/>
			<point x="410" y="419" type="line"/>
			<point x="521" y="436" type="line"/>
			<point x="521" y="475" type="line"/>
			<point x="288" y="475" type="line"/>
		</contour>
	</outline>
	<anchor name="aboveLC" x="150" y="738"/>
	<anchor name="belowLC" x="307" y="-22"/>
</glyph>
<glyph name="p" format="1">
	<unicode hex="0070"/>
	<advance width="583"/>
	<outline>
		<contour>
			<point x="448" y="231" type="curve" smooth="yes"/>
			<point x="448" y="102"/>
			<point x="387" y="44"/>
			<point x="312" y="44" type="curve" smooth="yes"/>
			<point x="263" y="44"/>
			<point x="216" y="71"/>
			<point x="165" y="136" type="curve"/>
			<point x="156" y="120" type="line"/>
			<point x="208" y="16"/>
			<point x="270" y="-13"/>
			<point x="332" y="-13" type="curve" smooth="yes"/>
			<point x="449" y="-13"/>
			<point x="538" y="85"/>
			<point x="538" y="239" type="curve" smooth="yes"/>
			<point x="538" y="394"/>
			<point x="454" y="488"/>
			<point x="347" y="488" type="curve" smooth="yes"/>
			<point x="278" y="488"/>
			<point x="213" y="449"/>
			<point x="155" y="360" type="curve"/>
			<point x="164" y="342" type="line"/>
			<point x="235" y="411"/>
			<point x="285" y="431"/>
			<point x="323" y="431" type="curve" smooth="yes"/>
			<point x="396" y="431"/>
			<point x="448" y="359"/>
		</contour>
		<contour>
			<point x="171" y="-184" type="line"/>
			<point x="147" y="-184" type="line"/>
			<point x="35" y="-204" type="line"/>
			<point x="35" y="-239" type="line"/>
			<point x="292" y="-239" type="line"/>
			<point x="292" y="-204" type="line"/>
		</contour>
		<contour>
			<point x="117" y="-28" type="line" smooth="yes"/>
			<point x="117" y="-98"/>
			<point x="116" y="-168"/>
			<point x="114" y="-239" type="curve"/>
			<point x="202" y="-239" type="line"/>
			<point x="200" y="-168"/>
			<point x="199" y="-96"/>
			<point x="199" y="-27" type="curve" smooth="yes"/>
			<point x="199" y="72" type="line"/>
			<point x="202" y="78" type="line"/>
			<point x="202" y="390" type="line"/>
			<point x="198" y="393" type="line"/>
			<point x="190" y="478" type="line"/>
			<point x="175" y="488" type="line"/>
			<point x="35" y="427" type="line"/>
			<point x="35" y="392" type="line"/>
			<point x="114" y="383" type="line"/>
			<point x="116" y="343"/>
			<point x="117" y="313"/>
			<point x="117" y="258" type="curve" smooth="yes"/>
		</contour>
		<contour>
			<point name="aboveLC" x="304" y="507" type="move"/>
		</contour>
		<contour>
			<point name="belowLC" x="162" y="-251" type="move"/>
		</contour>
	</outline>
</glyph>
<glyph name="q" format="1">
	<unicode hex="0071"/>
	<advance width="557"/>
	<outline>
		<contour>
			<point x="135" y="234" type="curve" smooth="yes"/>
			<point x="135" y="370"/>
			<point x="199" y="431"/>
			<point x="273" y="431" type="curve" smooth="yes"/>
			<point x="311" y="431"/>
			<point x="351" y="415"/>
			<point x="408" y="359" type="curve"/>
			<point x="418" y="385" type="line"/>
			<point x="366" y="464"/>
			<point x="312" y="488"/>
			<point x="255" y="488" type="curve" smooth="yes"/>
			<point x="136" y="488"/>
			<point x="45" y="385"/>
			<point x="45" y="232" type="curve" smooth="yes"/>
			<point x="45" y="86"/>
			<point x="127" y="-13"/>
			<point x="249" y="-13" type="curve" smooth="yes"/>
			<point x="319" y="-13"/>
			<point x="370" y="21"/>
			<point x="414" y="99" type="curve"/>
			<point x="405" y="125" type="line"/>
			<point x="359" y="67"/>
			<point x="324" y="44"/>
			<point x="274" y="44" type="curve" smooth="yes"/>
			<point x="194" y="44"/>
			<point x="135" y="103"/>
		</contour>
		<contour>
			<point x="420" y="-184" type="line"/>
			<point x="299" y="-204" type="line"/>
			<point x="299" y="-239" type="line"/>
			<point x="556" y="-239" type="line"/>
			<point x="556" y="-204" type="line"/>
			<point x="444" y="-184" type="line"/>
		</contour>
		<contour>
			<point x="474" y="-27" type="curve" smooth="yes"/>
			<point x="474" y="343" type="line"/>
			<point x="477" y="478" type="line"/>
			<point x="461" y="488" type="line"/>
			<point x="390" y="416" type="line"/>
			<point x="390" y="86" type="line"/>
			<point x="393" y="72" type="line"/>
			<point x="393" y="-27" type="line" smooth="yes"/>
			<point x="393" y="-97"/>
			<point x="392" y="-169"/>
			<point x="390" y="-239" type="curve"/>
			<point x="477" y="-239" type="line"/>
			<point x="475" y="-169"/>
			<point x="474" y="-97"/>
		</contour>
		<contour>
			<point name="aboveLC" x="301" y="507" type="move"/>
		</contour>
		<contour>
			<point name="belowLC" x="428" y="-251" type="move"/>
		</contour>
	</outline>
</glyph>
<glyph name="v" format="1">
	<unicode hex="0076"/>
	<advance width="505"/>
	<outline>
		<contour>
			<point x="425" y="419" type="line"/>
			<point x="496" y="436" type="line"/>
			<point x="496" y="475" type="line"/>
			<point x="306" y="475" type="line"/>
			<point x="306" y="436" type="line"/>
			<point x="405" y="419" type="line"/>
		</contour>
		<contour>
			<point x="34" y="475" type="line"/>
			<point x="236" y="-6" type="line"/>
			<point x="279" y="-6" type="line"/>
			<point x="461" y="475" type="line"/>
			<point x="406" y="475" type="line"/>
			<point x="246" y="15" type="line"/>
			<point x="288" y="70" type="line"/>
			<point x="134" y="475" type="line"/>
		</contour>
		<contour>
			<point x="122" y="419" type="line"/>
			<point x="242" y="436" type="line"/>
			<point x="242" y="475" type="line"/>
			<point x="0" y="475" type="line"/>
			<point x="0" y="436" type="line"/>
			<point x="97" y="419" type="line"/>
		</contour>
		<contour>
			<point name="aboveLC" x="264" y="507" type="move"/>
		</contour>
		<contour>
			<point name="belowLC" x="254" y="-22" type="move"/>
		</contour>
	</outline>
</glyph>
<glyph name="w" format="2">
	<unicode hex="0077"/>
	<advance width="764"/>
	<outline>
		<contour>
			<point x="396" y="419" type="line"/>
			<point x="417" y="419" type="line"/>
			<point x="512" y="436" type="line"/>
			<point x="512" y="475" type="line"/>
			<point x="291" y="475" type="line"/>
			<point x="291" y="436" type="line"/>
		</contour>
		<contour>
			<point x="119" y="419" type="line"/>
			<point x="228" y="436" type="line"/>
			<point x="228" y="475" type="line"/>
			<point x="0" y="475" type="line"/>
			<point x="0" y="436" type="line"/>
			<point x="98" y="419" type="line"/>
		</contour>
		<contour>
			<point x="683" y="419" type="line"/>
			<point x="754" y="436" type="line"/>
			<point x="754" y="475" type="line"/>
			<point x="571" y="475" type="line"/>
			<point x="571" y="436" type="line"/>
			<point x="663" y="419" type="line"/>
		</contour>
		<contour>
			<point x="384" y="475" type="line"/>
			<point x="253" y="117" type="line"/>
			<point x="133" y="475" type="line"/>
			<point x="39" y="475" type="line"/>
			<point x="218" y="-6" type="line"/>
			<point x="255" y="-6" type="line"/>
			<point x="387" y="348" type="line"/>
			<point x="517" y="-6" type="line"/>
			<point x="554" y="-6" type="line"/>
			<point x="718" y="475" type="line"/>
			<point x="661" y="475" type="line"/>
			<point x="552" y="119" type="line"/>
			<point x="418" y="475" type="line"/>
		</contour>
	</outline>
	<anchor name="aboveLC" x="392" y="507"/>
	<anchor name="belowLC" x="388" y="-22"/>
</glyph>
<glyph name="y" format="1">
	<unicode hex="0079"/>
	<advance width="512"/>
	<outline>
		<contour>
			<point x="441" y="424" type="line"/>
			<point x="512" y="439" type="line"/>
			<point x="512" y="475" type="line"/>
			<point x="317" y="475" type="line"/>
			<point x="317" y="439" type="line"/>
			<point x="421" y="424" type="line"/>
		</contour>
		<contour>
			<point x="126" y="424" type="line"/>
			<point x="244" y="438" type="line"/>
			<point x="244" y="475" type="line"/>
			<point x="4" y="475" type="line"/>
			<point x="4" y="439" type="line"/>
			<point x="101" y="424" type="line"/>
		</contour>
		<contour>
			<point x="294" y="52" type="line"/>
			<point x="138" y="475" type="line"/>
			<point x="41" y="475" type="line"/>
			<point x="251" y="-53" type="line"/>
		</contour>
		<contour>
			<point x="92" y="-249" type="curve" smooth="yes"/>
			<point x="174" y="-249"/>
			<point x="230" y="-174"/>
			<point x="297" y="3" type="curve" smooth="yes"/>
			<point x="476" y="475" type="line"/>
			<point x="421" y="475" type="line"/>
			<point x="269" y="53" type="line"/>
			<point x="236" y="-38" type="line" smooth="yes"/>
			<point x="212" y="-108"/>
			<point x="171" y="-176"/>
			<point x="106" y="-209" type="curve"/>
			<point x="133" y="-231" type="line"/>
			<point x="172" y="-209" type="line"/>
			<point x="141" y="-177" type="line" smooth="yes"/>
			<point x="114" y="-149"/>
			<point x="93" y="-139"/>
			<point x="67" y="-139" type="curve" smooth="yes"/>
			<point x="36" y="-139"/>
			<point x="7" y="-154"/>
			<point x="0" y="-183" type="curve"/>
			<point x="0" y="-222"/>
			<point x="42" y="-249"/>
		</contour>
		<contour>
			<point name="aboveLC" x="271" y="507" type="move"/>
		</contour>
		<contour>
			<point name="belowLC" x="124" y="-254" type="move"/>
		</contour>
	</outline>
</glyph>
<glyph name="z" format="2">
	<unicode hex="007A"/>
	<advance width="456"/>
	<outline>
		<contour>
			<point x="29" y="0" type="line"/>
			<point x="421" y="0" type="line"/>
			<point x="431" y="163" type="line"/>
			<point x="379" y="163" type="line"/>
			<point x="342" y="13" type="line"/>
			<point x="379" y="42" type="line"/>
			<point x="101" y="42" type="line"/>
			<point x="113" y="18" type="line"/>
			<point x="416" y="439" type="line"/>
			<point x="416" y="475" type="line"/>
			<point x="43" y="475" type="line"/>
			<point x="35" y="325" type="line"/>
			<point x="87" y="321" type="line"/>
			<point x="121" y="461" type="line"/>
			<point x="84" y="432" type="line"/>
			<point x="345" y="432" type="line"/>
			<point x="333" y="456" type="line"/>
			<point x="29" y="35" type="line"/>
		</contour>
	</outline>
	<anchor name="aboveLC" x="239" y="507"/>
	<anchor name="belowLC" x="241" y="-22"/>
</glyph>
<glyph name="cent" format="2">
	<unicode hex="00A2"/>
	<advance width="500"/>
	<outline>
		<contour>
			<point x="289" y="-45" type="line"/>
			<point x="289" y="660" type="line"/>
			<point x="248" y="660" type="line"/>
			<point x="248" y="-45" type="line"/>
		</contour>
		<contour>
			<point x="277" y="523" type="curve" smooth="yes"/>
			<point x="306" y="523"/>
			<point x="341" y="516"/>
			<point x="375" y="498" type="curve"/>
			<point x="328" y="535" type="line"/>
			<point x="342" y="476" type="line" smooth="yes"/>
			<point x="355" y="422"/>
			<point x="374" y="400"/>
			<point x="406" y="400" type="curve" smooth="yes"/>
			<point x="432" y="400"/>
			<point x="448" y="413"/>
			<point x="453" y="438" type="curve"/>
			<point x="440" y="513"/>
			<point x="366" y="568"/>
			<point x="277" y="568" type="curve" smooth="yes"/>
			<point x="154" y="568"/>
			<point x="43" y="471"/>
			<point x="43" y="314" type="curve" smooth="yes"/>
			<point x="43" y="160"/>
			<point x="131" y="62"/>
			<point x="265" y="62" type="curve" smooth="yes"/>
			<point x="363" y="62"/>
			<point x="428" y="108"/>
			<point x="455" y="191" type="curve"/>
			<point x="431" y="204" type="line"/>
			<point x="399" y="154"/>
			<point x="342" y="126"/>
			<point x="282" y="126" type="curve" smooth="yes"/>
			<point x="192" y="126"/>
			<point x="130" y="197"/>
			<point x="130" y="323" type="curve" smooth="yes"/>
			<point x="130" y="451"/>
			<point x="192" y="523"/>
		</contour>
	</outline>
</glyph>
<glyph name="brokenbar" format="2">
	<unicode hex="00A6"/>
	<advance width="251"/>
	<outline>
		<contour>
			<point x="96" y="-250" type="line"/>
			<point x="155" y="-250" type="line"/>
			<point x="155" y="200" type="line"/>
			<point x="96" y="200" type="line"/>
		</contour>
		<contour>
			<point x="155" y="320" type="line"/>
			<point x="155" y="750" type="line"/>
			<point x="96" y="750" type="line"/>
			<point x="96" y="320" type="line"/>
		</contour>
	</outline>
</glyph>
<glyph name="section" format="2">
	<unicode hex="00A7"/>
	<advance width="491"/>
	<outline>
		<contour>
			<point x="263" y="684" type="curve" smooth="yes"/>
			<point x="145" y="684"/>
			<point x="90" y="611"/>
			<point x="90" y="542" type="curve" smooth="yes"/>
			<point x="90" y="473"/>
			<point x="132" y="415"/>
			<point x="249" y="362" type="curve" smooth="yes"/>
			<point x="323" y="329"/>
			<point x="375" y="305"/>
			<point x="375" y="249" type="curve" smooth="yes"/>
			<point x="375" y="211"/>
			<point x="351" y="166"/>
			<point x="313" y="146" type="curve"/>
			<point x="328" y="121" type="line"/>
			<point x="400" y="152"/>
			<point x="446" y="202"/>
			<point x="446" y="272" type="curve" smooth="yes"/>
			<point x="446" y="355"/>
			<point x="391" y="394"/>
			<point x="289" y="440" type="curve" smooth="yes"/>
			<point x="223" y="470"/>
			<point x="167" y="502"/>
			<point x="167" y="563" type="curve" smooth="yes"/>
			<point x="167" y="603"/>
			<point x="199" y="639"/>
			<point x="271" y="639" type="curve" smooth="yes"/>
			<point x="286" y="639"/>
			<point x="300" y="637"/>
			<point x="318" y="631" type="curve"/>
			<point x="282" y="652" type="line"/>
			<point x="311" y="593" type="line" smooth="yes"/>
			<point x="330" y="555"/>
			<point x="348" y="538"/>
			<point x="378" y="538" type="curve" smooth="yes"/>
			<point x="399" y="538"/>
			<point x="415" y="548"/>
			<point x="425" y="574" type="curve"/>
			<point x="424" y="633"/>
			<point x="355" y="684"/>
		</contour>
		<contour>
			<point x="226" y="-101" type="curve" smooth="yes"/>
			<point x="337" y="-101"/>
			<point x="400" y="-26"/>
			<point x="400" y="52" type="curve" smooth="yes"/>
			<point x="400" y="140"/>
			<point x="320" y="187"/>
			<point x="239" y="224" type="curve" smooth="yes"/>
			<point x="177" y="253"/>
			<point x="115" y="282"/>
			<point x="115" y="343" type="curve" smooth="yes"/>
			<point x="115" y="381"/>
			<point x="139" y="419"/>
			<point x="178" y="439" type="curve"/>
			<point x="163" y="464" type="line"/>
			<point x="83" y="430"/>
			<point x="45" y="381"/>
			<point x="45" y="318" type="curve" smooth="yes"/>
			<point x="45" y="228"/>
			<point x="111" y="189"/>
			<point x="201" y="146" type="curve" smooth="yes"/>
			<point x="279" y="109"/>
			<point x="324" y="85"/>
			<point x="324" y="30" type="curve" smooth="yes"/>
			<point x="324" y="-16"/>
			<point x="291" y="-55"/>
			<point x="218" y="-55" type="curve" smooth="yes"/>
			<point x="206" y="-55"/>
			<point x="196" y="-54"/>
			<point x="180" y="-50" type="curve"/>
			<point x="209" y="-68" type="line"/>
			<point x="179" y="-9" type="line" smooth="yes"/>
			<point x="161" y="28"/>
			<point x="142" y="45"/>
			<point x="113" y="45" type="curve" smooth="yes"/>
			<point x="92" y="45"/>
			<point x="75" y="36"/>
			<point x="66" y="10" type="curve"/>
			<point x="66" y="-49"/>
			<point x="135" y="-101"/>
		</contour>
	</outline>
</glyph>
<glyph name="copyright" format="2">
	<unicode hex="00A9"/>
	<advance width="755"/>
	<outline>
		<contour>
			<point x="81" y="337" type="curve" smooth="yes"/>
			<point x="81" y="529"/>
			<point x="210" y="644"/>
			<point x="378" y="644" type="curve" smooth="yes"/>
			<point x="546" y="644"/>
			<point x="675" y="528"/>
			<point x="675" y="337" type="curve" smooth="yes"/>
			<point x="675" y="145"/>
			<point x="546" y="25"/>
			<point x="378" y="25" type="curve" smooth="yes"/>
			<point x="210" y="25"/>
			<point x="81" y="144"/>
		</contour>
		<contour>
			<point x="30" y="337" type="curve" smooth="yes"/>
			<point x="30" y="119"/>
			<point x="184" y="-15"/>
			<point x="378" y="-15" type="curve" smooth="yes"/>
			<point x="571" y="-15"/>
			<point x="725" y="119"/>
			<point x="725" y="337" type="curve" smooth="yes"/>
			<point x="725" y="554"/>
			<point x="571" y="684"/>
			<point x="378" y="684" type="curve" smooth="yes"/>
			<point x="184" y="684"/>
			<point x="30" y="554"/>
		</contour>
		<contour>
			<point x="402" y="175" type="curve" smooth="yes"/>
			<point x="324" y="175"/>
			<point x="271" y="231"/>
			<point x="271" y="338" type="curve" smooth="yes"/>
			<point x="271" y="445"/>
			<point x="329" y="502"/>
			<point x="402" y="502" type="curve" smooth="yes"/>
			<point x="429" y="502"/>
			<point x="462" y="492"/>
			<point x="495" y="466" type="curve"/>
			<point x="451" y="514" type="line"/>
			<point x="466" y="418" type="line"/>
			<point x="509" y="418" type="line"/>
			<point x="507" y="513" type="line"/>
			<point x="468" y="535"/>
			<point x="436" y="541"/>
			<point x="393" y="541" type="curve" smooth="yes"/>
			<point x="282" y="541"/>
			<point x="198" y="455"/>
			<point x="198" y="337" type="curve" smooth="yes"/>
			<point x="198" y="218"/>
			<point x="278" y="134"/>
			<point x="394" y="134" type="curve" smooth="yes"/>
			<point x="436" y="134"/>
			<point x="476" y="143"/>
			<point x="512" y="162" type="curve"/>
			<point x="515" y="257" type="line"/>
			<point x="471" y="257" type="line"/>
			<point x="456" y="161" type="line"/>
			<point x="500" y="209" type="line"/>
			<point x="469" y="182"/>
			<point x="425" y="175"/>
		</contour>
	</outline>
</glyph>
<glyph name="logicalnot" format="2">
	<unicode hex="00AC"/>
	<advance width="531"/>
	<outline>
		<contour>
			<point x="24" y="343" type="line"/>
			<point x="453" y="343" type="line"/>
			<point x="435" y="364" type="line"/>
			<point x="435" y="159" type="line"/>
			<point x="497" y="159" type="line"/>
			<point x="497" y="400" type="line"/>
			<point x="24" y="400" type="line"/>
		</contour>
	</outline>
</glyph>
<glyph name="two.sups" format="2">
	<unicode hex="00B2"/>
	<advance width="370"/>
	<outline>
		<contour>
			<point x="54" y="425" type="line"/>
			<point x="323" y="425" type="line"/>
			<point x="323" y="495" type="line"/>
			<point x="98" y="495" type="line"/>
			<point x="85" y="456" type="line"/>
			<point x="179" y="542" type="line" smooth="yes"/>
			<point x="269" y="625"/>
			<point x="308" y="669"/>
			<point x="308" y="727" type="curve" smooth="yes"/>
			<point x="308" y="780"/>
			<point x="274" y="831"/>
			<point x="187" y="831" type="curve" smooth="yes"/>
			<point x="116" y="831"/>
			<point x="53" y="798"/>
			<point x="48" y="730" type="curve"/>
			<point x="56" y="715"/>
			<point x="69" y="706"/>
			<point x="85" y="706" type="curve" smooth="yes"/>
			<point x="103" y="706"/>
			<point x="115" y="717"/>
			<point x="124" y="756" type="curve" smooth="yes"/>
			<point x="138" y="812" type="line"/>
			<point x="98" y="784" type="line"/>
			<point x="122" y="794"/>
			<point x="142" y="797"/>
			<point x="160" y="797" type="curve" smooth="yes"/>
			<point x="207" y="797"/>
			<point x="235" y="770"/>
			<point x="235" y="719" type="curve" smooth="yes"/>
			<point x="235" y="668"/>
			<point x="206" y="621"/>
			<point x="147" y="564" type="curve" smooth="yes"/>
			<point x="54" y="475" type="line"/>
		</contour>
	</outline>
</glyph>
<glyph name="three.sups" format="2">
	<unicode hex="00B3"/>
	<advance width="370"/>
	<outline>
		<contour>
			<point x="129" y="653" type="line"/>
			<point x="129" y="613" type="line"/>
			<point x="159" y="613" type="line" smooth="yes"/>
			<point x="224" y="613"/>
			<point x="252" y="583"/>
			<point x="252" y="534" type="curve" smooth="yes"/>
			<point x="252" y="481"/>
			<point x="219" y="449"/>
			<point x="160" y="449" type="curve" smooth="yes"/>
			<point x="142" y="449"/>
			<point x="125" y="452"/>
			<point x="105" y="459" type="curve"/>
			<point x="131" y="432" type="line"/>
			<point x="119" y="489" type="line" smooth="yes"/>
			<point x="112" y="527"/>
			<point x="98" y="537"/>
			<point x="80" y="537" type="curve" smooth="yes"/>
			<point x="66" y="537"/>
			<point x="52" y="531"/>
			<point x="45" y="511" type="curve"/>
			<point x="55" y="450"/>
			<point x="101" y="416"/>
			<point x="179" y="416" type="curve" smooth="yes"/>
			<point x="253" y="416"/>
			<point x="325" y="449"/>
			<point x="325" y="531" type="curve" smooth="yes"/>
			<point x="325" y="599"/>
			<point x="277" y="638"/>
			<point x="192" y="638" type="curve"/>
			<point x="199" y="630" type="line"/>
			<point x="261" y="630"/>
			<point x="307" y="675"/>
			<point x="307" y="733" type="curve" smooth="yes"/>
			<point x="307" y="792"/>
			<point x="257" y="831"/>
			<point x="183" y="831" type="curve" smooth="yes"/>
			<point x="120" y="831"/>
			<point x="67" y="802"/>
			<point x="59" y="738" type="curve"/>
			<point x="66" y="724"/>
			<point x="79" y="717"/>
			<point x="93" y="717" type="curve" smooth="yes"/>
			<point x="111" y="717"/>
			<point x="127" y="729"/>
			<point x="132" y="759" type="curve" smooth="yes"/>
			<point x="142" y="812" type="line"/>
			<point x="113" y="789" type="line"/>
			<point x="135" y="795"/>
			<point x="151" y="797"/>
			<point x="163" y="797" type="curve" smooth="yes"/>
			<point x="208" y="797"/>
			<point x="236" y="772"/>
			<point x="236" y="725" type="curve" smooth="yes"/>
			<point x="236" y="678"/>
			<point x="209" y="653"/>
			<point x="154" y="653" type="curve" smooth="yes"/>
		</contour>
	</outline>
</glyph>
<glyph name="one.sups" format="2">
	<unicode hex="00B9"/>
	<advance width="370"/>
	<outline>
		<contour>
			<point x="79" y="796" type="line"/>
			<point x="79" y="759" type="line"/>
			<point x="156" y="765" type="line"/>
			<point x="156" y="425" type="line"/>
			<point x="227" y="425" type="line"/>
			<point x="227" y="822" type="line"/>
			<point x="218" y="828" type="line"/>
		</contour>
		<contour>
			<point x="222" y="471" type="line"/>
			<point x="160" y="471" type="line"/>
			<point x="66" y="454" type="line"/>
			<point x="66" y="425" type="line"/>
			<point x="315" y="425" type="line"/>
			<point x="315" y="454" type="line"/>
		</contour>
	</outline>
</glyph>
<glyph name="AE" format="2">
	<unicode hex="00C6"/>
	<advance width="920"/>
	<outline>
		<contour>
			<point x="5" y="0" type="line"/>
			<point x="234" y="0" type="line"/>
			<point x="234" y="41" type="line"/>
			<point x="135" y="56" type="line"/>
			<point x="115" y="56" type="line"/>
			<point x="5" y="41" type="line"/>
		</contour>
		<contour>
			<point x="60" y="0" type="line"/>
			<point x="118" y="0" type="line"/>
			<point x="478" y="669" type="line"/>
			<point x="423" y="669" type="line"/>
		</contour>
		<contour>
			<point x="222" y="249" type="line"/>
			<point x="502" y="249" type="line"/>
			<point x="502" y="295" type="line"/>
			<point x="247" y="295" type="line"/>
		</contour>
		<contour>
			<point x="318" y="628" type="line"/>
			<point x="424" y="613" type="line"/>
			<point x="502" y="613" type="line"/>
			<point x="502" y="669" type="line"/>
			<point x="318" y="669" type="line"/>
		</contour>
		<contour>
			<point x="368" y="0" type="line"/>
			<point x="502" y="0" type="line"/>
			<point x="502" y="56" type="line"/>
			<point x="492" y="56" type="line"/>
			<point x="368" y="41" type="line"/>
		</contour>
		<contour>
			<point x="455" y="0" type="curve"/>
			<point x="550" y="0" type="line"/>
			<point x="547" y="103"/>
			<point x="547" y="207"/>
			<point x="547" y="322" type="curve" smooth="yes"/>
			<point x="547" y="359" type="line" smooth="yes"/>
			<point x="547" y="464"/>
			<point x="547" y="568"/>
			<point x="550" y="669" type="curve"/>
			<point x="458" y="669" type="line"/>
			<point x="458" y="255" type="line" smooth="yes"/>
			<point x="458" y="163"/>
			<point x="457" y="80"/>
		</contour>
		<contour>
			<point x="502" y="318" type="line"/>
			<point x="729" y="318" type="line"/>
			<point x="729" y="365" type="line"/>
			<point x="502" y="365" type="line"/>
		</contour>
		<contour>
			<point x="712" y="224" type="line"/>
			<point x="758" y="224" type="line"/>
			<point x="758" y="460" type="line"/>
			<point x="712" y="460" type="line"/>
			<point x="697" y="355" type="line"/>
			<point x="697" y="335" type="line"/>
		</contour>
		<contour>
			<point x="502" y="619" type="line"/>
			<point x="786" y="619" type="line"/>
			<point x="808" y="492" type="line"/>
			<point x="866" y="492" type="line"/>
			<point x="859" y="669" type="line"/>
			<point x="502" y="669" type="line"/>
		</contour>
		<contour>
			<point x="502" y="0" type="line"/>
			<point x="879" y="0" type="line"/>
			<point x="886" y="178" type="line"/>
			<point x="828" y="178" type="line"/>
			<point x="806" y="50" type="line"/>
			<point x="502" y="50" type="line"/>
		</contour>
	</outline>
	<anchor name="aboveUC" x="602" y="691"/>
</glyph>
<glyph name="Idieresis" format="2">
	<unicode hex="00CF"/>
	<advance width="371"/>
	<outline>
		<contour>
			<point x="92" y="744" type="curve" smooth="yes"/>
			<point x="125" y="744"/>
			<point x="149" y="767"/>
			<point x="149" y="799" type="curve" smooth="yes"/>
			<point x="149" y="831"/>
			<point x="125" y="854"/>
			<point x="92" y="854" type="curve" smooth="yes"/>
			<point x="62" y="854"/>
			<point x="36" y="831"/>
			<point x="36" y="799" type="curve" smooth="yes"/>
			<point x="36" y="767"/>
			<point x="62" y="744"/>
		</contour>
		<contour>
			<point x="279" y="744" type="curve" smooth="yes"/>
			<point x="309" y="744"/>
			<point x="336" y="767"/>
			<point x="336" y="799" type="curve" smooth="yes"/>
			<point x="336" y="831"/>
			<point x="309" y="854"/>
			<point x="279" y="854" type="curve" smooth="yes"/>
			<point x="246" y="854"/>
			<point x="222" y="831"/>
			<point x="222" y="799" type="curve" smooth="yes"/>
			<point x="222" y="767"/>
			<point x="246" y="744"/>
		</contour>
		<component base="I"/>
	</outline>
</glyph>
<glyph name="Oslash" format="2">
	<unicode hex="00D8"/>
	<advance width="707"/>
	<outline>
		<contour>
			<point x="646" y="656" type="line"/>
			<point x="604" y="690" type="line"/>
			<point x="52" y="13" type="line"/>
			<point x="95" y="-21" type="line"/>
		</contour>
		<contour>
			<point x="146" y="335" type="curve" smooth="yes"/>
			<point x="146" y="485"/>
			<point x="207" y="634"/>
			<point x="354" y="634" type="curve" smooth="yes"/>
			<point x="500" y="634"/>
			<point x="560" y="485"/>
			<point x="560" y="335" type="curve" smooth="yes"/>
			<point x="560" y="184"/>
			<point x="500" y="35"/>
			<point x="354" y="35" type="curve" smooth="yes"/>
			<point x="207" y="35"/>
			<point x="146" y="184"/>
		</contour>
		<contour>
			<point x="354" y="684" type="curve" smooth="yes"/>
			<point x="199" y="684"/>
			<point x="47" y="554"/>
			<point x="47" y="335" type="curve" smooth="yes"/>
			<point x="47" y="106"/>
			<point x="198" y="-15"/>
			<point x="354" y="-15" type="curve" smooth="yes"/>
			<point x="509" y="-15"/>
			<point x="660" y="115"/>
			<point x="660" y="335" type="curve" smooth="yes"/>
			<point x="660" y="563"/>
			<point x="508" y="684"/>
		</contour>
	</outline>
	<anchor name="aboveUC" x="353" y="691"/>
</glyph>
<glyph name="ae" format="2">
	<unicode hex="00E6"/>
	<advance width="782"/>
	<outline>
		<contour>
			<point x="134" y="129" type="curve" smooth="yes"/>
			<point x="134" y="159"/>
			<point x="145" y="193"/>
			<point x="232" y="227" type="curve" smooth="yes"/>
			<point x="262" y="239"/>
			<point x="319" y="258"/>
			<point x="364" y="267" type="curve"/>
			<point x="364" y="303" type="line"/>
			<point x="314" y="294"/>
			<point x="253" y="276"/>
			<point x="211" y="261" type="curve" smooth="yes"/>
			<point x="76" y="212"/>
			<point x="45" y="171"/>
			<point x="45" y="114" type="curve" smooth="yes"/>
			<point x="45" y="31"/>
			<point x="106" y="-13"/>
			<point x="179" y="-13" type="curve" smooth="yes"/>
			<point x="241" y="-13"/>
			<point x="279" y="8"/>
			<point x="370" y="97" type="curve"/>
			<point x="351" y="121" type="line"/>
			<point x="276" y="65"/>
			<point x="254" y="53"/>
			<point x="214" y="53" type="curve" smooth="yes"/>
			<point x="171" y="53"/>
			<point x="134" y="77"/>
		</contour>
		<contour>
			<point x="542" y="-13" type="curve" smooth="yes"/>
			<point x="634" y="-13"/>
			<point x="698" y="32"/>
			<point x="734" y="103" type="curve"/>
			<point x="711" y="122" type="line"/>
			<point x="675" y="80"/>
			<point x="635" y="52"/>
			<point x="572" y="52" type="curve" smooth="yes"/>
			<point x="473" y="52"/>
			<point x="409" y="119"/>
			<point x="409" y="242" type="curve" smooth="yes"/>
			<point x="409" y="389"/>
			<point x="481" y="442"/>
			<point x="543" y="442" type="curve" smooth="yes"/>
			<point x="606" y="442"/>
			<point x="653" y="391"/>
			<point x="653" y="334" type="curve" smooth="yes"/>
			<point x="653" y="304"/>
			<point x="641" y="282"/>
			<point x="593" y="282" type="curve" smooth="yes"/>
			<point x="363" y="282" type="line"/>
			<point x="363" y="240" type="line"/>
			<point x="729" y="240" type="line"/>
			<point x="733" y="253"/>
			<point x="736" y="273"/>
			<point x="736" y="295" type="curve" smooth="yes"/>
			<point x="736" y="417"/>
			<point x="654" y="488"/>
			<point x="548" y="488" type="curve" smooth="yes"/>
			<point x="477" y="488"/>
			<point x="413" y="448"/>
			<point x="369" y="385" type="curve"/>
			<point x="357" y="377" type="line"/>
			<point x="334" y="337"/>
			<point x="320" y="288"/>
			<point x="320" y="233" type="curve" smooth="yes"/>
			<point x="320" y="76"/>
			<point x="408" y="-13"/>
		</contour>
		<contour>
			<point x="402" y="331" type="line" smooth="yes"/>
			<point x="402" y="443"/>
			<point x="339" y="488"/>
			<point x="253" y="488" type="curve" smooth="yes"/>
			<point x="151" y="488"/>
			<point x="77" y="438"/>
			<point x="58" y="362" type="curve"/>
			<point x="61" y="336"/>
			<point x="77" y="319"/>
			<point x="105" y="319" type="curve" smooth="yes"/>
			<point x="132" y="319"/>
			<point x="150" y="336"/>
			<point x="159" y="367" type="curve" smooth="yes"/>
			<point x="184" y="454" type="line"/>
			<point x="140" y="424" type="line"/>
			<point x="178" y="439"/>
			<point x="208" y="442"/>
			<point x="233" y="442" type="curve" smooth="yes"/>
			<point x="294" y="442"/>
			<point x="324" y="418"/>
			<point x="324" y="321" type="curve" smooth="yes"/>
			<point x="324" y="240" type="line"/>
			<point x="402" y="240" type="line"/>
		</contour>
	</outline>
	<anchor name="aboveLC" x="401" y="507"/>
	<anchor name="belowLC" x="375" y="-22"/>
</glyph>
<glyph name="idieresis" format="2">
	<unicode hex="00EF"/>
	<advance width="298"/>
	<outline>
		<contour>
			<point x="54" y="596" type="curve" smooth="yes"/>
			<point x="87" y="596"/>
			<point x="115" y="620"/>
			<point x="115" y="653" type="curve" smooth="yes"/>
			<point x="115" y="685"/>
			<point x="87" y="710"/>
			<point x="54" y="710" type="curve" smooth="yes"/>
			<point x="22" y="710"/>
			<point x="-5" y="685"/>
			<point x="-5" y="653" type="curve" smooth="yes"/>
			<point x="-5" y="620"/>
			<point x="22" y="596"/>
		</contour>
		<contour>
			<point x="243" y="596" type="curve" smooth="yes"/>
			<point x="276" y="596"/>
			<point x="302" y="620"/>
			<point x="302" y="653" type="curve" smooth="yes"/>
			<point x="302" y="685"/>
			<point x="276" y="710"/>
			<point x="243" y="710" type="curve" smooth="yes"/>
			<point x="211" y="710"/>
			<point x="183" y="685"/>
			<point x="183" y="653" type="curve" smooth="yes"/>
			<point x="183" y="620"/>
			<point x="211" y="596"/>
		</contour>
		<component base="dotlessi"/>
	</outline>
</glyph>
<glyph name="oslash" format="1">
	<unicode hex="00F8"/>
	<advance width="549"/>
	<outline>
		<contour>
			<point x="487" y="475" type="line"/>
			<point x="455" y="501" type="line"/>
			<point x="54" y="5" type="line"/>
			<point x="87" y="-21" type="line"/>
		</contour>
		<component base="o"/>
		<contour>
			<point name="aboveLC" x="274" y="507" type="move"/>
		</contour>
	</outline>
</glyph>
<glyph name="aogonek" format="2">
	<unicode hex="0105"/>
	<advance width="509"/>
	<outline>
		<contour>
			<point x="45" y="112" type="curve" smooth="yes"/>
			<point x="45" y="29"/>
			<point x="106" y="-13"/>
			<point x="179" y="-13" type="curve" smooth="yes"/>
			<point x="241" y="-13"/>
			<point x="274" y="15"/>
			<point x="334" y="75" type="curve" smooth="yes"/>
			<point x="364" y="104" type="line"/>
			<point x="350" y="125" type="line"/>
			<point x="329" y="109" type="line" smooth="yes"/>
			<point x="267" y="65"/>
			<point x="248" y="53"/>
			<point x="214" y="53" type="curve" smooth="yes"/>
			<point x="168" y="53"/>
			<point x="134" y="74"/>
			<point x="134" y="127" type="curve" smooth="yes"/>
			<point x="134" y="157"/>
			<point x="145" y="195"/>
			<point x="232" y="229" type="curve" smooth="yes"/>
			<point x="262" y="241"/>
			<point x="321" y="259"/>
			<point x="366" y="269" type="curve"/>
			<point x="366" y="305" type="line"/>
			<point x="316" y="296"/>
			<point x="253" y="278"/>
			<point x="211" y="263" type="curve" smooth="yes"/>
			<point x="76" y="214"/>
			<point x="45" y="169"/>
		</contour>
		<contour>
			<point x="329" y="-132" type="curve" smooth="yes"/>
			<point x="329" y="-187"/>
			<point x="366" y="-220"/>
			<point x="420" y="-220" type="curve" smooth="yes"/>
			<point x="463" y="-220"/>
			<point x="500" y="-206"/>
			<point x="524" y="-172" type="curve"/>
			<point x="512" y="-149" type="line"/>
			<point x="493" y="-161"/>
			<point x="474" y="-164"/>
			<point x="460" y="-164" type="curve" smooth="yes"/>
			<point x="421" y="-164"/>
			<point x="392" y="-139"/>
			<point x="392" y="-96" type="curve" smooth="yes"/>
			<point x="392" y="-62"/>
			<point x="423" y="-31"/>
			<point x="456" y="-5" type="curve" smooth="yes"/>
			<point x="477" y="12"/>
			<point x="487" y="21"/>
			<point x="503" y="40" type="curve"/>
			<point x="483" y="64" type="line"/>
			<point x="470" y="51"/>
			<point x="457" y="42"/>
			<point x="441" y="42" type="curve" smooth="yes"/>
			<point x="420" y="42"/>
			<point x="408" y="62"/>
			<point x="408" y="103" type="curve" smooth="yes"/>
			<point x="408" y="314" type="line" smooth="yes"/>
			<point x="408" y="440"/>
			<point x="358" y="488"/>
			<point x="253" y="488" type="curve" smooth="yes"/>
			<point x="151" y="488"/>
			<point x="77" y="438"/>
			<point x="58" y="362" type="curve"/>
			<point x="61" y="336"/>
			<point x="77" y="319"/>
			<point x="105" y="319" type="curve" smooth="yes"/>
			<point x="132" y="319"/>
			<point x="150" y="336"/>
			<point x="159" y="367" type="curve" smooth="yes"/>
			<point x="184" y="454" type="line"/>
			<point x="140" y="424" type="line"/>
			<point x="178" y="439"/>
			<point x="207" y="442"/>
			<point x="230" y="442" type="curve" smooth="yes"/>
			<point x="296" y="442"/>
			<point x="324" y="418"/>
			<point x="324" y="321" type="curve" smooth="yes"/>
			<point x="324" y="93" type="line" smooth="yes"/>
			<point x="324" y="30"/>
			<point x="357" y="-11"/>
			<point x="426" y="-11" type="curve"/>
			<point x="429" y="-4" type="line"/>
			<point x="376" y="-30"/>
			<point x="329" y="-78"/>
		</contour>
	</outline>
	<anchor name="aboveLC" x="245" y="507"/>
	<anchor name="belowLC" x="244" y="-22"/>
</glyph>
<glyph name="dcaron" format="1">
	<unicode hex="010F"/>
	<advance width="601"/>
	<outline>
		<contour>
			<point x="608" y="749" type="curve" smooth="yes"/>
			<point x="593" y="749"/>
			<point x="578" y="745"/>
			<point x="562" y="737" type="curve"/>
			<point x="559" y="527" type="line"/>
			<point x="591" y="527" type="line"/>
			<point x="610" y="582" type="line" smooth="yes"/>
			<point x="626" y="629"/>
			<point x="644" y="684"/>
			<point x="644" y="713" type="curve" smooth="yes"/>
			<point x="644" y="735"/>
			<point x="634" y="749"/>
		</contour>
		<component base="d"/>
	</outline>
</glyph>
<glyph name="eogonek" format="2">
	<unicode hex="0119"/>
	<advance width="510"/>
	<outline>
		<contour>
			<point x="253" y="-132" type="curve" smooth="yes"/>
			<point x="253" y="-187"/>
			<point x="290" y="-220"/>
			<point x="344" y="-220" type="curve" smooth="yes"/>
			<point x="388" y="-220"/>
			<point x="424" y="-206"/>
			<point x="449" y="-172" type="curve"/>
			<point x="437" y="-149" type="line"/>
			<point x="417" y="-161"/>
			<point x="398" y="-164"/>
			<point x="385" y="-164" type="curve" smooth="yes"/>
			<point x="345" y="-164"/>
			<point x="316" y="-139"/>
			<point x="316" y="-96" type="curve" smooth="yes"/>
			<point x="316" y="-56"/>
			<point x="343" y="-19"/>
			<point x="383" y="13" type="curve" smooth="yes"/>
			<point x="420" y="41"/>
			<point x="441" y="64"/>
			<point x="460" y="103" type="curve"/>
			<point x="436" y="122" type="line"/>
			<point x="399" y="79"/>
			<point x="361" y="52"/>
			<point x="298" y="52" type="curve" smooth="yes"/>
			<point x="199" y="52"/>
			<point x="135" y="119"/>
			<point x="135" y="242" type="curve" smooth="yes"/>
			<point x="135" y="389"/>
			<point x="207" y="442"/>
			<point x="268" y="442" type="curve" smooth="yes"/>
			<point x="331" y="442"/>
			<point x="378" y="391"/>
			<point x="378" y="334" type="curve" smooth="yes"/>
			<point x="378" y="300"/>
			<point x="367" y="282"/>
			<point x="319" y="282" type="curve" smooth="yes"/>
			<point x="84" y="282" type="line"/>
			<point x="84" y="240" type="line"/>
			<point x="454" y="240" type="line"/>
			<point x="458" y="253"/>
			<point x="461" y="273"/>
			<point x="461" y="295" type="curve" smooth="yes"/>
			<point x="461" y="417"/>
			<point x="379" y="488"/>
			<point x="274" y="488" type="curve" smooth="yes"/>
			<point x="150" y="488"/>
			<point x="45" y="386"/>
			<point x="45" y="236" type="curve" smooth="yes"/>
			<point x="45" y="79"/>
			<point x="133" y="-13"/>
			<point x="268" y="-13" type="curve" smooth="yes"/>
			<point x="295" y="-13"/>
			<point x="325" y="-9"/>
			<point x="353" y="-2" type="curve"/>
			<point x="353" y="14" type="line"/>
			<point x="299" y="-13"/>
			<point x="253" y="-71"/>
		</contour>
	</outline>
	<anchor name="aboveLC" x="276" y="507"/>
	<anchor name="belowLC" x="284" y="-22"/>
</glyph>
<glyph name="gcommaaccent" format="1">
	<unicode hex="0123"/>
	<advance width="518"/>
	<outline>
		<contour>
			<point x="195" y="637" type="curve" smooth="yes"/>
			<point x="195" y="624"/>
			<point x="197" y="612"/>
			<point x="204" y="591" type="curve"/>
			<point x="219" y="578"/>
			<point x="234" y="572"/>
			<point x="250" y="572" type="curve" smooth="yes"/>
			<point x="278" y="572"/>
			<point x="301" y="592"/>
			<point x="301" y="621" type="curve" smooth="yes"/>
			<point x="301" y="654"/>
			<point x="270" y="684"/>
			<point x="232" y="693" type="curve"/>
			<point x="235" y="652" type="line"/>
			<point x="259" y="701"/>
			<point x="290" y="723"/>
			<point x="339" y="742" type="curve"/>
			<point x="329" y="771" type="line"/>
			<point x="258" y="748"/>
			<point x="195" y="707"/>
		</contour>
		<component base="g"/>
	</outline>
</glyph>
<glyph name="Iogonek" format="1">
	<unicode hex="012E"/>
	<advance width="371"/>
	<outline>
		<component base="I"/>
		<component base="ogonekcmb" xOffset="207"/>
		<contour>
			<point name="aboveUC" x="185" y="691" type="move"/>
		</contour>
	</outline>
</glyph>
<glyph name="kgreenlandic" format="2">
	<unicode hex="0138"/>
	<advance width="557"/>
	<outline>
		<contour>
			<point x="113" y="0" type="curve"/>
			<point x="204" y="0" type="line"/>
			<point x="202" y="45"/>
			<point x="201" y="148"/>
			<point x="201" y="211" type="curve" smooth="yes"/>
			<point x="201" y="362" type="line"/>
			<point x="204" y="478" type="line"/>
			<point x="188" y="488" type="line"/>
			<point x="34" y="427" type="line"/>
			<point x="34" y="392" type="line"/>
			<point x="113" y="383" type="line"/>
			<point x="115" y="343"/>
			<point x="116" y="313"/>
			<point x="116" y="258" type="curve" smooth="yes"/>
			<point x="116" y="210" type="line" smooth="yes"/>
			<point x="116" y="148"/>
			<point x="115" y="45"/>
		</contour>
		<contour>
			<point x="40" y="0" type="line"/>
			<point x="272" y="0" type="line"/>
			<point x="272" y="36" type="line"/>
			<point x="172" y="56" type="line"/>
			<point x="149" y="56" type="line"/>
			<point x="40" y="36" type="line"/>
		</contour>
		<contour>
			<point x="158" y="137" type="line"/>
			<point x="489" y="475" type="line"/>
			<point x="427" y="475" type="line"/>
			<point x="158" y="196" type="line"/>
		</contour>
		<contour>
			<point x="420" y="0" type="line"/>
			<point x="556" y="0" type="line"/>
			<point x="556" y="36" type="line"/>
			<point x="445" y="56" type="line"/>
			<point x="511" y="16" type="line"/>
			<point x="315" y="326" type="line"/>
			<point x="256" y="266" type="line"/>
		</contour>
		<contour>
			<point x="299" y="436" type="line"/>
			<point x="400" y="412" type="line"/>
			<point x="420" y="419" type="line"/>
			<point x="531" y="436" type="line"/>
			<point x="531" y="475" type="line"/>
			<point x="299" y="475" type="line"/>
		</contour>
	</outline>
</glyph>
<glyph name="Lcaron" format="1">
	<unicode hex="013D"/>
	<advance width="596"/>
	<outline>
		<contour>
			<point x="479" y="739" type="curve" smooth="yes"/>
			<point x="464" y="739"/>
			<point x="449" y="735"/>
			<point x="433" y="727" type="curve"/>
			<point x="430" y="517" type="line"/>
			<point x="462" y="517" type="line"/>
			<point x="481" y="571" type="line" smooth="yes"/>
			<point x="498" y="618"/>
			<point x="515" y="673"/>
			<point x="515" y="702" type="curve" smooth="yes"/>
			<point x="515" y="725"/>
			<point x="505" y="739"/>
		</contour>
		<component base="L"/>
	</outline>
</glyph>
<glyph name="Eng" format="2">
	<unicode hex="014A"/>
	<advance width="735"/>
	<outline>
		<contour>
			<point x="39" y="0" type="line"/>
			<point x="281" y="0" type="line"/>
			<point x="281" y="41" type="line"/>
			<point x="165" y="56" type="line"/>
			<point x="144" y="56" type="line"/>
			<point x="39" y="41" type="line"/>
		</contour>
		<contour>
			<point x="575" y="-1" type="line"/>
			<point x="591" y="-1" type="line"/>
			<point x="601" y="115" type="line"/>
			<point x="198" y="669" type="line"/>
			<point x="44" y="669" type="line"/>
			<point x="44" y="628" type="line"/>
			<point x="163" y="614" type="line"/>
			<point x="102" y="644" type="line"/>
		</contour>
		<contour>
			<point x="124" y="0" type="line"/>
			<point x="175" y="0" type="line"/>
			<point x="175" y="628" type="line"/>
			<point x="124" y="669" type="line"/>
		</contour>
		<contour>
			<point x="454" y="628" type="line"/>
			<point x="575" y="613" type="line"/>
			<point x="595" y="613" type="line"/>
			<point x="695" y="628" type="line"/>
			<point x="695" y="669" type="line"/>
			<point x="454" y="669" type="line"/>
		</contour>
		<contour>
			<point x="610" y="669" type="line"/>
			<point x="559" y="669" type="line"/>
			<point x="563" y="91" type="line"/>
			<point x="559" y="51" type="line"/>
			<point x="559" y="-33"/>
			<point x="529" y="-86"/>
			<point x="466" y="-121" type="curve"/>
			<point x="492" y="-121" type="line"/>
			<point x="459" y="-95" type="line" smooth="yes"/>
			<point x="431" y="-73"/>
			<point x="410" y="-64"/>
			<point x="384" y="-64" type="curve" smooth="yes"/>
			<point x="352" y="-64"/>
			<point x="329" y="-77"/>
			<point x="323" y="-114" type="curve"/>
			<point x="333" y="-152"/>
			<point x="372" y="-163"/>
			<point x="420" y="-163" type="curve" smooth="yes"/>
			<point x="488" y="-163"/>
			<point x="548" y="-127"/>
			<point x="580" y="-65" type="curve" smooth="yes"/>
			<point x="608" y="-10"/>
			<point x="610" y="56"/>
			<point x="610" y="199" type="curve" smooth="yes"/>
		</contour>
	</outline>
</glyph>
<glyph name="eng" format="2">
	<unicode hex="014B"/>
	<advance width="606"/>
	<outline>
		<contour>
			<point x="40" y="0" type="line"/>
			<point x="272" y="0" type="line"/>
			<point x="272" y="36" type="line"/>
			<point x="172" y="56" type="line"/>
			<point x="149" y="56" type="line"/>
			<point x="40" y="36" type="line"/>
		</contour>
		<contour>
			<point x="113" y="0" type="curve"/>
			<point x="204" y="0" type="line"/>
			<point x="202" y="45"/>
			<point x="201" y="148"/>
			<point x="201" y="210" type="curve" smooth="yes"/>
			<point x="201" y="361" type="line"/>
			<point x="201" y="362" type="line"/>
			<point x="189" y="478" type="line"/>
			<point x="174" y="488" type="line"/>
			<point x="34" y="427" type="line"/>
			<point x="34" y="392" type="line"/>
			<point x="113" y="383" type="line"/>
			<point x="115" y="343"/>
			<point x="116" y="313"/>
			<point x="116" y="258" type="curve" smooth="yes"/>
			<point x="116" y="210" type="line" smooth="yes"/>
			<point x="116" y="148"/>
			<point x="115" y="45"/>
		</contour>
		<contour>
			<point x="315" y="-250" type="curve" smooth="yes"/>
			<point x="374" y="-250"/>
			<point x="406" y="-228"/>
			<point x="437" y="-196" type="curve" smooth="yes"/>
			<point x="494" y="-140"/>
			<point x="504" y="-63"/>
			<point x="504" y="100" type="curve" smooth="yes"/>
			<point x="504" y="303" type="line" smooth="yes"/>
			<point x="504" y="434"/>
			<point x="462" y="488"/>
			<point x="376" y="488" type="curve" smooth="yes"/>
			<point x="305" y="488"/>
			<point x="227" y="440"/>
			<point x="178" y="374" type="curve"/>
			<point x="176" y="374" type="line"/>
			<point x="191" y="347" type="line"/>
			<point x="247" y="396"/>
			<point x="288" y="416"/>
			<point x="337" y="416" type="curve" smooth="yes"/>
			<point x="396" y="416"/>
			<point x="420" y="387"/>
			<point x="420" y="295" type="curve" smooth="yes"/>
			<point x="420" y="102" type="line" smooth="yes"/>
			<point x="420" y="-48"/>
			<point x="416" y="-129"/>
			<point x="398" y="-174" type="curve" smooth="yes"/>
			<point x="390" y="-195"/>
			<point x="378" y="-205"/>
			<point x="365" y="-210" type="curve"/>
			<point x="365" y="-224" type="line"/>
			<point x="401" y="-224" type="line"/>
			<point x="401" y="-213" type="line"/>
			<point x="360" y="-181" type="line" smooth="yes"/>
			<point x="333" y="-160"/>
			<point x="312" y="-151"/>
			<point x="285" y="-151" type="curve" smooth="yes"/>
			<point x="255" y="-151"/>
			<point x="234" y="-164"/>
			<point x="226" y="-192" type="curve"/>
			<point x="226" y="-218"/>
			<point x="254" y="-250"/>
		</contour>
	</outline>
</glyph>
<glyph name="OE" format="2">
	<unicode hex="0152"/>
	<advance width="938"/>
	<outline>
		<contour>
			<point x="156" y="335" type="curve" smooth="yes"/>
			<point x="156" y="490"/>
			<point x="220" y="634"/>
			<point x="390" y="634" type="curve" smooth="yes"/>
			<point x="436" y="634"/>
			<point x="464" y="629"/>
			<point x="510" y="608" type="curve"/>
			<point x="510" y="669" type="line"/>
			<point x="457" y="679"/>
			<point x="413" y="684"/>
			<point x="382" y="684" type="curve" smooth="yes"/>
			<point x="199" y="684"/>
			<point x="47" y="557"/>
			<point x="47" y="335" type="curve" smooth="yes"/>
			<point x="47" y="112"/>
			<point x="199" y="-15"/>
			<point x="382" y="-15" type="curve" smooth="yes"/>
			<point x="414" y="-15"/>
			<point x="457" y="-10"/>
			<point x="510" y="0" type="curve"/>
			<point x="510" y="61" type="line"/>
			<point x="464" y="40"/>
			<point x="437" y="35"/>
			<point x="389" y="35" type="curve" smooth="yes"/>
			<point x="220" y="35"/>
			<point x="156" y="180"/>
		</contour>
		<contour>
			<point x="472" y="310" type="line" smooth="yes"/>
			<point x="472" y="205"/>
			<point x="472" y="101"/>
			<point x="469" y="0" type="curve"/>
			<point x="570" y="0" type="line"/>
			<point x="567" y="103"/>
			<point x="567" y="207"/>
			<point x="567" y="322" type="curve" smooth="yes"/>
			<point x="567" y="359" type="line" smooth="yes"/>
			<point x="567" y="464"/>
			<point x="567" y="568"/>
			<point x="570" y="669" type="curve"/>
			<point x="469" y="669" type="line"/>
			<point x="472" y="566"/>
			<point x="472" y="462"/>
			<point x="472" y="359" type="curve" smooth="yes"/>
		</contour>
		<contour>
			<point x="712" y="335" type="line"/>
			<point x="727" y="224" type="line"/>
			<point x="773" y="224" type="line"/>
			<point x="773" y="460" type="line"/>
			<point x="727" y="460" type="line"/>
			<point x="712" y="355" type="line"/>
		</contour>
		<contour>
			<point x="744" y="365" type="line"/>
			<point x="520" y="365" type="line"/>
			<point x="520" y="318" type="line"/>
			<point x="744" y="318" type="line"/>
		</contour>
		<contour>
			<point x="826" y="492" type="line"/>
			<point x="883" y="492" type="line"/>
			<point x="876" y="669" type="line"/>
			<point x="520" y="669" type="line"/>
			<point x="520" y="619" type="line"/>
			<point x="804" y="619" type="line"/>
		</contour>
		<contour>
			<point x="846" y="178" type="line"/>
			<point x="824" y="50" type="line"/>
			<point x="520" y="50" type="line"/>
			<point x="520" y="0" type="line"/>
			<point x="896" y="0" type="line"/>
			<point x="903" y="178" type="line"/>
		</contour>
	</outline>
	<anchor name="aboveUC" x="517" y="691"/>
</glyph>
<glyph name="oe" format="2">
	<unicode hex="0153"/>
	<advance width="868"/>
	<outline>
		<contour>
			<point x="274" y="442" type="curve" smooth="yes"/>
			<point x="361" y="442"/>
			<point x="409" y="368"/>
			<point x="409" y="233" type="curve" smooth="yes"/>
			<point x="409" y="99"/>
			<point x="361" y="32"/>
			<point x="274" y="32" type="curve" smooth="yes"/>
			<point x="188" y="32"/>
			<point x="140" y="102"/>
			<point x="140" y="236" type="curve" smooth="yes"/>
			<point x="140" y="371"/>
			<point x="188" y="442"/>
		</contour>
		<contour>
			<point x="476" y="128" type="curve"/>
			<point x="431" y="128" type="line"/>
			<point x="459" y="40"/>
			<point x="529" y="-13"/>
			<point x="628" y="-13" type="curve" smooth="yes"/>
			<point x="717" y="-13"/>
			<point x="782" y="28"/>
			<point x="820" y="103" type="curve"/>
			<point x="797" y="122" type="line"/>
			<point x="767" y="83"/>
			<point x="721" y="52"/>
			<point x="658" y="52" type="curve" smooth="yes"/>
			<point x="559" y="52"/>
			<point x="495" y="119"/>
			<point x="495" y="242" type="curve" smooth="yes"/>
			<point x="495" y="389"/>
			<point x="567" y="442"/>
			<point x="629" y="442" type="curve" smooth="yes"/>
			<point x="693" y="442"/>
			<point x="739" y="391"/>
			<point x="739" y="334" type="curve" smooth="yes"/>
			<point x="739" y="302"/>
			<point x="726" y="282"/>
			<point x="679" y="282" type="curve" smooth="yes"/>
			<point x="446" y="282" type="line"/>
			<point x="446" y="240" type="line"/>
			<point x="815" y="240" type="line"/>
			<point x="819" y="253"/>
			<point x="822" y="273"/>
			<point x="822" y="295" type="curve" smooth="yes"/>
			<point x="822" y="417"/>
			<point x="740" y="488"/>
			<point x="634" y="488" type="curve" smooth="yes"/>
			<point x="552" y="488"/>
			<point x="468" y="433"/>
			<point x="437" y="350" type="curve"/>
			<point x="476" y="350" type="line"/>
			<point x="443" y="437"/>
			<point x="354" y="488"/>
			<point x="274" y="488" type="curve" smooth="yes"/>
			<point x="159" y="488"/>
			<point x="45" y="402"/>
			<point x="45" y="236" type="curve" smooth="yes"/>
			<point x="45" y="71"/>
			<point x="158" y="-13"/>
			<point x="274" y="-13" type="curve" smooth="yes"/>
			<point x="355" y="-13"/>
			<point x="442" y="37"/>
		</contour>
	</outline>
	<anchor name="aboveLC" x="455" y="507"/>
</glyph>
<glyph name="tcaron" format="1">
	<unicode hex="0165"/>
	<advance width="325"/>
	<outline>
		<contour>
			<point x="310" y="750" type="curve" smooth="yes"/>
			<point x="295" y="750"/>
			<point x="279" y="746"/>
			<point x="263" y="737" type="curve"/>
			<point x="260" y="528" type="line"/>
			<point x="292" y="528" type="line"/>
			<point x="312" y="582" type="line" smooth="yes"/>
			<point x="328" y="629"/>
			<point x="346" y="684"/>
			<point x="346" y="713" type="curve" smooth="yes"/>
			<point x="346" y="735"/>
			<point x="336" y="750"/>
		</contour>
		<component base="t"/>
	</outline>
</glyph>
<glyph name="Uogonek" format="2">
	<unicode hex="0172"/>
	<advance width="727"/>
	<outline>
		<contour>
			<point x="39" y="628" type="line"/>
			<point x="170" y="613" type="line"/>
			<point x="191" y="613" type="line"/>
			<point x="322" y="628" type="line"/>
			<point x="322" y="669" type="line"/>
			<point x="39" y="669" type="line"/>
		</contour>
		<contour>
			<point x="358" y="-132" type="curve" smooth="yes"/>
			<point x="358" y="-187"/>
			<point x="395" y="-220"/>
			<point x="454" y="-220" type="curve" smooth="yes"/>
			<point x="492" y="-220"/>
			<point x="529" y="-206"/>
			<point x="553" y="-172" type="curve"/>
			<point x="541" y="-149" type="line"/>
			<point x="522" y="-161"/>
			<point x="503" y="-164"/>
			<point x="489" y="-164" type="curve" smooth="yes"/>
			<point x="450" y="-164"/>
			<point x="421" y="-139"/>
			<point x="421" y="-96" type="curve" smooth="yes"/>
			<point x="421" y="-56"/>
			<point x="446" y="-16"/>
			<point x="496" y="18" type="curve" smooth="yes"/>
			<point x="561" y="61"/>
			<point x="606" y="133"/>
			<point x="606" y="274" type="curve" smooth="yes"/>
			<point x="606" y="669" type="line"/>
			<point x="555" y="669" type="line"/>
			<point x="555" y="298" type="line" smooth="yes"/>
			<point x="555" y="121"/>
			<point x="497" y="56"/>
			<point x="380" y="56" type="curve" smooth="yes"/>
			<point x="282" y="56"/>
			<point x="218" y="110"/>
			<point x="218" y="281" type="curve" smooth="yes"/>
			<point x="218" y="360" type="line" smooth="yes"/>
			<point x="218" y="464"/>
			<point x="218" y="567"/>
			<point x="221" y="669" type="curve"/>
			<point x="121" y="669" type="line"/>
			<point x="124" y="567"/>
			<point x="124" y="464"/>
			<point x="124" y="360" type="curve" smooth="yes"/>
			<point x="124" y="252" type="line" smooth="yes"/>
			<point x="124" y="65"/>
			<point x="222" y="-15"/>
			<point x="374" y="-15" type="curve" smooth="yes"/>
			<point x="393" y="-15"/>
			<point x="412" y="-13"/>
			<point x="429" y="-10" type="curve"/>
			<point x="429" y="-6" type="line"/>
			<point x="388" y="-37"/>
			<point x="358" y="-82"/>
		</contour>
		<contour>
			<point x="453" y="628" type="line"/>
			<point x="570" y="614" type="line"/>
			<point x="591" y="614" type="line"/>
			<point x="693" y="628" type="line"/>
			<point x="693" y="669" type="line"/>
			<point x="453" y="669" type="line"/>
		</contour>
	</outline>
	<anchor name="aboveUC" x="381" y="691"/>
	<anchor name="belowLC" x="374" y="-22"/>
	<anchor name="hornLC" x="584" y="679"/>
</glyph>
<glyph name="uogonek" format="2">
	<unicode hex="0173"/>
	<advance width="583"/>
	<outline>
		<contour>
			<point x="384" y="-132" type="curve" smooth="yes"/>
			<point x="384" y="-187"/>
			<point x="421" y="-220"/>
			<point x="475" y="-220" type="curve" smooth="yes"/>
			<point x="519" y="-220"/>
			<point x="555" y="-206"/>
			<point x="580" y="-172" type="curve"/>
			<point x="568" y="-149" type="line"/>
			<point x="548" y="-161"/>
			<point x="529" y="-164"/>
			<point x="516" y="-164" type="curve" smooth="yes"/>
			<point x="476" y="-164"/>
			<point x="447" y="-139"/>
			<point x="447" y="-96" type="curve" smooth="yes"/>
			<point x="447" y="-60"/>
			<point x="475" y="-24"/>
			<point x="518" y="3" type="curve"/>
			<point x="489" y="3" type="line"/>
			<point x="434" y="-24"/>
			<point x="384" y="-74"/>
		</contour>
		<component base="u"/>
	</outline>
	<anchor name="aboveLC" x="283" y="507"/>
	<anchor name="belowLC" x="300" y="-22"/>
	<anchor name="hornLC" x="453" y="471"/>
</glyph>
<glyph name="longs" format="2">
	<unicode hex="017F"/>
	<advance width="344"/>
	<outline>
		<contour>
			<point x="162" y="56" type="line"/>
			<point x="137" y="56" type="line"/>
			<point x="25" y="36" type="line"/>
			<point x="25" y="0" type="line"/>
			<point x="283" y="0" type="line"/>
			<point x="283" y="36" type="line"/>
		</contour>
		<contour>
			<point x="107" y="210" type="line" smooth="yes"/>
			<point x="107" y="140"/>
			<point x="106" y="70"/>
			<point x="104" y="0" type="curve"/>
			<point x="194" y="0" type="line"/>
			<point x="192" y="70"/>
			<point x="191" y="140"/>
			<point x="191" y="210" type="curve" smooth="yes"/>
			<point x="191" y="432" type="line" smooth="yes"/>
			<point x="191" y="595"/>
			<point x="200" y="650"/>
			<point x="242" y="692" type="curve" smooth="yes"/>
			<point x="256" y="706"/>
			<point x="267" y="713"/>
			<point x="289" y="719" type="curve"/>
			<point x="235" y="718" type="line"/>
			<point x="283" y="680" type="line" smooth="yes"/>
			<point x="309" y="658"/>
			<point x="330" y="650"/>
			<point x="355" y="650" type="curve" smooth="yes"/>
			<point x="391" y="650"/>
			<point x="414" y="669"/>
			<point x="415" y="695" type="curve"/>
			<point x="405" y="732"/>
			<point x="367" y="749"/>
			<point x="319" y="749" type="curve" smooth="yes"/>
			<point x="273" y="749"/>
			<point x="224" y="734"/>
			<point x="188" y="697" type="curve" smooth="yes"/>
			<point x="131" y="641"/>
			<point x="107" y="566"/>
			<point x="107" y="422" type="curve" smooth="yes"/>
		</contour>
	</outline>
</glyph>
<glyph name="florin" format="2">
	<unicode hex="0192"/>
	<advance width="500"/>
	<outline>
		<contour>
			<point x="103" y="345" type="line"/>
			<point x="426" y="345" type="line"/>
			<point x="426" y="395" type="line"/>
			<point x="103" y="395" type="line"/>
		</contour>
		<contour>
			<point x="297" y="350" type="line" smooth="yes"/>
			<point x="307" y="470"/>
			<point x="308" y="530"/>
			<point x="336" y="576" type="curve" smooth="yes"/>
			<point x="349" y="598"/>
			<point x="368" y="616"/>
			<point x="399" y="628" type="curve"/>
			<point x="365" y="627" type="line"/>
			<point x="397" y="593" type="line" smooth="yes"/>
			<point x="421" y="568"/>
			<point x="443" y="560"/>
			<point x="466" y="560" type="curve" smooth="yes"/>
			<point x="499" y="560"/>
			<point x="519" y="578"/>
			<point x="523" y="605" type="curve"/>
			<point x="513" y="636"/>
			<point x="475" y="659"/>
			<point x="420" y="659" type="curve" smooth="yes"/>
			<point x="377" y="659"/>
			<point x="331" y="642"/>
			<point x="298" y="609" type="curve" smooth="yes"/>
			<point x="245" y="556"/>
			<point x="226" y="483"/>
			<point x="216" y="354" type="curve" smooth="yes"/>
			<point x="204" y="217" type="line" smooth="yes"/>
			<point x="193" y="95"/>
			<point x="193" y="30"/>
			<point x="165" y="-17" type="curve" smooth="yes"/>
			<point x="152" y="-39"/>
			<point x="133" y="-57"/>
			<point x="102" y="-69" type="curve"/>
			<point x="137" y="-68" type="line"/>
			<point x="103" y="-34" type="line" smooth="yes"/>
			<point x="80" y="-9"/>
			<point x="58" y="-1"/>
			<point x="33" y="-1" type="curve" smooth="yes"/>
			<point x="0" y="-1"/>
			<point x="-19" y="-19"/>
			<point x="-24" y="-46" type="curve"/>
			<point x="-13" y="-77"/>
			<point x="26" y="-100"/>
			<point x="81" y="-100" type="curve" smooth="yes"/>
			<point x="123" y="-100"/>
			<point x="167" y="-85"/>
			<point x="204" y="-48" type="curve" smooth="yes"/>
			<point x="257" y="5"/>
			<point x="273" y="85"/>
			<point x="287" y="233" type="curve" smooth="yes"/>
		</contour>
	</outline>
</glyph>
<glyph name="Uhorn" format="1">
	<unicode hex="01AF"/>
	<advance width="727"/>
	<outline>
		<contour>
			<point x="218" y="281" type="curve" smooth="yes"/>
			<point x="218" y="360" type="line" smooth="yes"/>
			<point x="218" y="465"/>
			<point x="218" y="568"/>
			<point x="221" y="669" type="curve"/>
			<point x="121" y="669" type="line"/>
			<point x="124" y="566"/>
			<point x="124" y="463"/>
			<point x="124" y="360" type="curve" smooth="yes"/>
			<point x="124" y="252" type="line" smooth="yes"/>
			<point x="124" y="65"/>
			<point x="222" y="-15"/>
			<point x="367" y="-15" type="curve" smooth="yes"/>
			<point x="504" y="-15"/>
			<point x="606" y="63"/>
			<point x="606" y="274" type="curve" smooth="yes"/>
			<point x="606" y="669" type="line"/>
			<point x="555" y="669" type="line"/>
			<point x="555" y="298" type="line" smooth="yes"/>
			<point x="555" y="121"/>
			<point x="497" y="56"/>
			<point x="384" y="56" type="curve" smooth="yes"/>
			<point x="282" y="56"/>
			<point x="218" y="110"/>
		</contour>
		<contour>
			<point x="170" y="613" type="line"/>
			<point x="191" y="613" type="line"/>
			<point x="322" y="628" type="line"/>
			<point x="322" y="669" type="line"/>
			<point x="39" y="669" type="line"/>
			<point x="39" y="628" type="line"/>
		</contour>
		<contour>
			<point x="583" y="614" type="line"/>
			<point x="583" y="669" type="line"/>
			<point x="453" y="669" type="line"/>
			<point x="453" y="628" type="line"/>
			<point x="563" y="614" type="line"/>
		</contour>
		<contour>
			<point x="593" y="574" type="line"/>
			<point x="679" y="582"/>
			<point x="744" y="640"/>
			<point x="744" y="730" type="curve" smooth="yes"/>
			<point x="744" y="748"/>
			<point x="739" y="766"/>
			<point x="730" y="785" type="curve"/>
			<point x="717" y="796"/>
			<point x="704" y="797"/>
			<point x="694" y="797" type="curve" smooth="yes"/>
			<point x="670" y="797"/>
			<point x="655" y="777"/>
			<point x="655" y="760" type="curve" smooth="yes"/>
			<point x="655" y="733"/>
			<point x="680" y="713"/>
			<point x="680" y="683" type="curve" smooth="yes"/>
			<point x="680" y="635"/>
			<point x="651" y="611"/>
			<point x="589" y="601" type="curve"/>
		</contour>
		<contour>
			<point name="aboveUC" x="380" y="691" type="move"/>
		</contour>
		<contour>
			<point name="belowLC" x="374" y="-22" type="move"/>
		</contour>
	</outline>
</glyph>
<glyph name="dotlessj" format="2">
	<unicode hex="0237"/>
	<advance width="277"/>
	<outline>
		<contour>
			<point x="6" y="-249" type="curve" smooth="yes"/>
			<point x="65" y="-249"/>
			<point x="95" y="-230"/>
			<point x="130" y="-195" type="curve" smooth="yes"/>
			<point x="184" y="-141"/>
			<point x="192" y="-63"/>
			<point x="192" y="100" type="curve" smooth="yes"/>
			<point x="192" y="342" type="line"/>
			<point x="195" y="478" type="line"/>
			<point x="180" y="488" type="line"/>
			<point x="29" y="427" type="line"/>
			<point x="29" y="392" type="line"/>
			<point x="108" y="383" type="line"/>
			<point x="110" y="343"/>
			<point x="111" y="312"/>
			<point x="111" y="257" type="curve" smooth="yes"/>
			<point x="111" y="102" type="line" smooth="yes"/>
			<point x="111" y="-48"/>
			<point x="106" y="-129"/>
			<point x="90" y="-171" type="curve" smooth="yes"/>
			<point x="76" y="-209"/>
			<point x="53" y="-215"/>
			<point x="24" y="-215" type="curve"/>
			<point x="27" y="-235" type="line"/>
			<point x="96" y="-215" type="line"/>
			<point x="51" y="-181" type="line" smooth="yes"/>
			<point x="25" y="-161"/>
			<point x="3" y="-151"/>
			<point x="-24" y="-151" type="curve" smooth="yes"/>
			<point x="-53" y="-151"/>
			<point x="-74" y="-164"/>
			<point x="-83" y="-192" type="curve"/>
			<point x="-82" y="-218"/>
			<point x="-54" y="-249"/>
		</contour>
	</outline>
	<anchor name="aboveLC" x="154" y="503"/>
</glyph>
<glyph name="schwa" format="2">
	<unicode hex="0259"/>
	<advance width="519"/>
	<outline>
		<contour>
			<point x="250" y="-13" type="curve" smooth="yes"/>
			<point x="368" y="-13"/>
			<point x="472" y="89"/>
			<point x="472" y="243" type="curve" smooth="yes"/>
			<point x="472" y="397"/>
			<point x="387" y="488"/>
			<point x="250" y="488" type="curve" smooth="yes"/>
			<point x="159" y="488"/>
			<point x="96" y="439"/>
			<point x="60" y="372" type="curve"/>
			<point x="84" y="353" type="line"/>
			<point x="119" y="394"/>
			<point x="168" y="423"/>
			<point x="223" y="423" type="curve" smooth="yes"/>
			<point x="320" y="423"/>
			<point x="383" y="348"/>
			<point x="383" y="223" type="curve" smooth="yes"/>
			<point x="383" y="84"/>
			<point x="311" y="32"/>
			<point x="248" y="32" type="curve" smooth="yes"/>
			<point x="181" y="32"/>
			<point x="130" y="95"/>
			<point x="130" y="168" type="curve" smooth="yes"/>
			<point x="130" y="202"/>
			<point x="140" y="220"/>
			<point x="189" y="220" type="curve" smooth="yes"/>
			<point x="424" y="220" type="line"/>
			<point x="424" y="262" type="line"/>
			<point x="54" y="262" type="line"/>
			<point x="50" y="249"/>
			<point x="47" y="229"/>
			<point x="47" y="206" type="curve" smooth="yes"/>
			<point x="47" y="63"/>
			<point x="129" y="-13"/>
		</contour>
	</outline>
	<anchor name="aboveLC" x="253" y="503"/>
	<anchor name="belowLC" x="255" y="-22"/>
</glyph>
<glyph name="gscript" format="2">
	<unicode hex="0261"/>
	<advance width="560"/>
	<outline>
		<contour>
			<point x="143" y="-187" type="curve"/>
			<point x="183" y="-223" type="line"/>
			<point x="162" y="-148" type="line" smooth="yes"/>
			<point x="148" y="-97"/>
			<point x="136" y="-75"/>
			<point x="103" y="-75" type="curve" smooth="yes"/>
			<point x="80" y="-75"/>
			<point x="64" y="-85"/>
			<point x="52" y="-108" type="curve"/>
			<point x="69" y="-207"/>
			<point x="142" y="-249"/>
			<point x="242" y="-249" type="curve" smooth="yes"/>
			<point x="307" y="-249"/>
			<point x="367" y="-232"/>
			<point x="407" y="-192" type="curve" smooth="yes"/>
			<point x="468" y="-131"/>
			<point x="478" y="-71"/>
			<point x="474" y="103" type="curve"/>
			<point x="474" y="343" type="line"/>
			<point x="477" y="478" type="line"/>
			<point x="461" y="488" type="line"/>
			<point x="390" y="416" type="line"/>
			<point x="390" y="98" type="line"/>
			<point x="394" y="82" type="line"/>
			<point x="397" y="-44"/>
			<point x="392" y="-106"/>
			<point x="362" y="-150" type="curve" smooth="yes"/>
			<point x="338" y="-186"/>
			<point x="296" y="-204"/>
			<point x="246" y="-204" type="curve" smooth="yes"/>
			<point x="201" y="-204"/>
			<point x="175" y="-200"/>
		</contour>
		<contour>
			<point x="244" y="-3" type="curve" smooth="yes"/>
			<point x="318" y="-3"/>
			<point x="369" y="30"/>
			<point x="412" y="107" type="curve"/>
			<point x="403" y="133" type="line"/>
			<point x="358" y="76"/>
			<point x="323" y="54"/>
			<point x="274" y="54" type="curve" smooth="yes"/>
			<point x="195" y="54"/>
			<point x="135" y="115"/>
			<point x="135" y="238" type="curve" smooth="yes"/>
			<point x="135" y="374"/>
			<point x="201" y="431"/>
			<point x="282" y="431" type="curve" smooth="yes"/>
			<point x="323" y="431"/>
			<point x="357" y="417"/>
			<point x="406" y="361" type="curve"/>
			<point x="417" y="387" type="line"/>
			<point x="376" y="462"/>
			<point x="324" y="488"/>
			<point x="273" y="488" type="curve" smooth="yes"/>
			<point x="138" y="488"/>
			<point x="45" y="385"/>
			<point x="45" y="231" type="curve" smooth="yes"/>
			<point x="45" y="81"/>
			<point x="127" y="-3"/>
		</contour>
	</outline>
	<anchor name="aboveLC" x="283" y="507"/>
	<anchor name="belowLC" x="255" y="-254"/>
</glyph>
<glyph name="h.sups" format="2">
	<unicode hex="02B0"/>
	<advance width="412"/>
	<outline>
		<contour>
			<point x="255" y="749" type="curve" smooth="yes"/>
			<point x="207" y="749"/>
			<point x="162" y="726"/>
			<point x="124" y="669" type="curve"/>
			<point x="149" y="684" type="line"/>
			<point x="113" y="684" type="line"/>
			<point x="113" y="644" type="line"/>
			<point x="130" y="644" type="line"/>
			<point x="168" y="679"/>
			<point x="197" y="695"/>
			<point x="227" y="695" type="curve" smooth="yes"/>
			<point x="266" y="695"/>
			<point x="279" y="674"/>
			<point x="279" y="620" type="curve" smooth="yes"/>
			<point x="279" y="425" type="line"/>
			<point x="347" y="425" type="line"/>
			<point x="347" y="634" type="line" smooth="yes"/>
			<point x="347" y="713"/>
			<point x="315" y="749"/>
		</contour>
		<contour>
			<point x="304" y="468" type="line"/>
			<point x="232" y="455" type="line"/>
			<point x="232" y="425" type="line"/>
			<point x="392" y="425" type="line"/>
			<point x="392" y="455" type="line"/>
			<point x="324" y="468" type="line"/>
		</contour>
		<contour>
			<point x="115" y="468" type="line"/>
			<point x="94" y="468" type="line"/>
			<point x="21" y="455" type="line"/>
			<point x="21" y="425" type="line"/>
			<point x="183" y="425" type="line"/>
			<point x="183" y="455" type="line"/>
		</contour>
		<contour>
			<point x="69" y="425" type="line"/>
			<point x="137" y="425" type="line"/>
			<point x="137" y="893" type="line"/>
			<point x="127" y="898" type="line"/>
			<point x="16" y="868" type="line"/>
			<point x="16" y="840" type="line"/>
			<point x="69" y="834" type="line"/>
		</contour>
	</outline>
</glyph>
<glyph name="j.sups" format="2">
	<unicode hex="02B2"/>
	<advance width="193"/>
	<outline>
		<contour>
			<point x="104" y="809" type="curve" smooth="yes"/>
			<point x="131" y="809"/>
			<point x="153" y="828"/>
			<point x="153" y="855" type="curve" smooth="yes"/>
			<point x="153" y="882"/>
			<point x="131" y="900"/>
			<point x="104" y="900" type="curve" smooth="yes"/>
			<point x="77" y="900"/>
			<point x="56" y="882"/>
			<point x="56" y="855" type="curve" smooth="yes"/>
			<point x="56" y="828"/>
			<point x="77" y="809"/>
		</contour>
		<contour>
			<point x="71" y="475" type="line" smooth="yes"/>
			<point x="71" y="379"/>
			<point x="69" y="344"/>
			<point x="51" y="313" type="curve" smooth="yes"/>
			<point x="45" y="303"/>
			<point x="32" y="289"/>
			<point x="16" y="289" type="curve"/>
			<point x="36" y="273" type="line"/>
			<point x="64" y="286" type="line"/>
			<point x="36" y="315" type="line" smooth="yes"/>
			<point x="17" y="335"/>
			<point x="1" y="343"/>
			<point x="-19" y="343" type="curve" smooth="yes"/>
			<point x="-42" y="343"/>
			<point x="-57" y="330"/>
			<point x="-63" y="307" type="curve"/>
			<point x="-59" y="286"/>
			<point x="-38" y="266"/>
			<point x="10" y="266" type="curve" smooth="yes"/>
			<point x="43" y="266"/>
			<point x="71" y="277"/>
			<point x="97" y="304" type="curve" smooth="yes"/>
			<point x="129" y="336"/>
			<point x="139" y="379"/>
			<point x="139" y="474" type="curve" smooth="yes"/>
			<point x="139" y="741" type="line"/>
			<point x="128" y="748" type="line"/>
			<point x="18" y="707" type="line"/>
			<point x="18" y="683" type="line"/>
			<point x="71" y="677" type="line"/>
		</contour>
	</outline>
</glyph>
<glyph name="r.sups" format="2">
	<unicode hex="02B3"/>
	<advance width="293"/>
	<outline>
		<contour>
			<point x="222" y="710" type="curve"/>
			<point x="186" y="707" type="line"/>
			<point x="202" y="690" type="line" smooth="yes"/>
			<point x="217" y="674"/>
			<point x="230" y="667"/>
			<point x="245" y="667" type="curve" smooth="yes"/>
			<point x="270" y="667"/>
			<point x="288" y="684"/>
			<point x="288" y="711" type="curve"/>
			<point x="283" y="740"/>
			<point x="261" y="749"/>
			<point x="242" y="749" type="curve" smooth="yes"/>
			<point x="200" y="749"/>
			<point x="157" y="707"/>
			<point x="135" y="642" type="curve"/>
			<point x="153" y="660" type="line"/>
			<point x="111" y="660" type="line"/>
			<point x="111" y="616" type="line"/>
			<point x="142" y="616" type="line"/>
			<point x="157" y="658"/>
			<point x="181" y="688"/>
		</contour>
		<contour>
			<point x="125" y="468" type="line"/>
			<point x="102" y="468" type="line"/>
			<point x="29" y="455" type="line"/>
			<point x="29" y="425" type="line"/>
			<point x="199" y="425" type="line"/>
			<point x="199" y="455" type="line"/>
		</contour>
		<contour>
			<point x="143" y="425" type="line"/>
			<point x="143" y="661" type="line"/>
			<point x="134" y="743" type="line"/>
			<point x="123" y="749" type="line"/>
			<point x="23" y="708" type="line"/>
			<point x="23" y="680" type="line"/>
			<point x="75" y="674" type="line"/>
			<point x="75" y="425" type="line"/>
		</contour>
	</outline>
</glyph>
<glyph name="w.sups" format="2">
	<unicode hex="02B7"/>
	<advance width="527"/>
	<outline>
		<contour>
			<point x="473" y="697" type="line"/>
			<point x="521" y="706" type="line"/>
			<point x="521" y="737" type="line"/>
			<point x="395" y="737" type="line"/>
			<point x="395" y="706" type="line"/>
			<point x="458" y="697" type="line"/>
		</contour>
		<contour>
			<point x="85" y="697" type="line"/>
			<point x="159" y="706" type="line"/>
			<point x="159" y="737" type="line"/>
			<point x="0" y="737" type="line"/>
			<point x="0" y="706" type="line"/>
			<point x="67" y="697" type="line"/>
		</contour>
		<contour>
			<point x="274" y="697" type="line"/>
			<point x="289" y="697" type="line"/>
			<point x="354" y="706" type="line"/>
			<point x="354" y="737" type="line"/>
			<point x="202" y="737" type="line"/>
			<point x="202" y="706" type="line"/>
		</contour>
		<contour>
			<point x="272" y="667" type="line"/>
			<point x="253" y="666" type="line"/>
			<point x="353" y="418" type="line"/>
			<point x="380" y="418" type="line"/>
			<point x="495" y="737" type="line"/>
			<point x="455" y="737" type="line"/>
			<point x="371" y="499" type="line"/>
			<point x="392" y="499" type="line"/>
			<point x="294" y="737" type="line"/>
			<point x="264" y="737" type="line"/>
			<point x="169" y="501" type="line"/>
			<point x="188" y="501" type="line"/>
			<point x="99" y="737" type="line"/>
			<point x="26" y="737" type="line"/>
			<point x="149" y="418" type="line"/>
			<point x="176" y="418" type="line"/>
		</contour>
	</outline>
</glyph>
<glyph name="y.sups" format="2">
	<unicode hex="02B8"/>
	<advance width="348"/>
	<outline>
		<contour>
			<point x="293" y="697" type="line"/>
			<point x="344" y="706" type="line"/>
			<point x="344" y="737" type="line"/>
			<point x="211" y="737" type="line"/>
			<point x="211" y="706" type="line"/>
			<point x="280" y="697" type="line"/>
		</contour>
		<contour>
			<point x="88" y="694" type="line"/>
			<point x="172" y="706" type="line"/>
			<point x="172" y="737" type="line"/>
			<point x="-1" y="737" type="line"/>
			<point x="-1" y="706" type="line"/>
			<point x="66" y="694" type="line"/>
		</contour>
		<contour>
			<point x="203" y="479" type="line"/>
			<point x="97" y="737" type="line"/>
			<point x="23" y="737" type="line"/>
			<point x="169" y="386" type="line"/>
		</contour>
		<contour>
			<point x="70" y="298" type="curve"/>
			<point x="90" y="287" type="line"/>
			<point x="116" y="299" type="line"/>
			<point x="94" y="323" type="line" smooth="yes"/>
			<point x="73" y="341"/>
			<point x="56" y="345"/>
			<point x="40" y="345" type="curve" smooth="yes"/>
			<point x="21" y="345"/>
			<point x="2" y="337"/>
			<point x="-3" y="316" type="curve"/>
			<point x="-3" y="287"/>
			<point x="26" y="269"/>
			<point x="61" y="269" type="curve" smooth="yes"/>
			<point x="118" y="269"/>
			<point x="162" y="313"/>
			<point x="199" y="414" type="curve" smooth="yes"/>
			<point x="317" y="737" type="line"/>
			<point x="279" y="737" type="line"/>
			<point x="171" y="426" type="line" smooth="yes"/>
			<point x="147" y="359"/>
			<point x="122" y="321"/>
		</contour>
	</outline>
</glyph>
<glyph name="ringhalfrightmod" format="2">
	<unicode hex="02BE"/>
	<advance width="167"/>
	<outline>
		<contour>
			<point x="26" y="550" type="line"/>
			<point x="98" y="550"/>
			<point x="141" y="586"/>
			<point x="141" y="652" type="curve" smooth="yes"/>
			<point x="141" y="714"/>
			<point x="98" y="752"/>
			<point x="26" y="752" type="curve"/>
			<point x="26" y="713" type="line"/>
			<point x="66" y="713"/>
			<point x="89" y="683"/>
			<point x="89" y="652" type="curve" smooth="yes"/>
			<point x="89" y="621"/>
			<point x="67" y="589"/>
			<point x="26" y="589" type="curve"/>
		</contour>
	</outline>
</glyph>
<glyph name="caron" format="1">
	<unicode hex="02C7"/>
	<advance width="400"/>
	<outline>
		<component base="caroncmb" xOffset="200"/>
		<contour>
			<point name="_aboveLC" x="200" y="507" type="move"/>
		</contour>
	</outline>
</glyph>
<glyph name="verticallinemod" format="1">
	<unicode hex="02C8"/>
	<advance width="116"/>
	<outline>
		<contour>
			<point x="28" y="552" type="line"/>
			<point x="88" y="552" type="line"/>
			<point x="94" y="748" type="line"/>
			<point x="22" y="748" type="line"/>
		</contour>
	</outline>
</glyph>
<glyph name="l.sups" format="2">
	<unicode hex="02E1"/>
	<advance width="204"/>
	<outline>
		<contour>
			<point x="113" y="468" type="line"/>
			<point x="92" y="468" type="line"/>
			<point x="18" y="455" type="line"/>
			<point x="18" y="425" type="line"/>
			<point x="188" y="425" type="line"/>
			<point x="188" y="455" type="line"/>
		</contour>
		<contour>
			<point x="16" y="868" type="line"/>
			<point x="16" y="840" type="line"/>
			<point x="69" y="834" type="line"/>
			<point x="69" y="425" type="line"/>
			<point x="137" y="425" type="line"/>
			<point x="137" y="893" type="line"/>
			<point x="127" y="898" type="line"/>
		</contour>
	</outline>
</glyph>
<glyph name="x.sups" format="2">
	<unicode hex="02E3"/>
	<advance width="350"/>
	<outline>
		<contour>
			<point x="28" y="737" type="line"/>
			<point x="147" y="565" type="line"/>
			<point x="247" y="425" type="line"/>
			<point x="322" y="425" type="line"/>
			<point x="194" y="608" type="line"/>
			<point x="100" y="737" type="line"/>
		</contour>
		<contour>
			<point x="64" y="465" type="line"/>
			<point x="7" y="455" type="line"/>
			<point x="7" y="425" type="line"/>
			<point x="139" y="425" type="line"/>
			<point x="139" y="455" type="line"/>
			<point x="80" y="465" type="line"/>
		</contour>
		<contour>
			<point x="98" y="697" type="line"/>
			<point x="160" y="706" type="line"/>
			<point x="160" y="737" type="line"/>
			<point x="10" y="737" type="line"/>
			<point x="10" y="706" type="line"/>
			<point x="79" y="697" type="line"/>
		</contour>
		<contour>
			<point x="254" y="468" type="line"/>
			<point x="180" y="455" type="line"/>
			<point x="180" y="425" type="line"/>
			<point x="343" y="425" type="line"/>
			<point x="343" y="455" type="line"/>
			<point x="270" y="468" type="line"/>
		</contour>
		<contour>
			<point x="279" y="697" type="line"/>
			<point x="330" y="706" type="line"/>
			<point x="330" y="737" type="line"/>
			<point x="209" y="737" type="line"/>
			<point x="209" y="706" type="line"/>
			<point x="265" y="697" type="line"/>
		</contour>
		<contour>
			<point x="67" y="425" type="line"/>
			<point x="186" y="592" type="line"/>
			<point x="163" y="607" type="line"/>
			<point x="26" y="425" type="line"/>
		</contour>
		<contour>
			<point x="277" y="737" type="line"/>
			<point x="161" y="581" type="line"/>
			<point x="183" y="564" type="line"/>
			<point x="319" y="737" type="line"/>
		</contour>
	</outline>
</glyph>
<glyph name="circumflexcmb" format="2">
	<unicode hex="0302"/>
	<outline>
		<contour>
			<point x="126" y="546" type="line"/>
			<point x="149" y="568" type="line"/>
			<point x="17" y="744" type="line"/>
			<point x="-17" y="744" type="line"/>
			<point x="-149" y="568" type="line"/>
			<point x="-126" y="546" type="line"/>
			<point x="42" y="698" type="line"/>
			<point x="-42" y="698" type="line"/>
		</contour>
	</outline>
	<anchor name="_aboveLC" x="0" y="495"/>
	<anchor name="aboveLC" x="0" y="744"/>
</glyph>
<glyph name="tildecmb" format="1">
	<unicode hex="0303"/>
	<outline>
		<contour>
			<point x="-163" y="586" type="curve"/>
			<point x="-136" y="577" type="line"/>
			<point x="-122" y="626"/>
			<point x="-104" y="656"/>
			<point x="-74" y="656" type="curve" smooth="yes"/>
			<point x="-47" y="656"/>
			<point x="-28" y="629"/>
			<point x="-5" y="608" type="curve" smooth="yes"/>
			<point x="14" y="591"/>
			<point x="35" y="575"/>
			<point x="68" y="575" type="curve" smooth="yes"/>
			<point x="124" y="575"/>
			<point x="151" y="626"/>
			<point x="163" y="703" type="curve"/>
			<point x="136" y="713" type="line"/>
			<point x="122" y="664"/>
			<point x="104" y="633"/>
			<point x="74" y="633" type="curve" smooth="yes"/>
			<point x="47" y="633"/>
			<point x="28" y="661"/>
			<point x="5" y="681" type="curve" smooth="yes"/>
			<point x="-15" y="699"/>
			<point x="-35" y="715"/>
			<point x="-68" y="715" type="curve" smooth="yes"/>
			<point x="-123" y="715"/>
			<point x="-152" y="664"/>
		</contour>
		<contour>
			<point name="_aboveLC" x="0" y="507" type="move"/>
		</contour>
	</outline>
</glyph>
<glyph name="macroncmb" format="2">
	<unicode hex="0304"/>
	<outline>
		<contour>
			<point x="-131" y="596" type="line"/>
			<point x="131" y="596" type="line"/>
			<point x="131" y="659" type="line"/>
			<point x="-131" y="659" type="line"/>
		</contour>
	</outline>
	<anchor name="_aboveLC" x="0" y="507"/>
	<anchor name="aboveLC" x="0" y="669"/>
</glyph>
<glyph name="brevecmb" format="2">
	<unicode hex="0306"/>
	<outline>
		<contour>
			<point x="-151" y="723" type="line"/>
			<point x="-142" y="646"/>
			<point x="-92" y="575"/>
			<point x="0" y="575" type="curve" smooth="yes"/>
			<point x="92" y="575"/>
			<point x="142" y="646"/>
			<point x="151" y="723" type="curve"/>
			<point x="121" y="734" type="line"/>
			<point x="101" y="682"/>
			<point x="66" y="641"/>
			<point x="0" y="641" type="curve" smooth="yes"/>
			<point x="-66" y="641"/>
			<point x="-101" y="682"/>
			<point x="-121" y="734" type="curve"/>
		</contour>
	</outline>
	<anchor name="_aboveLC" x="0" y="495"/>
	<anchor name="aboveLC" x="0" y="734"/>
</glyph>
<glyph name="dotaccentcmb" format="2">
	<unicode hex="0307"/>
	<outline>
		<contour>
			<point x="0" y="589" type="curve" smooth="yes"/>
			<point x="38" y="589"/>
			<point x="67" y="615"/>
			<point x="67" y="653" type="curve" smooth="yes"/>
			<point x="67" y="690"/>
			<point x="38" y="717"/>
			<point x="0" y="717" type="curve" smooth="yes"/>
			<point x="-38" y="717"/>
			<point x="-67" y="690"/>
			<point x="-67" y="653" type="curve" smooth="yes"/>
			<point x="-67" y="615"/>
			<point x="-38" y="589"/>
		</contour>
	</outline>
	<anchor name="_aboveLC" x="0" y="495"/>
	<anchor name="aboveLC" x="0" y="717"/>
</glyph>
<glyph name="dieresiscmb" format="1">
	<unicode hex="0308"/>
	<outline>
		<contour>
			<point x="105" y="596" type="curve" smooth="yes"/>
			<point x="137" y="596"/>
			<point x="164" y="620"/>
			<point x="164" y="653" type="curve" smooth="yes"/>
			<point x="164" y="685"/>
			<point x="137" y="710"/>
			<point x="105" y="710" type="curve" smooth="yes"/>
			<point x="72" y="710"/>
			<point x="45" y="685"/>
			<point x="45" y="653" type="curve" smooth="yes"/>
			<point x="45" y="620"/>
			<point x="72" y="596"/>
		</contour>
		<contour>
			<point x="-105" y="596" type="curve" smooth="yes"/>
			<point x="-72" y="596"/>
			<point x="-45" y="620"/>
			<point x="-45" y="653" type="curve" smooth="yes"/>
			<point x="-45" y="685"/>
			<point x="-72" y="710"/>
			<point x="-105" y="710" type="curve" smooth="yes"/>
			<point x="-137" y="710"/>
			<point x="-164" y="685"/>
			<point x="-164" y="653" type="curve" smooth="yes"/>
			<point x="-164" y="620"/>
			<point x="-137" y="596"/>
		</contour>
		<contour>
			<point name="_aboveLC" x="0" y="507" type="move"/>
		</contour>
		<contour>
			<point name="aboveLC" x="0" y="682" type="move"/>
		</contour>
	</outline>
</glyph>
<glyph name="hungarumlautcmb" format="2">
	<unicode hex="030B"/>
	<outline>
		<contour>
			<point x="-112" y="567" type="line"/>
			<point x="-84" y="551" type="line"/>
			<point x="9" y="668" type="line" smooth="yes"/>
			<point x="28" y="692"/>
			<point x="31" y="709"/>
			<point x="31" y="719" type="curve" smooth="yes"/>
			<point x="31" y="742"/>
			<point x="15" y="756"/>
			<point x="-4" y="756" type="curve" smooth="yes"/>
			<point x="-22" y="756"/>
			<point x="-44" y="745"/>
			<point x="-57" y="709" type="curve" smooth="yes"/>
		</contour>
		<contour>
			<point x="30" y="567" type="line"/>
			<point x="58" y="551" type="line"/>
			<point x="151" y="668" type="line" smooth="yes"/>
			<point x="170" y="692"/>
			<point x="174" y="709"/>
			<point x="174" y="719" type="curve" smooth="yes"/>
			<point x="174" y="742"/>
			<point x="158" y="756"/>
			<point x="138" y="756" type="curve" smooth="yes"/>
			<point x="120" y="756"/>
			<point x="98" y="745"/>
			<point x="85" y="709" type="curve" smooth="yes"/>
		</contour>
	</outline>
	<anchor name="_aboveLC" x="0" y="495"/>
	<anchor name="aboveLC" x="0" y="756"/>
</glyph>
<glyph name="caroncmb" format="1">
	<unicode hex="030C"/>
	<outline>
		<contour>
			<point x="-115" y="739" type="line"/>
			<point x="-139" y="719" type="line"/>
			<point x="-37" y="571" type="line"/>
			<point x="37" y="571" type="line"/>
			<point x="139" y="719" type="line"/>
			<point x="115" y="739" type="line"/>
			<point x="-42" y="596" type="line"/>
			<point x="42" y="596" type="line"/>
		</contour>
		<contour>
			<point name="_aboveLC" x="0" y="507" type="move"/>
		</contour>
	</outline>
</glyph>
<glyph name="horncmb" format="2">
	<unicode hex="031B"/>
	<outline>
		<contour>
			<point x="-6" y="378" type="line"/>
			<point x="79" y="386"/>
			<point x="144" y="444"/>
			<point x="144" y="533" type="curve" smooth="yes"/>
			<point x="144" y="551"/>
			<point x="139" y="569"/>
			<point x="130" y="588" type="curve"/>
			<point x="117" y="599"/>
			<point x="104" y="600"/>
			<point x="94" y="600" type="curve" smooth="yes"/>
			<point x="70" y="600"/>
			<point x="55" y="580"/>
			<point x="55" y="564" type="curve" smooth="yes"/>
			<point x="55" y="536"/>
			<point x="80" y="516"/>
			<point x="80" y="486" type="curve" smooth="yes"/>
			<point x="80" y="439"/>
			<point x="51" y="415"/>
			<point x="-10" y="405" type="curve"/>
		</contour>
	</outline>
	<anchor name="_hornLC" x="0" y="478"/>
</glyph>
<glyph name="commabelowcmb" format="2">
	<unicode hex="0326"/>
	<outline>
		<contour>
			<point x="59" y="-125" type="curve" smooth="yes"/>
			<point x="59" y="-108"/>
			<point x="58" y="-93"/>
			<point x="53" y="-73" type="curve"/>
			<point x="37" y="-57"/>
			<point x="21" y="-51"/>
			<point x="5" y="-51" type="curve" smooth="yes"/>
			<point x="-28" y="-51"/>
			<point x="-43" y="-74"/>
			<point x="-43" y="-103" type="curve" smooth="yes"/>
			<point x="-43" y="-124"/>
			<point x="-24" y="-157"/>
			<point x="26" y="-174" type="curve"/>
			<point x="15" y="-145" type="line"/>
			<point x="11" y="-172"/>
			<point x="-14" y="-201"/>
			<point x="-59" y="-222" type="curve"/>
			<point x="-47" y="-252" type="line"/>
			<point x="10" y="-232"/>
			<point x="59" y="-187"/>
		</contour>
	</outline>
	<anchor name="_belowLC" x="0" y="-22"/>
	<anchor name="belowLC" x="0" y="-261"/>
</glyph>
<glyph name="ogonekcmb" format="2">
	<unicode hex="0328"/>
	<outline>
		<contour>
			<point x="-97" y="-132" type="curve" smooth="yes"/>
			<point x="-97" y="-187"/>
			<point x="-58" y="-220"/>
			<point x="-3" y="-220" type="curve" smooth="yes"/>
			<point x="33" y="-220"/>
			<point x="76" y="-207"/>
			<point x="100" y="-174" type="curve"/>
			<point x="87" y="-149" type="line"/>
			<point x="67" y="-161"/>
			<point x="47" y="-164"/>
			<point x="34" y="-164" type="curve" smooth="yes"/>
			<point x="-4" y="-164"/>
			<point x="-33" y="-139"/>
			<point x="-33" y="-96" type="curve" smooth="yes"/>
			<point x="-33" y="-56"/>
			<point x="-9" y="-14"/>
			<point x="33" y="13" type="curve"/>
			<point x="4" y="13" type="line"/>
			<point x="-50" y="-14"/>
			<point x="-97" y="-71"/>
		</contour>
	</outline>
	<anchor name="_ogonek" x="0" y="0"/>
</glyph>
<glyph name="Alphatonos" format="1">
	<unicode hex="0386"/>
	<advance width="686"/>
	<outline>
		<contour>
			<point x="36" y="445" type="curve"/>
			<point x="74" y="434" type="line"/>
			<point x="96" y="479"/>
			<point x="117" y="524"/>
			<point x="141" y="580" type="curve" smooth="yes"/>
			<point x="147" y="592"/>
			<point x="152" y="608"/>
			<point x="152" y="622" type="curve" smooth="yes"/>
			<point x="152" y="650"/>
			<point x="133" y="660"/>
			<point x="115" y="660" type="curve" smooth="yes"/>
			<point x="93" y="660"/>
			<point x="74" y="646"/>
			<point x="59" y="572" type="curve" smooth="yes"/>
			<point x="54" y="547"/>
			<point x="44" y="496"/>
		</contour>
		<component base="Alpha" xOffset="22"/>
	</outline>
</glyph>
<glyph name="Iotatonos" format="1">
	<unicode hex="038A"/>
	<advance width="477"/>
	<outline>
		<contour>
			<point x="-9" y="445" type="curve"/>
			<point x="29" y="434" type="line"/>
			<point x="50" y="479"/>
			<point x="71" y="524"/>
			<point x="96" y="580" type="curve" smooth="yes"/>
			<point x="101" y="592"/>
			<point x="106" y="608"/>
			<point x="106" y="622" type="curve" smooth="yes"/>
			<point x="106" y="650"/>
			<point x="87" y="660"/>
			<point x="69" y="660" type="curve" smooth="yes"/>
			<point x="47" y="660"/>
			<point x="29" y="646"/>
			<point x="13" y="572" type="curve" smooth="yes"/>
			<point x="8" y="547"/>
			<point x="-2" y="496"/>
		</contour>
		<component base="Iota" xOffset="106"/>
	</outline>
</glyph>
<glyph name="Omegatonos" format="1">
	<unicode hex="038F"/>
	<advance width="786"/>
	<outline>
		<contour>
			<point x="-13" y="445" type="curve"/>
			<point x="25" y="434" type="line"/>
			<point x="46" y="479"/>
			<point x="67" y="524"/>
			<point x="92" y="580" type="curve" smooth="yes"/>
			<point x="97" y="592"/>
			<point x="102" y="608"/>
			<point x="102" y="622" type="curve" smooth="yes"/>
			<point x="102" y="650"/>
			<point x="84" y="660"/>
			<point x="65" y="660" type="curve" smooth="yes"/>
			<point x="43" y="660"/>
			<point x="25" y="646"/>
			<point x="9" y="572" type="curve" smooth="yes"/>
			<point x="4" y="547"/>
			<point x="-6" y="496"/>
		</contour>
		<component base="Omega" xOffset="59"/>
	</outline>
</glyph>
<glyph name="Gamma" format="2">
	<unicode hex="0393"/>
	<advance width="560"/>
	<outline>
		<contour>
			<point x="44" y="0" type="line"/>
			<point x="328" y="0" type="line"/>
			<point x="328" y="41" type="line"/>
			<point x="197" y="56" type="line"/>
			<point x="175" y="56" type="line"/>
			<point x="44" y="41" type="line"/>
		</contour>
		<contour>
			<point x="44" y="628" type="line"/>
			<point x="175" y="613" type="line"/>
			<point x="185" y="613" type="line"/>
			<point x="185" y="669" type="line"/>
			<point x="44" y="669" type="line"/>
		</contour>
		<contour>
			<point x="135" y="0" type="curve"/>
			<point x="236" y="0" type="line"/>
			<point x="233" y="103"/>
			<point x="233" y="207"/>
			<point x="233" y="309" type="curve" smooth="yes"/>
			<point x="233" y="359" type="line" smooth="yes"/>
			<point x="233" y="464"/>
			<point x="233" y="568"/>
			<point x="236" y="669" type="curve"/>
			<point x="135" y="669" type="line"/>
			<point x="138" y="566"/>
			<point x="138" y="462"/>
			<point x="138" y="359" type="curve" smooth="yes"/>
			<point x="138" y="309" type="line" smooth="yes"/>
			<point x="138" y="205"/>
			<point x="138" y="101"/>
		</contour>
		<contour>
			<point x="185" y="619" type="line"/>
			<point x="488" y="619" type="line"/>
			<point x="437" y="669" type="line"/>
			<point x="473" y="471" type="line"/>
			<point x="530" y="471" type="line"/>
			<point x="523" y="669" type="line"/>
			<point x="185" y="669" type="line"/>
		</contour>
	</outline>
</glyph>
<glyph name="Delta" format="1">
	<unicode hex="0394"/>
	<advance width="638"/>
	<outline>
		<contour>
			<point x="25" y="0" type="line"/>
			<point x="57" y="0" type="line"/>
			<point x="310" y="598" type="line"/>
			<point x="286" y="595" type="line"/>
			<point x="525" y="0" type="line"/>
			<point x="608" y="0" type="line"/>
			<point x="608" y="42" type="line"/>
			<point x="353" y="674" type="line"/>
			<point x="291" y="674" type="line"/>
			<point x="25" y="42" type="line"/>
		</contour>
		<contour>
			<point x="47" y="0" type="line"/>
			<point x="569" y="0" type="line"/>
			<point x="569" y="82" type="line"/>
			<point x="47" y="82" type="line"/>
		</contour>
	</outline>
</glyph>
<glyph name="Theta" format="2">
	<unicode hex="0398"/>
	<advance width="708"/>
	<outline>
		<contour>
			<point x="219" y="247" type="line"/>
			<point x="264" y="247" type="line"/>
			<point x="279" y="329" type="line"/>
			<point x="279" y="349" type="line"/>
			<point x="264" y="425" type="line"/>
			<point x="219" y="425" type="line"/>
		</contour>
		<contour>
			<point x="444" y="247" type="line"/>
			<point x="489" y="247" type="line"/>
			<point x="489" y="425" type="line"/>
			<point x="444" y="425" type="line"/>
			<point x="429" y="349" type="line"/>
			<point x="429" y="329" type="line"/>
		</contour>
		<contour>
			<point x="354" y="-15" type="curve" smooth="yes"/>
			<point x="511" y="-15"/>
			<point x="660" y="115"/>
			<point x="660" y="335" type="curve" smooth="yes"/>
			<point x="660" y="563"/>
			<point x="510" y="685"/>
			<point x="354" y="685" type="curve" smooth="yes"/>
			<point x="199" y="685"/>
			<point x="47" y="554"/>
			<point x="47" y="335" type="curve" smooth="yes"/>
			<point x="47" y="106"/>
			<point x="198" y="-15"/>
		</contour>
		<contour>
			<point x="354" y="35" type="curve" smooth="yes"/>
			<point x="215" y="35"/>
			<point x="156" y="184"/>
			<point x="156" y="335" type="curve" smooth="yes"/>
			<point x="156" y="485"/>
			<point x="215" y="635"/>
			<point x="354" y="635" type="curve" smooth="yes"/>
			<point x="494" y="635"/>
			<point x="552" y="485"/>
			<point x="552" y="335" type="curve" smooth="yes"/>
			<point x="552" y="184"/>
			<point x="494" y="35"/>
		</contour>
		<contour>
			<point x="239" y="312" type="line"/>
			<point x="469" y="312" type="line"/>
			<point x="469" y="359" type="line"/>
			<point x="239" y="359" type="line"/>
		</contour>
	</outline>
</glyph>
<glyph name="Lambda" format="2">
	<unicode hex="039B"/>
	<advance width="663"/>
	<outline>
		<contour>
			<point x="507" y="56" type="line"/>
			<point x="380" y="41" type="line"/>
			<point x="380" y="0" type="line"/>
			<point x="653" y="0" type="line"/>
			<point x="653" y="41" type="line"/>
			<point x="528" y="56" type="line"/>
		</contour>
		<contour>
			<point x="105" y="56" type="line"/>
			<point x="5" y="41" type="line"/>
			<point x="5" y="0" type="line"/>
			<point x="234" y="0" type="line"/>
			<point x="234" y="41" type="line"/>
			<point x="124" y="56" type="line"/>
		</contour>
		<contour>
			<point x="302" y="674" type="line"/>
			<point x="70" y="0" type="line"/>
			<point x="118" y="0" type="line"/>
			<point x="321" y="595" type="line"/>
			<point x="297" y="594" type="line"/>
			<point x="497" y="0" type="line"/>
			<point x="594" y="0" type="line"/>
			<point x="364" y="674" type="line"/>
		</contour>
	</outline>
</glyph>
<glyph name="Xi" format="2">
	<unicode hex="039E"/>
	<advance width="594"/>
	<outline>
		<contour>
			<point x="404" y="332" type="line"/>
			<point x="419" y="233" type="line"/>
			<point x="465" y="233" type="line"/>
			<point x="465" y="449" type="line"/>
			<point x="419" y="449" type="line"/>
			<point x="404" y="352" type="line"/>
		</contour>
		<contour>
			<point x="190" y="332" type="line"/>
			<point x="190" y="352" type="line"/>
			<point x="175" y="449" type="line"/>
			<point x="129" y="449" type="line"/>
			<point x="129" y="233" type="line"/>
			<point x="175" y="233" type="line"/>
		</contour>
		<contour>
			<point x="152" y="366" type="line"/>
			<point x="152" y="319" type="line"/>
			<point x="441" y="319" type="line"/>
			<point x="441" y="366" type="line"/>
		</contour>
		<contour>
			<point x="49" y="669" type="line"/>
			<point x="42" y="490" type="line"/>
			<point x="98" y="490" type="line"/>
			<point x="130" y="669" type="line"/>
			<point x="84" y="592" type="line"/>
			<point x="510" y="592" type="line"/>
			<point x="464" y="669" type="line"/>
			<point x="496" y="490" type="line"/>
			<point x="553" y="490" type="line"/>
			<point x="545" y="669" type="line"/>
		</contour>
		<contour>
			<point x="550" y="0" type="line"/>
			<point x="560" y="188" type="line"/>
			<point x="499" y="188" type="line"/>
			<point x="460" y="0" type="line"/>
			<point x="515" y="77" type="line"/>
			<point x="79" y="77" type="line"/>
			<point x="134" y="0" type="line"/>
			<point x="95" y="188" type="line"/>
			<point x="34" y="188" type="line"/>
			<point x="44" y="0" type="line"/>
		</contour>
	</outline>
</glyph>
<glyph name="Pi" format="1">
	<unicode hex="03A0"/>
	<advance width="769"/>
	<outline>
		<contour>
			<point x="574" y="56" type="line"/>
			<point x="443" y="41" type="line"/>
			<point x="443" y="0" type="line"/>
			<point x="725" y="0" type="line"/>
			<point x="725" y="41" type="line"/>
			<point x="594" y="56" type="line"/>
		</contour>
		<contour>
			<point x="537" y="329" type="line" smooth="yes"/>
			<point x="537" y="205"/>
			<point x="537" y="101"/>
			<point x="534" y="0" type="curve"/>
			<point x="634" y="0" type="line"/>
			<point x="631" y="103"/>
			<point x="631" y="207"/>
			<point x="631" y="310" type="curve" smooth="yes"/>
			<point x="631" y="359" type="line" smooth="yes"/>
			<point x="631" y="464"/>
			<point x="631" y="568"/>
			<point x="634" y="669" type="curve"/>
			<point x="534" y="669" type="line"/>
			<point x="537" y="566"/>
			<point x="537" y="462"/>
			<point x="537" y="359" type="curve" smooth="yes"/>
		</contour>
		<contour>
			<point x="138" y="310" type="line" smooth="yes"/>
			<point x="138" y="205"/>
			<point x="138" y="101"/>
			<point x="135" y="0" type="curve"/>
			<point x="236" y="0" type="line"/>
			<point x="233" y="103"/>
			<point x="233" y="207"/>
			<point x="233" y="329" type="curve" smooth="yes"/>
			<point x="233" y="359" type="line" smooth="yes"/>
			<point x="233" y="464"/>
			<point x="233" y="568"/>
			<point x="236" y="669" type="curve"/>
			<point x="135" y="669" type="line"/>
			<point x="138" y="566"/>
			<point x="138" y="462"/>
			<point x="138" y="359" type="curve" smooth="yes"/>
		</contour>
		<contour>
			<point x="175" y="56" type="line"/>
			<point x="44" y="41" type="line"/>
			<point x="44" y="0" type="line"/>
			<point x="326" y="0" type="line"/>
			<point x="326" y="41" type="line"/>
			<point x="195" y="56" type="line"/>
		</contour>
		<contour>
			<point x="584" y="618" type="line"/>
			<point x="584" y="669" type="line"/>
			<point x="186" y="669" type="line"/>
			<point x="186" y="618" type="line"/>
		</contour>
		<contour>
			<point x="584" y="613" type="line"/>
			<point x="594" y="613" type="line"/>
			<point x="725" y="628" type="line"/>
			<point x="725" y="669" type="line"/>
			<point x="584" y="669" type="line"/>
		</contour>
		<contour>
			<point x="176" y="613" type="line"/>
			<point x="186" y="613" type="line"/>
			<point x="186" y="669" type="line"/>
			<point x="45" y="669" type="line"/>
			<point x="45" y="628" type="line"/>
		</contour>
	</outline>
</glyph>
<glyph name="Sigma" format="1">
	<unicode hex="03A3"/>
	<advance width="541"/>
	<outline>
		<contour>
			<point x="433" y="490" type="line"/>
			<point x="494" y="490" type="line"/>
			<point x="486" y="669" type="line"/>
			<point x="67" y="669" type="line"/>
			<point x="67" y="619" type="line"/>
			<point x="451" y="619" type="line"/>
			<point x="395" y="669" type="line"/>
		</contour>
		<contour>
			<point x="503" y="0" type="line"/>
			<point x="511" y="212" type="line"/>
			<point x="450" y="212" type="line"/>
			<point x="412" y="32" type="line"/>
			<point x="468" y="82" type="line"/>
			<point x="58" y="82" type="line"/>
			<point x="83" y="45" type="line"/>
			<point x="329" y="355" type="line"/>
			<point x="106" y="669" type="line"/>
			<point x="30" y="669" type="line"/>
			<point x="30" y="633" type="line"/>
			<point x="264" y="304" type="line"/>
			<point x="264" y="358" type="line"/>
			<point x="20" y="57" type="line"/>
			<point x="20" y="0" type="line"/>
		</contour>
	</outline>
</glyph>
<glyph name="Phi" format="1">
	<unicode hex="03A6"/>
	<advance width="717"/>
	<outline>
		<contour>
			<point x="36" y="342" type="curve" smooth="yes"/>
			<point x="36" y="218"/>
			<point x="118" y="107"/>
			<point x="318" y="107" type="curve" smooth="yes"/>
			<point x="358" y="107" type="line"/>
			<point x="358" y="153" type="line"/>
			<point x="319" y="153" type="line" smooth="yes"/>
			<point x="197" y="153"/>
			<point x="134" y="234"/>
			<point x="134" y="343" type="curve" smooth="yes"/>
			<point x="134" y="453"/>
			<point x="197" y="523"/>
			<point x="319" y="523" type="curve" smooth="yes"/>
			<point x="358" y="523" type="line"/>
			<point x="358" y="569" type="line"/>
			<point x="318" y="569" type="line" smooth="yes"/>
			<point x="136" y="569"/>
			<point x="36" y="463"/>
		</contour>
		<contour>
			<point x="218" y="640" type="line"/>
			<point x="348" y="625" type="line"/>
			<point x="374" y="625" type="line"/>
			<point x="499" y="640" type="line"/>
			<point x="499" y="681" type="line"/>
			<point x="218" y="681" type="line"/>
		</contour>
		<contour>
			<point x="218" y="-12" type="line"/>
			<point x="499" y="-12" type="line"/>
			<point x="499" y="29" type="line"/>
			<point x="374" y="44" type="line"/>
			<point x="348" y="44" type="line"/>
			<point x="218" y="29" type="line"/>
		</contour>
		<contour>
			<point x="313" y="-12" type="curve"/>
			<point x="403" y="-12" type="line"/>
			<point x="401" y="90"/>
			<point x="400" y="211"/>
			<point x="400" y="310" type="curve" smooth="yes"/>
			<point x="400" y="361" type="line" smooth="yes"/>
			<point x="400" y="467"/>
			<point x="401" y="576"/>
			<point x="403" y="681" type="curve"/>
			<point x="313" y="681" type="line"/>
			<point x="316" y="575"/>
			<point x="316" y="465"/>
			<point x="316" y="359" type="curve" smooth="yes"/>
			<point x="316" y="310" type="line" smooth="yes"/>
			<point x="316" y="205"/>
			<point x="316" y="89"/>
		</contour>
		<contour>
			<point x="358" y="107" type="line"/>
			<point x="399" y="107" type="line" smooth="yes"/>
			<point x="599" y="107"/>
			<point x="681" y="218"/>
			<point x="681" y="342" type="curve" smooth="yes"/>
			<point x="681" y="463"/>
			<point x="580" y="569"/>
			<point x="399" y="569" type="curve" smooth="yes"/>
			<point x="358" y="569" type="line"/>
			<point x="358" y="523" type="line"/>
			<point x="399" y="523" type="line" smooth="yes"/>
			<point x="520" y="523"/>
			<point x="583" y="453"/>
			<point x="583" y="343" type="curve" smooth="yes"/>
			<point x="583" y="234"/>
			<point x="519" y="153"/>
			<point x="399" y="153" type="curve" smooth="yes"/>
			<point x="358" y="153" type="line"/>
		</contour>
	</outline>
</glyph>
<glyph name="Psi" format="2">
	<unicode hex="03A8"/>
	<advance width="770"/>
	<outline>
		<contour>
			<point x="244" y="0" type="line"/>
			<point x="526" y="0" type="line"/>
			<point x="526" y="41" type="line"/>
			<point x="395" y="56" type="line"/>
			<point x="374" y="56" type="line"/>
			<point x="244" y="41" type="line"/>
		</contour>
		<contour>
			<point x="335" y="0" type="curve"/>
			<point x="435" y="0" type="line"/>
			<point x="432" y="103"/>
			<point x="432" y="207"/>
			<point x="432" y="310" type="curve" smooth="yes"/>
			<point x="432" y="359" type="line" smooth="yes"/>
			<point x="432" y="464"/>
			<point x="432" y="568"/>
			<point x="435" y="669" type="curve"/>
			<point x="335" y="669" type="line"/>
			<point x="338" y="566"/>
			<point x="338" y="462"/>
			<point x="338" y="359" type="curve" smooth="yes"/>
			<point x="338" y="310" type="line" smooth="yes"/>
			<point x="338" y="205"/>
			<point x="338" y="101"/>
		</contour>
		<contour>
			<point x="385" y="234" type="curve" smooth="yes"/>
			<point x="593" y="234"/>
			<point x="649" y="298"/>
			<point x="680" y="505" type="curve" smooth="yes"/>
			<point x="691" y="576" type="line" smooth="yes"/>
			<point x="696" y="607"/>
			<point x="705" y="621"/>
			<point x="734" y="625" type="curve" smooth="yes"/>
			<point x="760" y="628" type="line"/>
			<point x="760" y="669" type="line"/>
			<point x="710" y="669" type="line" smooth="yes"/>
			<point x="625" y="669"/>
			<point x="605" y="637"/>
			<point x="595" y="549" type="curve" smooth="yes"/>
			<point x="590" y="506" type="line" smooth="yes"/>
			<point x="570" y="342"/>
			<point x="546" y="280"/>
			<point x="385" y="280" type="curve" smooth="yes"/>
			<point x="223" y="280"/>
			<point x="199" y="342"/>
			<point x="180" y="506" type="curve" smooth="yes"/>
			<point x="175" y="549" type="line" smooth="yes"/>
			<point x="165" y="637"/>
			<point x="144" y="669"/>
			<point x="60" y="669" type="curve" smooth="yes"/>
			<point x="9" y="669" type="line"/>
			<point x="9" y="628" type="line"/>
			<point x="36" y="625" type="line" smooth="yes"/>
			<point x="64" y="621"/>
			<point x="74" y="607"/>
			<point x="78" y="576" type="curve" smooth="yes"/>
			<point x="89" y="505" type="line" smooth="yes"/>
			<point x="121" y="298"/>
			<point x="177" y="234"/>
		</contour>
		<contour>
			<point x="245" y="628" type="line"/>
			<point x="374" y="613" type="line"/>
			<point x="395" y="613" type="line"/>
			<point x="525" y="628" type="line"/>
			<point x="525" y="669" type="line"/>
			<point x="245" y="669" type="line"/>
		</contour>
	</outline>
</glyph>
<glyph name="Omega" format="2">
	<unicode hex="03A9"/>
	<unicode hex="2126"/>
	<advance width="721"/>
	<outline>
		<contour>
			<point x="80" y="171" type="line"/>
			<point x="24" y="171" type="line"/>
			<point x="44" y="0" type="line"/>
			<point x="308" y="0" type="line"/>
			<point x="307" y="64" type="line"/>
			<point x="277" y="65" type="line"/>
			<point x="68" y="65" type="line"/>
			<point x="130" y="0" type="line"/>
		</contour>
		<contour>
			<point x="641" y="171" type="line"/>
			<point x="591" y="0" type="line"/>
			<point x="653" y="65" type="line"/>
			<point x="454" y="65" type="line"/>
			<point x="414" y="64" type="line"/>
			<point x="413" y="0" type="line"/>
			<point x="677" y="0" type="line"/>
			<point x="697" y="171" type="line"/>
		</contour>
		<contour>
			<point x="360" y="634" type="curve" smooth="yes"/>
			<point x="489" y="634"/>
			<point x="560" y="550"/>
			<point x="560" y="387" type="curve" smooth="yes"/>
			<point x="560" y="274"/>
			<point x="511" y="174"/>
			<point x="407" y="123" type="curve"/>
			<point x="412" y="0" type="line"/>
			<point x="464" y="0" type="line"/>
			<point x="459" y="94" type="line"/>
			<point x="596" y="157"/>
			<point x="667" y="278"/>
			<point x="667" y="395" type="curve" smooth="yes"/>
			<point x="667" y="564"/>
			<point x="534" y="684"/>
			<point x="360" y="684" type="curve" smooth="yes"/>
			<point x="193" y="684"/>
			<point x="55" y="571"/>
			<point x="55" y="384" type="curve" smooth="yes"/>
			<point x="55" y="242"/>
			<point x="143" y="143"/>
			<point x="260" y="94" type="curve"/>
			<point x="255" y="0" type="line"/>
			<point x="309" y="0" type="line"/>
			<point x="314" y="123" type="line"/>
			<point x="223" y="173"/>
			<point x="163" y="249"/>
			<point x="163" y="387" type="curve" smooth="yes"/>
			<point x="163" y="540"/>
			<point x="228" y="634"/>
		</contour>
	</outline>
</glyph>
<glyph name="gamma" format="2">
	<unicode hex="03B3"/>
	<advance width="491"/>
	<outline>
		<contour>
			<point x="196" y="-180" type="line"/>
			<point x="205" y="-190" type="line"/>
			<point x="284" y="-172" type="line"/>
			<point x="279" y="43" type="line"/>
			<point x="271" y="48" type="line"/>
			<point x="241" y="191"/>
			<point x="214" y="284"/>
			<point x="193" y="348" type="curve" smooth="yes"/>
			<point x="154" y="468"/>
			<point x="122" y="483"/>
			<point x="82" y="483" type="curve" smooth="yes"/>
			<point x="46" y="483"/>
			<point x="22" y="465"/>
			<point x="0" y="441" type="curve"/>
			<point x="12" y="411" type="line"/>
			<point x="24" y="414"/>
			<point x="34" y="415"/>
			<point x="44" y="415" type="curve" smooth="yes"/>
			<point x="79" y="415"/>
			<point x="94" y="387"/>
			<point x="122" y="305" type="curve" smooth="yes"/>
			<point x="156" y="202"/>
			<point x="195" y="98"/>
			<point x="220" y="-15" type="curve"/>
			<point x="221" y="71" type="line"/>
		</contour>
		<contour>
			<point x="273" y="0" type="line"/>
			<point x="358" y="139"/>
			<point x="456" y="323"/>
			<point x="456" y="432" type="curve" smooth="yes"/>
			<point x="456" y="455"/>
			<point x="454" y="465"/>
			<point x="451" y="476" type="curve"/>
			<point x="443" y="483"/>
			<point x="435" y="488"/>
			<point x="415" y="488" type="curve" smooth="yes"/>
			<point x="383" y="488"/>
			<point x="363" y="465"/>
			<point x="363" y="420" type="curve" smooth="yes"/>
			<point x="363" y="397"/>
			<point x="366" y="367"/>
			<point x="379" y="267" type="curve"/>
			<point x="388" y="347" type="line"/>
			<point x="348" y="233"/>
			<point x="314" y="156"/>
			<point x="251" y="40" type="curve"/>
		</contour>
	</outline>
</glyph>
<glyph name="zeta" format="1">
	<unicode hex="03B6"/>
	<advance width="420"/>
	<outline>
		<contour>
			<point x="197" y="-191" type="line"/>
			<point x="340" y="-191"/>
			<point x="408" y="-121"/>
			<point x="408" y="-48" type="curve" smooth="yes"/>
			<point x="408" y="7"/>
			<point x="373" y="47"/>
			<point x="294" y="67" type="curve" smooth="yes"/>
			<point x="233" y="81" type="line" smooth="yes"/>
			<point x="150" y="101"/>
			<point x="129" y="137"/>
			<point x="129" y="184" type="curve" smooth="yes"/>
			<point x="129" y="299"/>
			<point x="229" y="443"/>
			<point x="400" y="675" type="curve"/>
			<point x="396" y="729" type="line"/>
			<point x="61" y="738" type="line"/>
			<point x="61" y="660" type="line"/>
			<point x="378" y="670" type="line"/>
			<point x="365" y="708" type="line"/>
			<point x="171" y="466"/>
			<point x="45" y="279"/>
			<point x="45" y="164" type="curve" smooth="yes"/>
			<point x="45" y="86"/>
			<point x="84" y="37"/>
			<point x="169" y="17" type="curve" smooth="yes"/>
			<point x="262" y="-5" type="line" smooth="yes"/>
			<point x="337" y="-23"/>
			<point x="351" y="-38"/>
			<point x="351" y="-62" type="curve" smooth="yes"/>
			<point x="351" y="-93"/>
			<point x="295" y="-115"/>
			<point x="193" y="-125" type="curve"/>
		</contour>
	</outline>
</glyph>
<glyph name="theta" format="2">
	<unicode hex="03B8"/>
	<advance width="511"/>
	<outline>
		<contour>
			<point x="257" y="-13" type="curve" smooth="yes"/>
			<point x="366" y="-13"/>
			<point x="462" y="62"/>
			<point x="462" y="353" type="curve" smooth="yes"/>
			<point x="462" y="635"/>
			<point x="369" y="739"/>
			<point x="258" y="739" type="curve" smooth="yes"/>
			<point x="146" y="739"/>
			<point x="49" y="644"/>
			<point x="49" y="351" type="curve" smooth="yes"/>
			<point x="49" y="71"/>
			<point x="149" y="-13"/>
		</contour>
		<contour>
			<point x="268" y="32" type="curve" smooth="yes"/>
			<point x="193" y="32"/>
			<point x="130" y="127"/>
			<point x="130" y="372" type="curve" smooth="yes"/>
			<point x="130" y="626"/>
			<point x="175" y="694"/>
			<point x="253" y="694" type="curve" smooth="yes"/>
			<point x="319" y="694"/>
			<point x="382" y="593"/>
			<point x="382" y="350" type="curve" smooth="yes"/>
			<point x="382" y="97"/>
			<point x="342" y="32"/>
		</contour>
		<contour>
			<point x="83" y="333" type="line"/>
			<point x="434" y="333" type="line"/>
			<point x="434" y="393" type="line"/>
			<point x="83" y="393" type="line"/>
		</contour>
	</outline>
</glyph>
<glyph name="kappa" format="1">
	<unicode hex="03BA"/>
	<advance width="530"/>
	<outline>
		<contour>
			<point x="93" y="0" type="line"/>
			<point x="102" y="-10" type="line"/>
			<point x="168" y="0" type="line"/>
			<point x="172" y="57"/>
			<point x="178" y="125"/>
			<point x="181" y="182" type="curve" smooth="yes"/>
			<point x="181" y="346" type="line" smooth="yes"/>
			<point x="181" y="443"/>
			<point x="155" y="485"/>
			<point x="98" y="485" type="curve" smooth="yes"/>
			<point x="63" y="485"/>
			<point x="43" y="469"/>
			<point x="23" y="444" type="curve"/>
			<point x="34" y="414" type="line"/>
			<point x="47" y="416"/>
			<point x="60" y="418"/>
			<point x="73" y="418" type="curve" smooth="yes"/>
			<point x="102" y="418"/>
			<point x="110" y="400"/>
			<point x="110" y="370" type="curve" smooth="yes"/>
			<point x="107" y="179" type="line"/>
		</contour>
		<contour>
			<point x="157" y="108" type="line"/>
			<point x="193" y="177"/>
			<point x="222" y="216"/>
			<point x="255" y="273" type="curve" smooth="yes"/>
			<point x="308" y="335"/>
			<point x="362" y="389"/>
			<point x="431" y="436" type="curve"/>
			<point x="332" y="384" type="line"/>
			<point x="421" y="388" type="line" smooth="yes"/>
			<point x="471" y="390"/>
			<point x="501" y="408"/>
			<point x="501" y="444" type="curve" smooth="yes"/>
			<point x="501" y="471"/>
			<point x="484" y="484"/>
			<point x="462" y="489" type="curve"/>
			<point x="427" y="485"/>
			<point x="399" y="471"/>
			<point x="359" y="440" type="curve" smooth="yes"/>
			<point x="289" y="383"/>
			<point x="196" y="265"/>
			<point x="150" y="144" type="curve"/>
		</contour>
		<contour>
			<point x="428" y="-13" type="curve" smooth="yes"/>
			<point x="458" y="-13"/>
			<point x="489" y="10"/>
			<point x="504" y="49" type="curve"/>
			<point x="496" y="75" type="line"/>
			<point x="486" y="71"/>
			<point x="467" y="68"/>
			<point x="446" y="68" type="curve" smooth="yes"/>
			<point x="386" y="68"/>
			<point x="351" y="151"/>
			<point x="267" y="303" type="curve"/>
			<point x="233" y="265" type="line"/>
			<point x="347" y="21"/>
			<point x="384" y="-13"/>
		</contour>
	</outline>
</glyph>
<glyph name="xi" format="1">
	<unicode hex="03BE"/>
	<advance width="438"/>
	<outline>
		<contour>
			<point x="215" y="-191" type="line"/>
			<point x="357" y="-191"/>
			<point x="426" y="-121"/>
			<point x="426" y="-48" type="curve" smooth="yes"/>
			<point x="426" y="6"/>
			<point x="394" y="50"/>
			<point x="314" y="66" type="curve" smooth="yes"/>
			<point x="250" y="78" type="line" smooth="yes"/>
			<point x="153" y="97"/>
			<point x="131" y="136"/>
			<point x="131" y="193" type="curve" smooth="yes"/>
			<point x="131" y="263"/>
			<point x="182" y="331"/>
			<point x="327" y="331" type="curve" smooth="yes"/>
			<point x="348" y="331"/>
			<point x="369" y="330"/>
			<point x="389" y="328" type="curve"/>
			<point x="389" y="406" type="line"/>
			<point x="388" y="406"/>
			<point x="337" y="406"/>
			<point x="336" y="406" type="curve" smooth="yes"/>
			<point x="216" y="406"/>
			<point x="174" y="470"/>
			<point x="174" y="525" type="curve" smooth="yes"/>
			<point x="174" y="606"/>
			<point x="253" y="672"/>
			<point x="415" y="672" type="curve"/>
			<point x="419" y="729" type="line"/>
			<point x="40" y="734" type="line"/>
			<point x="40" y="663" type="line"/>
			<point x="279" y="675" type="line"/>
			<point x="284" y="680" type="line"/>
			<point x="183" y="661"/>
			<point x="98" y="603"/>
			<point x="98" y="511" type="curve" smooth="yes"/>
			<point x="98" y="432"/>
			<point x="155" y="356"/>
			<point x="311" y="355" type="curve"/>
			<point x="311" y="366" type="line"/>
			<point x="163" y="368"/>
			<point x="53" y="290"/>
			<point x="53" y="179" type="curve" smooth="yes"/>
			<point x="53" y="83"/>
			<point x="108" y="31"/>
			<point x="195" y="13" type="curve" smooth="yes"/>
			<point x="282" y="-5" type="line" smooth="yes"/>
			<point x="357" y="-21"/>
			<point x="369" y="-38"/>
			<point x="369" y="-62" type="curve" smooth="yes"/>
			<point x="369" y="-93"/>
			<point x="311" y="-115"/>
			<point x="211" y="-125" type="curve"/>
		</contour>
	</outline>
</glyph>
<glyph name="rho" format="1">
	<unicode hex="03C1"/>
	<advance width="543"/>
	<outline>
		<contour>
			<point x="69" y="-180" type="line"/>
			<point x="81" y="-190" type="line"/>
			<point x="165" y="-172" type="line"/>
			<point x="147" y="80" type="line"/>
			<point x="153" y="93" type="line"/>
			<point x="153" y="96"/>
			<point x="157" y="256"/>
			<point x="157" y="259" type="curve" smooth="yes"/>
			<point x="160" y="380"/>
			<point x="199" y="442"/>
			<point x="278" y="442" type="curve" smooth="yes"/>
			<point x="337" y="442"/>
			<point x="416" y="386"/>
			<point x="416" y="219" type="curve" smooth="yes"/>
			<point x="416" y="119"/>
			<point x="377" y="42"/>
			<point x="286" y="42" type="curve" smooth="yes"/>
			<point x="223" y="42"/>
			<point x="181" y="73"/>
			<point x="135" y="119" type="curve"/>
			<point x="125" y="104" type="line"/>
			<point x="162" y="26"/>
			<point x="223" y="-13"/>
			<point x="290" y="-13" type="curve" smooth="yes"/>
			<point x="396" y="-13"/>
			<point x="504" y="76"/>
			<point x="504" y="243" type="curve" smooth="yes"/>
			<point x="504" y="395"/>
			<point x="411" y="488"/>
			<point x="298" y="488" type="curve" smooth="yes"/>
			<point x="164" y="488"/>
			<point x="74" y="398"/>
			<point x="73" y="219" type="curve" smooth="yes"/>
			<point x="72" y="12" type="line"/>
		</contour>
		<contour>
			<point name="aboveLC" x="297" y="507" type="move"/>
		</contour>
	</outline>
</glyph>
<glyph name="sigma" format="2">
	<unicode hex="03C3"/>
	<advance width="595"/>
	<outline>
		<contour>
			<point x="260" y="-13" type="curve" smooth="yes"/>
			<point x="388" y="-13"/>
			<point x="481" y="89"/>
			<point x="481" y="228" type="curve" smooth="yes"/>
			<point x="481" y="332"/>
			<point x="425" y="429"/>
			<point x="293" y="441" type="curve"/>
			<point x="281" y="429" type="line"/>
			<point x="374" y="407"/>
			<point x="398" y="320"/>
			<point x="398" y="235" type="curve" smooth="yes"/>
			<point x="398" y="96"/>
			<point x="342" y="33"/>
			<point x="263" y="33" type="curve" smooth="yes"/>
			<point x="183" y="33"/>
			<point x="127" y="99"/>
			<point x="127" y="223" type="curve" smooth="yes"/>
			<point x="127" y="352"/>
			<point x="190" y="421"/>
			<point x="300" y="426" type="curve"/>
			<point x="312" y="424" type="line"/>
			<point x="575" y="403" type="line"/>
			<point x="571" y="483" type="line"/>
			<point x="307" y="477" type="line" smooth="yes"/>
			<point x="154" y="474"/>
			<point x="39" y="392"/>
			<point x="39" y="223" type="curve" smooth="yes"/>
			<point x="39" y="80"/>
			<point x="126" y="-13"/>
		</contour>
	</outline>
</glyph>
<glyph name="tau" format="2">
	<unicode hex="03C4"/>
	<advance width="492"/>
	<outline>
		<contour>
			<point x="27" y="385" type="line"/>
			<point x="246" y="408" type="line"/>
			<point x="464" y="403" type="line"/>
			<point x="460" y="475" type="line"/>
			<point x="231" y="475" type="line" smooth="yes"/>
			<point x="126" y="475"/>
			<point x="72" y="464"/>
			<point x="19" y="422" type="curve"/>
		</contour>
		<contour>
			<point x="301" y="-13" type="curve" smooth="yes"/>
			<point x="341" y="-13"/>
			<point x="366" y="4"/>
			<point x="390" y="40" type="curve"/>
			<point x="382" y="65" type="line"/>
			<point x="368" y="60"/>
			<point x="351" y="56"/>
			<point x="338" y="56" type="curve" smooth="yes"/>
			<point x="299" y="56"/>
			<point x="278" y="73"/>
			<point x="277" y="140" type="curve" smooth="yes"/>
			<point x="273" y="440" type="line"/>
			<point x="222" y="440" type="line"/>
			<point x="212" y="328"/>
			<point x="200" y="201"/>
			<point x="200" y="110" type="curve" smooth="yes"/>
			<point x="200" y="27"/>
			<point x="232" y="-13"/>
		</contour>
	</outline>
</glyph>
<glyph name="psi" format="2">
	<unicode hex="03C8"/>
	<advance width="711"/>
	<outline>
		<contour>
			<point x="347" y="-191" type="line"/>
			<point x="426" y="-172" type="line"/>
			<point x="415" y="13" type="line"/>
			<point x="413" y="630" type="line"/>
			<point x="357" y="630" type="line"/>
			<point x="345" y="11" type="line"/>
			<point x="331" y="-180" type="line"/>
		</contour>
		<contour>
			<point x="354" y="-13" type="curve"/>
			<point x="364" y="38" type="line"/>
			<point x="226" y="38"/>
			<point x="176" y="95"/>
			<point x="176" y="197" type="curve" smooth="yes"/>
			<point x="176" y="251"/>
			<point x="186" y="338"/>
			<point x="186" y="402" type="curve" smooth="yes"/>
			<point x="186" y="442"/>
			<point x="170" y="485"/>
			<point x="107" y="485" type="curve" smooth="yes"/>
			<point x="68" y="485"/>
			<point x="38" y="468"/>
			<point x="19" y="443" type="curve"/>
			<point x="31" y="413" type="line"/>
			<point x="42" y="415"/>
			<point x="55" y="417"/>
			<point x="67" y="417" type="curve" smooth="yes"/>
			<point x="102" y="417"/>
			<point x="106" y="398"/>
			<point x="106" y="361" type="curve" smooth="yes"/>
			<point x="106" y="305"/>
			<point x="98" y="240"/>
			<point x="98" y="198" type="curve" smooth="yes"/>
			<point x="98" y="50"/>
			<point x="195" y="-13"/>
		</contour>
		<contour>
			<point x="377" y="-13" type="line"/>
			<point x="570" y="-13"/>
			<point x="665" y="90"/>
			<point x="665" y="317" type="curve" smooth="yes"/>
			<point x="665" y="362"/>
			<point x="659" y="424"/>
			<point x="644" y="474" type="curve"/>
			<point x="634" y="484"/>
			<point x="621" y="488"/>
			<point x="605" y="488" type="curve" smooth="yes"/>
			<point x="579" y="488"/>
			<point x="554" y="470"/>
			<point x="554" y="432" type="curve" smooth="yes"/>
			<point x="554" y="411"/>
			<point x="564" y="380"/>
			<point x="628" y="248" type="curve"/>
			<point x="614" y="379" type="line"/>
			<point x="601" y="379" type="line"/>
			<point x="604" y="361"/>
			<point x="610" y="335"/>
			<point x="610" y="318" type="curve" smooth="yes"/>
			<point x="610" y="102"/>
			<point x="533" y="38"/>
			<point x="387" y="38" type="curve"/>
		</contour>
	</outline>
</glyph>
<glyph name="iotadieresis" format="2">
	<unicode hex="03CA"/>
	<advance width="287"/>
	<outline>
		<contour>
			<point x="58" y="596" type="curve" smooth="yes"/>
			<point x="90" y="596"/>
			<point x="118" y="620"/>
			<point x="118" y="653" type="curve" smooth="yes"/>
			<point x="118" y="685"/>
			<point x="90" y="710"/>
			<point x="58" y="710" type="curve" smooth="yes"/>
			<point x="25" y="710"/>
			<point x="-1" y="685"/>
			<point x="-1" y="653" type="curve" smooth="yes"/>
			<point x="-1" y="620"/>
			<point x="25" y="596"/>
		</contour>
		<contour>
			<point x="247" y="596" type="curve" smooth="yes"/>
			<point x="280" y="596"/>
			<point x="306" y="620"/>
			<point x="306" y="653" type="curve" smooth="yes"/>
			<point x="306" y="685"/>
			<point x="280" y="710"/>
			<point x="247" y="710" type="curve" smooth="yes"/>
			<point x="215" y="710"/>
			<point x="187" y="685"/>
			<point x="187" y="653" type="curve" smooth="yes"/>
			<point x="187" y="620"/>
			<point x="215" y="596"/>
		</contour>
		<component base="iota"/>
	</outline>
</glyph>
<glyph name="kai" format="2">
	<unicode hex="03D7"/>
	<advance width="622"/>
	<outline>
		<contour>
			<point x="194" y="-10" type="line"/>
			<point x="260" y="0" type="line"/>
			<point x="264" y="59"/>
			<point x="266" y="119"/>
			<point x="269" y="177" type="curve"/>
			<point x="269" y="179" type="line"/>
			<point x="273" y="234"/>
			<point x="274" y="291"/>
			<point x="274" y="365" type="curve" smooth="yes"/>
			<point x="274" y="443"/>
			<point x="257" y="485"/>
			<point x="193" y="485" type="curve" smooth="yes"/>
			<point x="160" y="485"/>
			<point x="134" y="469"/>
			<point x="115" y="444" type="curve"/>
			<point x="126" y="414" type="line"/>
			<point x="138" y="416"/>
			<point x="152" y="418"/>
			<point x="165" y="418" type="curve" smooth="yes"/>
			<point x="194" y="418"/>
			<point x="202" y="400"/>
			<point x="202" y="370" type="curve"/>
			<point x="199" y="179" type="line"/>
			<point x="184" y="0" type="line"/>
		</contour>
		<contour>
			<point x="249" y="108" type="line"/>
			<point x="285" y="177"/>
			<point x="314" y="216"/>
			<point x="347" y="273" type="curve"/>
			<point x="402" y="331"/>
			<point x="454" y="389"/>
			<point x="523" y="436" type="curve"/>
			<point x="424" y="384" type="line"/>
			<point x="513" y="388" type="line" smooth="yes"/>
			<point x="563" y="390"/>
			<point x="593" y="408"/>
			<point x="593" y="444" type="curve" smooth="yes"/>
			<point x="593" y="471"/>
			<point x="576" y="484"/>
			<point x="553" y="489" type="curve"/>
			<point x="519" y="485"/>
			<point x="491" y="471"/>
			<point x="451" y="440" type="curve" smooth="yes"/>
			<point x="381" y="383"/>
			<point x="288" y="265"/>
			<point x="242" y="144" type="curve"/>
			<point x="239" y="144" type="line"/>
		</contour>
		<contour>
			<point x="317" y="-217" type="curve" smooth="yes"/>
			<point x="483" y="-217"/>
			<point x="546" y="-134"/>
			<point x="596" y="49" type="curve"/>
			<point x="588" y="75" type="line"/>
			<point x="578" y="71"/>
			<point x="560" y="68"/>
			<point x="539" y="68" type="curve" smooth="yes"/>
			<point x="504" y="68"/>
			<point x="474" y="95"/>
			<point x="360" y="303" type="curve"/>
			<point x="326" y="265" type="line"/>
			<point x="440" y="21"/>
			<point x="477" y="-8"/>
			<point x="521" y="-8" type="curve" smooth="yes"/>
			<point x="538" y="-8"/>
			<point x="555" y="-1"/>
			<point x="569" y="12" type="curve"/>
			<point x="569" y="17" type="line"/>
			<point x="557" y="17" type="line"/>
			<point x="496" y="-98"/>
			<point x="440" y="-139"/>
			<point x="326" y="-139" type="curve" smooth="yes"/>
			<point x="205" y="-139"/>
			<point x="112" y="-97"/>
			<point x="90" y="26" type="curve"/>
			<point x="57" y="20" type="line"/>
			<point x="57" y="-114"/>
			<point x="151" y="-217"/>
		</contour>
	</outline>
</glyph>
<glyph name="koppa" format="2">
	<unicode hex="03D9"/>
	<advance width="516"/>
	<outline>
		<contour>
			<point x="230" y="-190" type="line"/>
			<point x="312" y="-172" type="line"/>
			<point x="291" y="21" type="line"/>
			<point x="234" y="21" type="line"/>
			<point x="218" y="-180" type="line"/>
		</contour>
		<component base="omicron"/>
	</outline>
	<anchor name="aboveLC" x="274" y="507"/>
</glyph>
<glyph name="Lje" format="2">
	<unicode hex="0409"/>
	<advance width="894"/>
	<outline>
		<contour>
			<point x="9" y="62" type="curve"/>
			<point x="9" y="4"/>
			<point x="34" y="-15"/>
			<point x="79" y="-15" type="curve" smooth="yes"/>
			<point x="151" y="-15"/>
			<point x="206" y="47"/>
			<point x="246" y="196" type="curve" smooth="yes"/>
			<point x="276" y="310"/>
			<point x="289" y="453"/>
			<point x="296" y="669" type="curve"/>
			<point x="245" y="669" type="line"/>
			<point x="237" y="468"/>
			<point x="224" y="327"/>
			<point x="192" y="209" type="curve" smooth="yes"/>
			<point x="174" y="140"/>
			<point x="148" y="87"/>
			<point x="118" y="53" type="curve"/>
			<point x="160" y="54" type="line"/>
			<point x="128" y="82"/>
			<point x="106" y="98"/>
			<point x="71" y="98" type="curve" smooth="yes"/>
			<point x="41" y="98"/>
			<point x="21" y="89"/>
		</contour>
		<contour>
			<point x="155" y="628" type="line"/>
			<point x="255" y="613" type="line"/>
			<point x="275" y="613" type="line"/>
			<point x="275" y="669" type="line"/>
			<point x="155" y="669" type="line"/>
		</contour>
		<contour>
			<point x="275" y="619" type="line"/>
			<point x="506" y="619" type="line"/>
			<point x="506" y="669" type="line"/>
			<point x="275" y="669" type="line"/>
		</contour>
		<contour>
			<point x="506" y="613" type="line"/>
			<point x="516" y="613" type="line"/>
			<point x="647" y="628" type="line"/>
			<point x="647" y="669" type="line"/>
			<point x="506" y="669" type="line"/>
		</contour>
		<contour>
			<point x="365" y="0" type="line"/>
			<point x="506" y="0" type="line"/>
			<point x="506" y="56" type="line"/>
			<point x="495" y="56" type="line"/>
			<point x="365" y="41" type="line"/>
		</contour>
		<contour>
			<point x="455" y="0" type="curve"/>
			<point x="556" y="0" type="line"/>
			<point x="553" y="103"/>
			<point x="553" y="207"/>
			<point x="553" y="310" type="curve" smooth="yes"/>
			<point x="553" y="361" type="line" smooth="yes"/>
			<point x="553" y="464"/>
			<point x="553" y="568"/>
			<point x="556" y="669" type="curve"/>
			<point x="455" y="669" type="line"/>
			<point x="458" y="566"/>
			<point x="458" y="462"/>
			<point x="458" y="359" type="curve" smooth="yes"/>
			<point x="458" y="310" type="line" smooth="yes"/>
			<point x="458" y="205"/>
			<point x="458" y="101"/>
		</contour>
		<contour>
			<point x="506" y="0" type="line"/>
			<point x="603" y="0" type="line" smooth="yes"/>
			<point x="808" y="0"/>
			<point x="874" y="105"/>
			<point x="874" y="198" type="curve" smooth="yes"/>
			<point x="874" y="312"/>
			<point x="792" y="394"/>
			<point x="622" y="394" type="curve" smooth="yes"/>
			<point x="586" y="394"/>
			<point x="546" y="389"/>
			<point x="506" y="384" type="curve"/>
			<point x="506" y="333" type="line"/>
			<point x="534" y="339"/>
			<point x="562" y="343"/>
			<point x="600" y="343" type="curve" smooth="yes"/>
			<point x="734" y="343"/>
			<point x="775" y="291"/>
			<point x="775" y="195" type="curve" smooth="yes"/>
			<point x="775" y="102"/>
			<point x="724" y="47"/>
			<point x="591" y="47" type="curve" smooth="yes"/>
			<point x="506" y="47" type="line"/>
		</contour>
	</outline>
</glyph>
<glyph name="Nje" format="1">
	<unicode hex="040A"/>
	<advance width="972"/>
	<outline>
		<contour>
			<point x="536" y="329" type="line" smooth="yes"/>
			<point x="536" y="205"/>
			<point x="536" y="101"/>
			<point x="533" y="0" type="curve"/>
			<point x="634" y="0" type="line"/>
			<point x="631" y="103"/>
			<point x="631" y="207"/>
			<point x="631" y="310" type="curve" smooth="yes"/>
			<point x="631" y="360" type="line" smooth="yes"/>
			<point x="631" y="464"/>
			<point x="631" y="568"/>
			<point x="634" y="669" type="curve"/>
			<point x="533" y="669" type="line"/>
			<point x="536" y="566"/>
			<point x="536" y="462"/>
			<point x="536" y="359" type="curve" smooth="yes"/>
		</contour>
		<contour>
			<point x="138" y="310" type="line" smooth="yes"/>
			<point x="138" y="205"/>
			<point x="138" y="101"/>
			<point x="135" y="0" type="curve"/>
			<point x="236" y="0" type="line"/>
			<point x="233" y="103"/>
			<point x="233" y="207"/>
			<point x="233" y="329" type="curve" smooth="yes"/>
			<point x="233" y="359" type="line" smooth="yes"/>
			<point x="233" y="464"/>
			<point x="233" y="568"/>
			<point x="236" y="669" type="curve"/>
			<point x="135" y="669" type="line"/>
			<point x="138" y="566"/>
			<point x="138" y="462"/>
			<point x="138" y="359" type="curve" smooth="yes"/>
		</contour>
		<contour>
			<point x="175" y="613" type="line"/>
			<point x="195" y="613" type="line"/>
			<point x="326" y="628" type="line"/>
			<point x="326" y="669" type="line"/>
			<point x="44" y="669" type="line"/>
			<point x="44" y="628" type="line"/>
		</contour>
		<contour>
			<point x="175" y="56" type="line"/>
			<point x="44" y="41" type="line"/>
			<point x="44" y="0" type="line"/>
			<point x="326" y="0" type="line"/>
			<point x="326" y="41" type="line"/>
			<point x="195" y="56" type="line"/>
		</contour>
		<contour>
			<point x="583" y="340" type="line"/>
			<point x="583" y="386" type="line"/>
			<point x="185" y="386" type="line"/>
			<point x="185" y="340" type="line"/>
		</contour>
		<contour>
			<point x="443" y="0" type="line"/>
			<point x="584" y="0" type="line"/>
			<point x="584" y="56" type="line"/>
			<point x="573" y="56" type="line"/>
			<point x="443" y="41" type="line"/>
		</contour>
		<contour>
			<point x="443" y="628" type="line"/>
			<point x="573" y="613" type="line"/>
			<point x="603" y="613" type="line"/>
			<point x="734" y="628" type="line"/>
			<point x="734" y="669" type="line"/>
			<point x="443" y="669" type="line"/>
		</contour>
		<contour>
			<point x="584" y="0" type="line"/>
			<point x="681" y="0" type="line" smooth="yes"/>
			<point x="886" y="0"/>
			<point x="952" y="105"/>
			<point x="952" y="199" type="curve" smooth="yes"/>
			<point x="952" y="312"/>
			<point x="870" y="393"/>
			<point x="701" y="393" type="curve" smooth="yes"/>
			<point x="664" y="393"/>
			<point x="623" y="390"/>
			<point x="584" y="386" type="curve"/>
			<point x="584" y="336" type="line"/>
			<point x="612" y="341"/>
			<point x="640" y="343"/>
			<point x="678" y="343" type="curve" smooth="yes"/>
			<point x="811" y="343"/>
			<point x="853" y="294"/>
			<point x="853" y="193" type="curve" smooth="yes"/>
			<point x="853" y="103"/>
			<point x="799" y="47"/>
			<point x="668" y="47" type="curve" smooth="yes"/>
			<point x="584" y="47" type="line"/>
		</contour>
	</outline>
</glyph>
<glyph name="Dzhe" format="2">
	<unicode hex="040F"/>
	<advance width="769"/>
	<outline>
		<contour>
			<point x="135" y="0" type="curve"/>
			<point x="236" y="0" type="line"/>
			<point x="233" y="101"/>
			<point x="233" y="205"/>
			<point x="233" y="310" type="curve" smooth="yes"/>
			<point x="233" y="359" type="line" smooth="yes"/>
			<point x="233" y="462"/>
			<point x="233" y="566"/>
			<point x="236" y="669" type="curve"/>
			<point x="135" y="669" type="line"/>
			<point x="138" y="568"/>
			<point x="138" y="464"/>
			<point x="138" y="359" type="curve" smooth="yes"/>
			<point x="138" y="310" type="line" smooth="yes"/>
			<point x="138" y="207"/>
			<point x="138" y="103"/>
		</contour>
		<contour>
			<point x="533" y="0" type="curve"/>
			<point x="634" y="0" type="line"/>
			<point x="631" y="101"/>
			<point x="631" y="205"/>
			<point x="631" y="310" type="curve" smooth="yes"/>
			<point x="631" y="359" type="line" smooth="yes"/>
			<point x="631" y="462"/>
			<point x="631" y="566"/>
			<point x="634" y="669" type="curve"/>
			<point x="533" y="669" type="line"/>
			<point x="536" y="568"/>
			<point x="536" y="464"/>
			<point x="536" y="359" type="curve" smooth="yes"/>
			<point x="536" y="310" type="line" smooth="yes"/>
			<point x="536" y="207"/>
			<point x="536" y="103"/>
		</contour>
		<contour>
			<point x="44" y="628" type="line"/>
			<point x="175" y="613" type="line"/>
			<point x="195" y="613" type="line"/>
			<point x="326" y="628" type="line"/>
			<point x="326" y="669" type="line"/>
			<point x="44" y="669" type="line"/>
		</contour>
		<contour>
			<point x="443" y="628" type="line"/>
			<point x="573" y="613" type="line"/>
			<point x="594" y="613" type="line"/>
			<point x="725" y="628" type="line"/>
			<point x="725" y="669" type="line"/>
			<point x="443" y="669" type="line"/>
		</contour>
		<contour>
			<point x="44" y="0" type="line"/>
			<point x="185" y="0" type="line"/>
			<point x="185" y="56" type="line"/>
			<point x="175" y="56" type="line"/>
			<point x="44" y="41" type="line"/>
		</contour>
		<contour>
			<point x="725" y="0" type="line"/>
			<point x="725" y="41" type="line"/>
			<point x="594" y="56" type="line"/>
			<point x="583" y="56" type="line"/>
			<point x="583" y="0" type="line"/>
		</contour>
		<contour>
			<point x="339" y="31" type="line"/>
			<point x="354" y="-220" type="line"/>
			<point x="415" y="-220" type="line"/>
			<point x="430" y="31" type="line"/>
		</contour>
		<contour>
			<point x="583" y="0" type="line"/>
			<point x="583" y="51" type="line"/>
			<point x="185" y="51" type="line"/>
			<point x="185" y="0" type="line"/>
		</contour>
	</outline>
</glyph>
<glyph name="Be" format="2">
	<unicode hex="0411"/>
	<advance width="618"/>
	<outline>
		<contour>
			<point x="44" y="0" type="line"/>
			<point x="185" y="0" type="line"/>
			<point x="185" y="56" type="line"/>
			<point x="175" y="56" type="line"/>
			<point x="44" y="41" type="line"/>
		</contour>
		<contour>
			<point x="135" y="0" type="curve"/>
			<point x="235" y="0" type="line"/>
			<point x="232" y="103"/>
			<point x="232" y="207"/>
			<point x="232" y="310" type="curve" smooth="yes"/>
			<point x="232" y="360" type="line" smooth="yes"/>
			<point x="232" y="464"/>
			<point x="232" y="568"/>
			<point x="235" y="669" type="curve"/>
			<point x="135" y="669" type="line"/>
			<point x="138" y="566"/>
			<point x="138" y="462"/>
			<point x="138" y="359" type="curve" smooth="yes"/>
			<point x="138" y="310" type="line" smooth="yes"/>
			<point x="138" y="205"/>
			<point x="138" y="101"/>
		</contour>
		<contour>
			<point x="185" y="0" type="line"/>
			<point x="313" y="0" type="line" smooth="yes"/>
			<point x="521" y="0"/>
			<point x="584" y="100"/>
			<point x="584" y="198" type="curve" smooth="yes"/>
			<point x="584" y="307"/>
			<point x="502" y="388"/>
			<point x="332" y="388" type="curve" smooth="yes"/>
			<point x="287" y="388"/>
			<point x="235" y="384"/>
			<point x="185" y="378" type="curve"/>
			<point x="185" y="328" type="line"/>
			<point x="222" y="336"/>
			<point x="260" y="338"/>
			<point x="310" y="338" type="curve" smooth="yes"/>
			<point x="445" y="338"/>
			<point x="485" y="288"/>
			<point x="485" y="196" type="curve" smooth="yes"/>
			<point x="485" y="95"/>
			<point x="432" y="47"/>
			<point x="300" y="47" type="curve" smooth="yes"/>
			<point x="185" y="47" type="line"/>
		</contour>
		<contour>
			<point x="169" y="614" type="line"/>
			<point x="185" y="613" type="line"/>
			<point x="185" y="666" type="line"/>
			<point x="51" y="669" type="line"/>
			<point x="44" y="631" type="line"/>
		</contour>
		<contour>
			<point x="477" y="491" type="line"/>
			<point x="535" y="491" type="line"/>
			<point x="528" y="669" type="line"/>
			<point x="185" y="669" type="line"/>
			<point x="185" y="619" type="line"/>
			<point x="493" y="619" type="line"/>
			<point x="446" y="669" type="line"/>
		</contour>
	</outline>
</glyph>
<glyph name="De" format="2">
	<unicode hex="0414"/>
	<advance width="691"/>
	<outline>
		<contour>
			<point x="11" y="-188" type="line"/>
			<point x="68" y="-188" type="line"/>
			<point x="102" y="50" type="line"/>
			<point x="50" y="0" type="line"/>
			<point x="611" y="0" type="line"/>
			<point x="566" y="50" type="line"/>
			<point x="594" y="-188" type="line"/>
			<point x="652" y="-188" type="line"/>
			<point x="657" y="51" type="line"/>
			<point x="5" y="51" type="line"/>
		</contour>
		<contour>
			<point x="164" y="628" type="line"/>
			<point x="275" y="613" type="line"/>
			<point x="283" y="613" type="line"/>
			<point x="283" y="669" type="line"/>
			<point x="164" y="669" type="line"/>
		</contour>
		<contour>
			<point x="283" y="619" type="line"/>
			<point x="505" y="619" type="line"/>
			<point x="505" y="669" type="line"/>
			<point x="283" y="669" type="line"/>
		</contour>
		<contour>
			<point x="455" y="0" type="curve"/>
			<point x="556" y="0" type="line"/>
			<point x="553" y="101"/>
			<point x="553" y="205"/>
			<point x="553" y="310" type="curve" smooth="yes"/>
			<point x="553" y="359" type="line" smooth="yes"/>
			<point x="553" y="462"/>
			<point x="553" y="566"/>
			<point x="556" y="669" type="curve"/>
			<point x="455" y="669" type="line"/>
			<point x="458" y="568"/>
			<point x="458" y="464"/>
			<point x="458" y="359" type="curve" smooth="yes"/>
			<point x="458" y="310" type="line" smooth="yes"/>
			<point x="458" y="207"/>
			<point x="458" y="103"/>
		</contour>
		<contour>
			<point x="505" y="613" type="line"/>
			<point x="516" y="613" type="line"/>
			<point x="646" y="628" type="line"/>
			<point x="646" y="669" type="line"/>
			<point x="505" y="669" type="line"/>
		</contour>
		<contour>
			<point x="58" y="49" type="curve"/>
			<point x="114" y="29" type="line"/>
			<point x="220" y="140"/>
			<point x="305" y="341"/>
			<point x="320" y="669" type="curve"/>
			<point x="258" y="669" type="line"/>
			<point x="246" y="361"/>
			<point x="169" y="174"/>
		</contour>
	</outline>
</glyph>
<glyph name="Ie" format="1">
	<unicode hex="0415"/>
	<advance width="603"/>
	<outline>
		<component base="E"/>
		<contour>
			<point name="aboveUC" x="326" y="691" type="move"/>
		</contour>
	</outline>
</glyph>
